<svg width="36" height="24" viewBox="0 0 36 24" fill="none" xmlns="http://www.w3.org/2000/svg">
<path d="M9.81818 14.4C12.5345 14.4 14.7273 12.256 14.7273 9.6C14.7273 6.944 12.5345 4.8 9.81818 4.8C7.10182 4.8 4.90909 6.944 4.90909 9.6C4.90909 12.256 7.10182 14.4 9.81818 14.4ZM9.81818 8C10.7182 8 11.4545 8.72 11.4545 9.6C11.4545 10.48 10.7182 11.2 9.81818 11.2C8.91818 11.2 8.18182 10.48 8.18182 9.6C8.18182 8.72 8.91818 8 9.81818 8ZM29.4545 3.2H16.3636V16H3.27273V0H0V24H3.27273V19.2H32.7273V24H36V9.6C36 6.064 33.0709 3.2 29.4545 3.2ZM32.7273 16H19.6364V6.4H29.4545C31.2545 6.4 32.7273 7.84 32.7273 9.6V16Z" fill="#2E66C2"/>
</svg>
