<svg width="19" height="25" viewBox="0 0 19 25" fill="none" xmlns="http://www.w3.org/2000/svg">
<path d="M10.8008 21.502C11.3566 21.5196 11.9024 21.6652 12.4006 21.9287H12.4306C12.8469 22.2934 12.9176 22.9442 12.5906 23.4008C11.9951 24.3157 11.0424 24.8925 10.0009 24.9688C8.93077 25.1058 7.85314 24.7878 7.00122 24.0835C6.56309 23.7609 6.27836 23.2507 6.22131 22.6861C6.22131 22.0887 6.74125 21.8114 7.22119 21.694C7.78334 21.5669 8.35636 21.5026 8.931 21.502H10.8008ZM9.54093 1C13.0005 1 16.5701 3.68809 16.9401 7.58156C17.0001 8.38159 16.9401 9.21362 17.0001 10.0243C17.1964 11.0698 17.6483 12.0413 18.3099 12.8404C18.7213 13.4971 18.9596 14.2598 18.9999 15.0485V15.2938C19.006 16.3581 18.6508 17.3887 18 18.1953C17.175 19.1423 16.0558 19.7374 14.8503 19.87C11.2888 20.3606 7.68302 20.3606 4.12155 19.87C2.90191 19.7475 1.76689 19.1515 0.931911 18.1953C0.30146 17.381 -0.0291406 16.3494 0.00201772 15.2938V15.0485C0.0410377 14.2627 0.271985 13.5015 0.671941 12.8404C1.33654 12.0406 1.79481 11.0701 2.00179 10.0243C2.06178 9.21362 2.00179 8.39225 2.06178 7.58156C2.44174 3.68809 5.94134 1 9.44094 1H9.54093Z" fill="#212121"/>
<circle cx="15" cy="4" r="4" fill="#2E66C2"/>
</svg>
