<svg width="19" height="24" viewBox="0 0 19 24" fill="none" xmlns="http://www.w3.org/2000/svg">
<path d="M10.8008 20.502C11.3566 20.5196 11.9024 20.6652 12.4006 20.9287H12.4306C12.8469 21.2934 12.9176 21.9442 12.5906 22.4008C11.9951 23.3157 11.0424 23.8925 10.0009 23.9688C8.93077 24.1058 7.85314 23.7878 7.00122 23.0835C6.56309 22.7609 6.27836 22.2507 6.22131 21.6861C6.22131 21.0887 6.74125 20.8114 7.22119 20.694C7.78334 20.5669 8.35636 20.5026 8.931 20.502H10.8008ZM9.54093 0C13.0005 0 16.5701 2.68809 16.9401 6.58156C17.0001 7.38159 16.9401 8.21362 17.0001 9.02431C17.1964 10.0698 17.6483 11.0413 18.3099 11.8404C18.7213 12.4971 18.9596 13.2598 18.9999 14.0485V14.2938C19.006 15.3581 18.6508 16.3887 18 17.1953C17.175 18.1423 16.0558 18.7374 14.8503 18.87C11.2888 19.3606 7.68302 19.3606 4.12155 18.87C2.90191 18.7475 1.76689 18.1515 0.931911 17.1953C0.30146 16.381 -0.0291406 15.3494 0.00201772 14.2938V14.0485C0.0410377 13.2627 0.271985 12.5015 0.671941 11.8404C1.33654 11.0406 1.79481 10.0701 2.00179 9.02431C2.06178 8.21362 2.00179 7.39225 2.06178 6.58156C2.44174 2.68809 5.94134 0 9.44094 0H9.54093Z" fill="#ffffff"/>
</svg>
