<svg width="19" height="19" viewBox="0 0 19 19" fill="none" xmlns="http://www.w3.org/2000/svg">
<path d="M18.6607 18.3214H17.6429V6.44643C17.6429 6.35644 17.6071 6.27015 17.5435 6.20652C17.4799 6.14289 17.3936 6.10714 17.3036 6.10714H16.2857V5.08929C16.2857 4.9993 16.25 4.913 16.1863 4.84937C16.1227 4.78575 16.0364 4.75 15.9464 4.75H14.9286V3.73214C14.9286 3.64216 14.8928 3.55586 14.8292 3.49223C14.7656 3.4286 14.6793 3.39286 14.5893 3.39286H13.9107V2.375C13.9107 2.28502 13.875 2.19872 13.8113 2.13509C13.7477 2.07146 13.6614 2.03571 13.5714 2.03571C13.4814 2.03571 13.3951 2.07146 13.3315 2.13509C13.2679 2.19872 13.2321 2.28502 13.2321 2.375V3.39286H12.5536C12.4636 3.39286 12.3773 3.4286 12.3137 3.49223C12.25 3.55586 12.2143 3.64216 12.2143 3.73214V4.75H11.5357V0.339286C11.5357 0.249302 11.5 0.163003 11.4363 0.0993745C11.3727 0.0357461 11.2864 0 11.1964 0H1.69643C1.60644 0 1.52015 0.0357461 1.45652 0.0993745C1.39289 0.163003 1.35714 0.249302 1.35714 0.339286V18.3214H0.339286C0.249302 18.3214 0.163003 18.3572 0.0993745 18.4208C0.0357461 18.4844 0 18.5707 0 18.6607C0 18.7507 0.0357461 18.837 0.0993745 18.9006C0.163003 18.9643 0.249302 19 0.339286 19H18.6607C18.7507 19 18.837 18.9643 18.9006 18.9006C18.9643 18.837 19 18.7507 19 18.6607C19 18.5707 18.9643 18.4844 18.9006 18.4208C18.837 18.3572 18.7507 18.3214 18.6607 18.3214ZM12.8929 4.07143H14.25V4.75H12.8929V4.07143ZM15.6071 5.42857V6.10714H11.5357V5.42857H15.6071ZM2.03571 0.678571H10.8571V6.10714H3.73214C3.64216 6.10714 3.55586 6.14289 3.49223 6.20652C3.4286 6.27015 3.39286 6.35644 3.39286 6.44643C3.39286 6.53641 3.4286 6.62271 3.49223 6.68634C3.55586 6.74997 3.64216 6.78571 3.73214 6.78571H9.5V8.14286H3.73214C3.64216 8.14286 3.55586 8.1786 3.49223 8.24223C3.4286 8.30586 3.39286 8.39216 3.39286 8.48214C3.39286 8.57213 3.4286 8.65843 3.49223 8.72205C3.55586 8.78568 3.64216 8.82143 3.73214 8.82143H9.5V10.1786H3.73214C3.64216 10.1786 3.55586 10.2143 3.49223 10.2779C3.4286 10.3416 3.39286 10.4279 3.39286 10.5179C3.39286 10.6078 3.4286 10.6941 3.49223 10.7578C3.55586 10.8214 3.64216 10.8571 3.73214 10.8571H9.5V12.2143H3.73214C3.64216 12.2143 3.55586 12.25 3.49223 12.3137C3.4286 12.3773 3.39286 12.4636 3.39286 12.5536C3.39286 12.6436 3.4286 12.7299 3.49223 12.7935C3.55586 12.8571 3.64216 12.8929 3.73214 12.8929H9.5V14.25H3.73214C3.64216 14.25 3.55586 14.2857 3.49223 14.3494C3.4286 14.413 3.39286 14.4993 3.39286 14.5893C3.39286 14.6793 3.4286 14.7656 3.49223 14.8292C3.55586 14.8928 3.64216 14.9286 3.73214 14.9286H9.5V16.2857H3.73214C3.64216 16.2857 3.55586 16.3215 3.49223 16.3851C3.4286 16.4487 3.39286 16.535 3.39286 16.625C3.39286 16.715 3.4286 16.8013 3.49223 16.8649C3.55586 16.9285 3.64216 16.9643 3.73214 16.9643H9.5V18.3214H2.03571V0.678571ZM11.1964 18.3214H10.1786V6.78571H16.9643V18.3214H11.1964Z" fill="#141C5C"/>
<path d="M3.73186 4.74993H9.83901C9.92899 4.74993 10.0153 4.71418 10.0789 4.65056C10.1425 4.58693 10.1783 4.50063 10.1783 4.41064C10.1783 4.32066 10.1425 4.23436 10.0789 4.17073C10.0153 4.1071 9.92899 4.07136 9.83901 4.07136H3.73186C3.64188 4.07136 3.55558 4.1071 3.49195 4.17073C3.42832 4.23436 3.39258 4.32066 3.39258 4.41064C3.39258 4.50063 3.42832 4.58693 3.49195 4.65056C3.55558 4.71418 3.64188 4.74993 3.73186 4.74993ZM15.2676 8.14279H11.8747C11.7847 8.14279 11.6984 8.17853 11.6348 8.24216C11.5712 8.30579 11.5354 8.39209 11.5354 8.48207C11.5354 8.57206 11.5712 8.65836 11.6348 8.72198C11.6984 8.78561 11.7847 8.82136 11.8747 8.82136H15.2676C15.3576 8.82136 15.4439 8.78561 15.5075 8.72198C15.5711 8.65836 15.6069 8.57206 15.6069 8.48207C15.6069 8.39209 15.5711 8.30579 15.5075 8.24216C15.4439 8.17853 15.3576 8.14279 15.2676 8.14279ZM15.2676 10.8571H11.8747C11.7847 10.8571 11.6984 10.8928 11.6348 10.9564C11.5712 11.0201 11.5354 11.1064 11.5354 11.1964C11.5354 11.2863 11.5712 11.3726 11.6348 11.4363C11.6984 11.4999 11.7847 11.5356 11.8747 11.5356H15.2676C15.3576 11.5356 15.4439 11.4999 15.5075 11.4363C15.5711 11.3726 15.6069 11.2863 15.6069 11.1964C15.6069 11.1064 15.5711 11.0201 15.5075 10.9564C15.4439 10.8928 15.3576 10.8571 15.2676 10.8571ZM15.2676 13.5714H11.8747C11.7847 13.5714 11.6984 13.6071 11.6348 13.6707C11.5712 13.7344 11.5354 13.8207 11.5354 13.9106C11.5354 14.0006 11.5712 14.0869 11.6348 14.1506C11.6984 14.2142 11.7847 14.2499 11.8747 14.2499H15.2676C15.3576 14.2499 15.4439 14.2142 15.5075 14.1506C15.5711 14.0869 15.6069 14.0006 15.6069 13.9106C15.6069 13.8207 15.5711 13.7344 15.5075 13.6707C15.4439 13.6071 15.3576 13.5714 15.2676 13.5714ZM15.2676 16.2856H11.8747C11.7847 16.2856 11.6984 16.3214 11.6348 16.385C11.5712 16.4486 11.5354 16.5349 11.5354 16.6249C11.5354 16.7149 11.5712 16.8012 11.6348 16.8648C11.6984 16.9285 11.7847 16.9642 11.8747 16.9642H15.2676C15.3576 16.9642 15.4439 16.9285 15.5075 16.8648C15.5711 16.8012 15.6069 16.7149 15.6069 16.6249C15.6069 16.5349 15.5711 16.4486 15.5075 16.385C15.4439 16.3214 15.3576 16.2856 15.2676 16.2856ZM3.73186 2.71422H9.83901C9.92899 2.71422 10.0153 2.67847 10.0789 2.61484C10.1425 2.55121 10.1783 2.46491 10.1783 2.37493C10.1783 2.28495 10.1425 2.19865 10.0789 2.13502C10.0153 2.07139 9.92899 2.03564 9.83901 2.03564H3.73186C3.64188 2.03564 3.55558 2.07139 3.49195 2.13502C3.42832 2.19865 3.39258 2.28495 3.39258 2.37493C3.39258 2.46491 3.42832 2.55121 3.49195 2.61484C3.55558 2.67847 3.64188 2.71422 3.73186 2.71422Z" fill="#141C5C"/>
</svg>
