<svg width="33" height="33" viewBox="0 0 33 33" fill="none" xmlns="http://www.w3.org/2000/svg">
<path d="M22.2589 15.6316V5.21053L16.9255 0L11.5922 5.21053V8.68421H0.925537V33H32.9255V15.6316H22.2589ZM8.03665 29.5263H4.48109V26.0526H8.03665V29.5263ZM8.03665 22.5789H4.48109V19.1053H8.03665V22.5789ZM8.03665 15.6316H4.48109V12.1579H8.03665V15.6316ZM18.7033 29.5263H15.1478V26.0526H18.7033V29.5263ZM18.7033 22.5789H15.1478V19.1053H18.7033V22.5789ZM18.7033 15.6316H15.1478V12.1579H18.7033V15.6316ZM18.7033 8.68421H15.1478V5.21053H18.7033V8.68421ZM29.37 29.5263H25.8144V26.0526H29.37V29.5263ZM29.37 22.5789H25.8144V19.1053H29.37V22.5789Z" fill="black"/>
</svg>
