<svg width="36" height="33" viewBox="0 0 36 33" fill="none" xmlns="http://www.w3.org/2000/svg">
<path d="M18.0016 23.4001C20.9839 23.4001 23.4016 20.9824 23.4016 18.0001C23.4016 15.0178 20.9839 12.6001 18.0016 12.6001C15.0192 12.6001 12.6016 15.0178 12.6016 18.0001C12.6016 20.9824 15.0192 23.4001 18.0016 23.4001Z" fill="black"/>
<path d="M32.4 3.6H26.694L24.462 1.17C23.796 0.432 22.824 0 21.816 0H14.184C13.176 0 12.204 0.432 11.52 1.17L9.306 3.6H3.6C1.62 3.6 0 5.22 0 7.2V28.8C0 30.78 1.62 32.4 3.6 32.4H32.4C34.38 32.4 36 30.78 36 28.8V7.2C36 5.22 34.38 3.6 32.4 3.6ZM18 27C13.032 27 9 22.968 9 18C9 13.032 13.032 9 18 9C22.968 9 27 13.032 27 18C27 22.968 22.968 27 18 27Z" fill="black"/>
</svg>
