<svg width="16" height="16" viewBox="0 0 16 16" fill="none" xmlns="http://www.w3.org/2000/svg">
<path d="M14.19 9.49046L10.7785 6.13376C10.6905 6.0433 10.5929 5.96474 10.4953 5.88617C10.8476 6.69321 10.9023 7.60023 10.6452 8.45488L12.8759 10.6498C13.0438 10.8148 13.1772 11.0115 13.2682 11.2285C13.3593 11.4456 13.4062 11.6786 13.4062 11.914C13.4062 12.1493 13.3593 12.3823 13.2682 12.5994C13.1772 12.8164 13.0438 13.0131 12.8759 13.1781C12.5333 13.5141 12.0726 13.7021 11.5927 13.7018C11.1285 13.7018 10.6643 13.528 10.3096 13.1781L7.03618 9.95469C6.76797 9.69355 6.591 9.35297 6.53149 8.98339V8.97862C6.52911 8.97624 6.52911 8.97386 6.52911 8.9691C6.43388 8.40965 6.62195 7.83116 7.0338 7.42645C7.37557 7.08897 7.83666 6.89992 8.31697 6.90033C8.35506 6.90033 8.38839 6.90271 8.42171 6.90509C8.35025 6.6462 8.21334 6.41008 8.02415 6.21946L7.08856 5.30054C6.56643 5.47522 6.09227 5.76932 5.70379 6.15946C5.31531 6.5496 5.02322 7.025 4.85076 7.54786C4.53413 8.51678 4.65554 9.56902 5.18643 10.4356C5.33403 10.6808 5.51257 10.9069 5.72445 11.1141L9.13115 14.4684C10.5262 15.842 12.7949 15.842 14.1876 14.4684C15.5827 13.0971 15.5827 10.8617 14.19 9.49046Z" fill="white"/>
<path d="M4.58987 7.54791L2.35921 5.35058C2.01402 5.01491 1.82833 4.56497 1.82833 4.08646C1.82833 3.60795 2.01402 3.16278 2.35921 2.82234C2.7016 2.48609 3.16249 2.29797 3.64238 2.2986C4.12565 2.2986 4.58273 2.48429 4.92554 2.82234L8.2013 6.04811C8.47146 6.31069 8.64865 6.6542 8.706 7.02655L8.70838 7.02893V7.03369C8.80122 7.59314 8.61315 8.16926 8.2013 8.57635C7.85884 8.91101 7.39935 9.09891 6.92052 9.10009C6.88481 9.10009 6.8491 9.09295 6.81577 9.09057C6.88481 9.35244 7.01812 9.58812 7.21334 9.78333L8.14655 10.7023C8.65838 10.5309 9.12975 10.2452 9.51065 9.86666C9.91536 9.46909 10.2177 8.98344 10.3891 8.45732C10.7034 7.49078 10.5819 6.4433 10.0582 5.57674V5.57436C10.0553 5.57165 10.0528 5.56842 10.0511 5.56484C9.90584 5.32202 9.72491 5.09585 9.51542 4.88874L6.10634 1.53204C5.43024 0.865458 4.53274 0.501221 3.57572 0.501221C2.6187 0.501221 1.7212 0.867839 1.0451 1.53204C0.37376 2.19862 0 3.08183 0 4.02219C0.00238064 4.96254 0.37376 5.84814 1.04986 6.51233L4.45656 9.86427C4.54702 9.95474 4.64225 10.0357 4.74223 10.1142C4.38752 9.30959 4.33276 8.40018 4.58987 7.54791Z" fill="white"/>
</svg>
