<svg width="37" height="37" viewBox="0 0 37 37" fill="none" xmlns="http://www.w3.org/2000/svg">
<path d="M35.1496 8.0166H31.4496V9.24993H33.661L23.1776 19.7333H12.3329C12.1694 19.7333 12.0126 19.7983 11.8969 19.9139L2.03027 29.7806L2.90224 30.6526L12.5882 20.9666H23.4329C23.5965 20.9666 23.7533 20.9016 23.8689 20.7859L34.5329 10.1219V12.3333H35.7663V8.63327C35.7663 8.46972 35.7013 8.31287 35.5856 8.19722C35.47 8.08157 35.3131 8.0166 35.1496 8.0166Z" fill="#13D503"/>
<path d="M3.08333 35.7667V0H1.85V1.23333H0V2.46667H1.85V9.86667H0V11.1H1.85V18.5H0V19.7333H1.85V27.1333H0V28.3667H1.85V36.3833C1.85 36.5469 1.91497 36.7037 2.03062 36.8194C2.14627 36.935 2.30312 37 2.46667 37H37V35.7667H3.08333Z" fill="#353535"/>
<path d="M8.01654 2.4668H6.7832V3.70013H8.01654V2.4668Z" fill="#353535"/>
<path d="M16.65 2.4668H9.25V3.70013H16.65V2.4668Z" fill="#353535"/>
<path d="M16.6499 4.93335H6.7832V6.16668H16.6499V4.93335Z" fill="#353535"/>
<path d="M16.6499 7.40015H6.7832V8.63348H16.6499V7.40015Z" fill="#353535"/>
</svg>
