<svg width="37" height="38" viewBox="0 0 37 38" fill="none" xmlns="http://www.w3.org/2000/svg">
<path d="M33.152 27.5405L31.5599 24.7828L30.6406 25.3135L31.5922 26.9617L19.2677 23.6593L14.6011 15.5766C14.5307 15.4547 14.4147 15.3658 14.2788 15.3294L2.67921 12.2213L2.40453 13.2464L13.7917 16.2975L18.4583 24.3803C18.5287 24.5022 18.6446 24.5911 18.7806 24.6275L31.3175 27.9868L29.6693 28.9384L30.2001 29.8576L32.9577 28.2655C33.0796 28.1951 33.1686 28.0792 33.205 27.9432C33.2415 27.8072 33.2224 27.6624 33.152 27.5405Z" fill="#EB0000"/>
<path d="M3.08333 35.7667V0H1.85V1.23333H0V2.46667H1.85V9.86667H0V11.1H1.85V18.5H0V19.7333H1.85V27.1333H0V28.3667H1.85V36.3833C1.85 36.5469 1.91497 36.7037 2.03062 36.8194C2.14627 36.935 2.30312 37 2.46667 37H37V35.7667H3.08333Z" fill="#353535"/>
<path d="M8.01654 2.4668H6.7832V3.70013H8.01654V2.4668Z" fill="#353535"/>
<path d="M16.65 2.4668H9.25V3.70013H16.65V2.4668Z" fill="#353535"/>
<path d="M16.6499 4.93335H6.7832V6.16668H16.6499V4.93335Z" fill="#353535"/>
<path d="M16.6499 7.40015H6.7832V8.63348H16.6499V7.40015Z" fill="#353535"/>
</svg>
