<svg width="14" height="8" viewBox="0 0 14 8" fill="none" xmlns="http://www.w3.org/2000/svg">
<path d="M13.6948 0.305975C13.8905 0.502086 14.0005 0.767869 14.0005 1.04498C14.0005 1.32208 13.8905 1.58786 13.6948 1.78398L7.79076 7.69398C7.56276 7.92198 7.25476 8.02398 6.95676 7.99598C6.68676 7.99598 6.41776 7.89498 6.21276 7.68998L0.305755 1.78298C0.208774 1.686 0.131844 1.57086 0.0793582 1.44415C0.0268728 1.31744 -0.000141994 1.18163 -0.000142006 1.04448C-0.000142018 0.907325 0.0268727 0.771515 0.0793582 0.644803C0.131844 0.518091 0.208774 0.402957 0.305755 0.305976C0.402736 0.208995 0.51787 0.132065 0.644582 0.0795796C0.771294 0.0270937 0.907104 7.93432e-05 1.04426 7.9334e-05C1.18141 7.93247e-05 1.31722 0.0270937 1.44393 0.0795795C1.57064 0.132065 1.68577 0.208995 1.78276 0.305976L7.00276 5.52598L12.2188 0.305975C12.3156 0.208977 12.4307 0.132027 12.5573 0.0795251C12.6839 0.0270231 12.8197 1.0323e-07 12.9568 9.12461e-08C13.0938 7.92618e-08 13.2296 0.0270231 13.3562 0.0795251C13.4828 0.132027 13.5979 0.208977 13.6948 0.305975Z" fill="#212121"/>
</svg>
