<svg width="14" height="8" viewBox="0 0 14 8" fill="none" xmlns="http://www.w3.org/2000/svg">
<path d="M0.305733 7.69451C0.109958 7.4984 0 7.23262 0 6.95551C0 6.67841 0.109958 6.41262 0.305733 6.21651L6.20973 0.306513C6.43773 0.0785127 6.74573 -0.0234871 7.04373 0.00451279C7.31373 0.00451279 7.58273 0.105514 7.78773 0.310513L13.6947 6.21751C13.7917 6.31449 13.8686 6.42963 13.9211 6.55634C13.9736 6.68305 14.0006 6.81886 14.0006 6.95601C14.0006 7.09316 13.9736 7.22897 13.9211 7.35569C13.8686 7.4824 13.7917 7.59753 13.6947 7.69451C13.5978 7.79149 13.4826 7.86842 13.3559 7.92091C13.2292 7.9734 13.0934 8.00041 12.9562 8.00041C12.8191 8.00041 12.6833 7.9734 12.5566 7.92091C12.4298 7.86842 12.3147 7.79149 12.2177 7.69451L6.99773 2.47451L1.78173 7.69451C1.68486 7.79151 1.56982 7.86846 1.44319 7.92096C1.31656 7.97347 1.18082 8.00049 1.04373 8.00049C0.906649 8.00049 0.770909 7.97347 0.644276 7.92096C0.517644 7.86846 0.402603 7.79151 0.305733 7.69451Z" fill="#212121"/>
</svg>
