<svg height="24" viewBox="0 0 24 24" width="24" xmlns="http://www.w3.org/2000/svg"><path d="m12 23c-6.07513225 0-11-4.9248678-11-11 0-6.07513225 4.92486775-11 11-11 6.0751322 0 11 4.92486775 11 11 0 6.0751322-4.9248678 11-11 11zm0-2c4.9705627 0 9-4.0294373 9-9 0-4.97056275-4.0294373-9-9-9-4.97056275 0-9 4.02943725-9 9 0 4.9705627 4.02943725 9 9 9zm1-10.5857864v6.5857864h-2v-6.5857864l-2.29289322 2.2928932-1.41421356-1.4142136 4.70710678-4.70710676 4.7071068 4.70710676-1.4142136 1.4142136z" fill-rule="evenodd"/></svg>