<svg width="31" height="31" viewBox="0 0 31 31" fill="none" xmlns="http://www.w3.org/2000/svg">
<path d="M15.6378 5.40788V1.32872C15.6378 0.976319 15.7801 0.638354 16.0334 0.389172C16.2866 0.139989 16.6301 0 16.9883 0C17.3464 0 17.6899 0.139989 17.9431 0.389172C18.1964 0.638354 18.3387 0.976319 18.3387 1.32872V5.40788C18.3387 5.76027 18.1964 6.09824 17.9431 6.34742C17.6899 6.5966 17.3464 6.73659 16.9883 6.73659C16.6301 6.73659 16.2866 6.5966 16.0334 6.34742C15.7801 6.09824 15.6378 5.76027 15.6378 5.40788ZM25.0908 10.0451C25.2685 10.0461 25.4447 10.0126 25.6092 9.94646C25.7737 9.88034 25.9234 9.78291 26.0496 9.65977L29.007 6.77645C29.2585 6.5275 29.3997 6.19074 29.3997 5.83971C29.3997 5.48868 29.2585 5.15191 29.007 4.90296C28.754 4.65549 28.4117 4.51658 28.0549 4.51658C27.6982 4.51658 27.3559 4.65549 27.1029 4.90296L24.1725 7.78628C23.9874 7.97199 23.8618 8.20707 23.8113 8.46235C23.7607 8.71764 23.7874 8.98192 23.888 9.22242C23.9887 9.46292 24.1589 9.66906 24.3775 9.8153C24.5961 9.96154 24.8535 10.0414 25.1178 10.0451H25.0908ZM7.89994 23.784L4.96954 26.6673C4.84297 26.7909 4.7425 26.9378 4.67394 27.0997C4.60538 27.2616 4.57009 27.4353 4.57009 27.6107C4.57009 27.7861 4.60538 27.9598 4.67394 28.1217C4.7425 28.2836 4.84297 28.4306 4.96954 28.5541C5.09508 28.6786 5.24443 28.7775 5.409 28.845C5.57356 28.9124 5.75006 28.9471 5.92833 28.9471C6.10661 28.9471 6.28311 28.9124 6.44767 28.845C6.61224 28.7775 6.76159 28.6786 6.88713 28.5541L9.81754 25.6708C9.94345 25.5469 10.0433 25.3998 10.1115 25.238C10.1796 25.0761 10.2147 24.9026 10.2147 24.7274C10.2147 24.5522 10.1796 24.3787 10.1115 24.2168C10.0433 24.055 9.94345 23.9079 9.81754 23.784C9.69163 23.6601 9.54215 23.5619 9.37764 23.4948C9.21313 23.4278 9.03681 23.3933 8.85874 23.3933C8.68068 23.3933 8.50436 23.4278 8.33985 23.4948C8.17533 23.5619 8.02586 23.6601 7.89994 23.784ZM6.83311 16.795C6.83311 16.4426 6.69084 16.1046 6.43759 15.8554C6.18433 15.6062 5.84085 15.4663 5.4827 15.4663H1.35042C0.992265 15.4663 0.648781 15.6062 0.395529 15.8554C0.142276 16.1046 0 16.4426 0 16.795C0 17.1474 0.142276 17.4853 0.395529 17.7345C0.648781 17.9837 0.992265 18.1237 1.35042 18.1237H5.4827C5.84085 18.1237 6.18433 17.9837 6.43759 17.7345C6.69084 17.4853 6.83311 17.1474 6.83311 16.795ZM6.83311 4.9694C6.57624 4.81718 6.27519 4.75341 5.97741 4.78814C5.67964 4.82288 5.40208 4.95414 5.1885 5.16124C4.97493 5.36834 4.83748 5.63949 4.79783 5.93194C4.75819 6.2244 4.8186 6.52151 4.96954 6.77645L7.89994 9.65977C8.02613 9.78291 8.17578 9.88034 8.34031 9.94646C8.50484 10.0126 8.68102 10.0461 8.85874 10.0451C9.03647 10.0461 9.21264 10.0126 9.37718 9.94646C9.54171 9.88034 9.69136 9.78291 9.81754 9.65977C10.0691 9.41082 10.2102 9.07405 10.2102 8.72302C10.2102 8.37199 10.0691 8.03523 9.81754 7.78628L6.83311 4.9694ZM30.56 30.6136C30.3069 30.8611 29.9647 31 29.6079 31C29.2512 31 28.9089 30.8611 28.6559 30.6136L23.7539 25.7904L20.2698 30.2416C20.144 30.4024 19.9824 30.5327 19.7975 30.6225C19.6126 30.7123 19.4092 30.7593 19.2029 30.7598H18.9734C18.7307 30.718 18.5044 30.6118 18.3187 30.4525C18.133 30.2932 17.9952 30.0871 17.92 29.8563L13.1801 15.0676C13.1032 14.8346 13.0932 14.5852 13.1514 14.3469C13.2095 14.1087 13.3335 13.8909 13.5096 13.7176C13.6856 13.5444 13.907 13.4224 14.1491 13.3652C14.3913 13.308 14.6448 13.3178 14.8816 13.3935L29.8307 18.1237C30.0674 18.196 30.2793 18.3311 30.4432 18.514C30.6071 18.6969 30.7167 18.9207 30.7599 19.1608C30.8031 19.401 30.7784 19.6482 30.6883 19.8754C30.5983 20.1026 30.4464 20.301 30.2494 20.4489L25.7255 23.877L30.614 28.687C30.8614 28.9354 31 29.2693 31 29.6171C31 29.9649 30.8614 30.2988 30.614 30.5472L30.56 30.6136ZM22.606 22.9071L22.7005 22.8273L22.7951 22.7476L26.4952 19.944L16.4886 16.795L19.6891 26.6275L22.606 22.9071Z" fill="#2E66C2"/>
</svg>
