<svg width="41" height="41" viewBox="0 0 41 41" fill="none" xmlns="http://www.w3.org/2000/svg">
<path d="M20.5 0C9.1785 0 0 9.1785 0 20.5C0 31.8215 9.1785 41 20.5 41C31.8215 41 41 31.8215 41 20.5C41 9.1785 31.8215 0 20.5 0ZM20.5 39.0592C10.2702 39.0592 1.94083 30.7298 1.94083 20.5C1.94083 10.2702 10.2702 1.94083 20.5 1.94083C30.7298 1.94083 39.0592 10.2702 39.0592 20.5C39.0592 30.7298 30.7298 39.0592 20.5 39.0592Z" fill="#141C5C"/>
<path d="M20.9938 20.0226V8.94915C20.9938 8.43503 20.5369 8 19.9969 8C19.4569 8 19 8.43503 19 8.94915V20.4181C19 20.6554 19.1246 20.9322 19.2908 21.0904L27.3074 28.7232C27.5151 28.9209 27.7643 29 28.0135 29C28.2627 29 28.5119 28.9209 28.7196 28.7232C29.0935 28.3672 29.0935 27.7345 28.7196 27.3785L20.9938 20.0226Z" fill="#141C5C"/>
</svg>
