<svg width="17" height="17" viewBox="0 0 17 17" fill="none" xmlns="http://www.w3.org/2000/svg">
<path d="M9.45768 8.0426L15.7742 1.72579C15.8701 1.6332 15.9466 1.52243 15.9992 1.39997C16.0518 1.2775 16.0795 1.14579 16.0806 1.01251C16.0818 0.879224 16.0564 0.747046 16.0059 0.623685C15.9555 0.500323 15.8809 0.388249 15.7867 0.294001C15.6924 0.199753 15.5804 0.125219 15.457 0.074748C15.3336 0.0242769 15.2015 -0.00112028 15.0682 3.78999e-05C14.9349 0.00119608 14.8032 0.0288867 14.6807 0.081494C14.5582 0.134101 14.4475 0.210572 14.3549 0.306443L8.03808 6.623L1.72153 0.306443C1.53259 0.12166 1.27841 0.0188381 1.01414 0.0202935C0.74987 0.0217489 0.496835 0.127364 0.309949 0.314217C0.123062 0.50107 0.0174032 0.754086 0.0159011 1.01836C0.014399 1.28263 0.117175 1.53683 0.301926 1.72579L6.61873 8.0426L0.301926 14.3594C0.207011 14.4522 0.131454 14.563 0.0796307 14.6852C0.0278072 14.8074 0.000746368 14.9387 1.52228e-05 15.0715C-0.000715922 15.2043 0.0248972 15.3358 0.0753713 15.4586C0.125845 15.5814 0.200177 15.693 0.294064 15.7869C0.38795 15.8807 0.499526 15.9551 0.62233 16.0055C0.745134 16.056 0.876727 16.0816 1.00949 16.0808C1.14225 16.08 1.27354 16.053 1.39577 16.0011C1.51799 15.9493 1.62871 15.8737 1.72153 15.7788L8.03808 9.4622L14.3549 15.7788C14.5509 15.9747 14.8078 16.0729 15.0646 16.0729C15.3213 16.0729 15.5785 15.9747 15.7742 15.7788C15.9624 15.5905 16.0681 15.3352 16.0681 15.0691C16.0681 14.8029 15.9624 14.5476 15.7742 14.3594L9.45768 8.0426Z" fill="#212121"/>
</svg>
