<svg width="20" height="27" viewBox="0 0 20 27" fill="none" xmlns="http://www.w3.org/2000/svg">
<path d="M19.0909 0C19.3371 0 19.5502 0.0954241 19.7301 0.286272C19.91 0.477121 20 0.703125 20 0.964286V26.0357C20 26.2969 19.91 26.5229 19.7301 26.7137C19.5502 26.9046 19.3371 27 19.0909 27H0.909091C0.662879 27 0.449811 26.9046 0.269886 26.7137C0.0899621 26.5229 0 26.2969 0 26.0357V0.964286C0 0.703125 0.0899621 0.477121 0.269886 0.286272C0.449811 0.0954241 0.662879 0 0.909091 0H19.0909ZM7.27273 4.33929V5.30357C7.27273 5.4442 7.31534 5.55971 7.40057 5.65011C7.4858 5.74051 7.5947 5.78571 7.72727 5.78571H8.63636C8.76894 5.78571 8.87784 5.74051 8.96307 5.65011C9.0483 5.55971 9.09091 5.4442 9.09091 5.30357V4.33929C9.09091 4.19866 9.0483 4.08315 8.96307 3.99275C8.87784 3.90234 8.76894 3.85714 8.63636 3.85714H7.72727C7.5947 3.85714 7.4858 3.90234 7.40057 3.99275C7.31534 4.08315 7.27273 4.19866 7.27273 4.33929ZM7.27273 8.19643V9.16071C7.27273 9.30134 7.31534 9.41685 7.40057 9.50725C7.4858 9.59766 7.5947 9.64286 7.72727 9.64286H8.63636C8.76894 9.64286 8.87784 9.59766 8.96307 9.50725C9.0483 9.41685 9.09091 9.30134 9.09091 9.16071V8.19643C9.09091 8.0558 9.0483 7.94029 8.96307 7.84989C8.87784 7.75949 8.76894 7.71429 8.63636 7.71429H7.72727C7.5947 7.71429 7.4858 7.75949 7.40057 7.84989C7.31534 7.94029 7.27273 8.0558 7.27273 8.19643ZM7.27273 12.0536V13.0179C7.27273 13.1585 7.31534 13.274 7.40057 13.3644C7.4858 13.4548 7.5947 13.5 7.72727 13.5H8.63636C8.76894 13.5 8.87784 13.4548 8.96307 13.3644C9.0483 13.274 9.09091 13.1585 9.09091 13.0179V12.0536C9.09091 11.9129 9.0483 11.7974 8.96307 11.707C8.87784 11.6166 8.76894 11.5714 8.63636 11.5714H7.72727C7.5947 11.5714 7.4858 11.6166 7.40057 11.707C7.31534 11.7974 7.27273 11.9129 7.27273 12.0536ZM7.27273 15.9107V16.875C7.27273 17.0156 7.31534 17.1311 7.40057 17.2215C7.4858 17.3119 7.5947 17.3571 7.72727 17.3571H8.63636C8.76894 17.3571 8.87784 17.3119 8.96307 17.2215C9.0483 17.1311 9.09091 17.0156 9.09091 16.875V15.9107C9.09091 15.7701 9.0483 15.6546 8.96307 15.5642C8.87784 15.4738 8.76894 15.4286 8.63636 15.4286H7.72727C7.5947 15.4286 7.4858 15.4738 7.40057 15.5642C7.31534 15.6546 7.27273 15.7701 7.27273 15.9107ZM5.45455 20.7321V19.7679C5.45455 19.6272 5.41193 19.5117 5.3267 19.4213C5.24148 19.3309 5.13258 19.2857 5 19.2857H4.09091C3.95833 19.2857 3.84943 19.3309 3.7642 19.4213C3.67898 19.5117 3.63636 19.6272 3.63636 19.7679V20.7321C3.63636 20.8728 3.67898 20.9883 3.7642 21.0787C3.84943 21.1691 3.95833 21.2143 4.09091 21.2143H5C5.13258 21.2143 5.24148 21.1691 5.3267 21.0787C5.41193 20.9883 5.45455 20.8728 5.45455 20.7321ZM5.45455 16.875V15.9107C5.45455 15.7701 5.41193 15.6546 5.3267 15.5642C5.24148 15.4738 5.13258 15.4286 5 15.4286H4.09091C3.95833 15.4286 3.84943 15.4738 3.7642 15.5642C3.67898 15.6546 3.63636 15.7701 3.63636 15.9107V16.875C3.63636 17.0156 3.67898 17.1311 3.7642 17.2215C3.84943 17.3119 3.95833 17.3571 4.09091 17.3571H5C5.13258 17.3571 5.24148 17.3119 5.3267 17.2215C5.41193 17.1311 5.45455 17.0156 5.45455 16.875ZM5.45455 13.0179V12.0536C5.45455 11.9129 5.41193 11.7974 5.3267 11.707C5.24148 11.6166 5.13258 11.5714 5 11.5714H4.09091C3.95833 11.5714 3.84943 11.6166 3.7642 11.707C3.67898 11.7974 3.63636 11.9129 3.63636 12.0536V13.0179C3.63636 13.1585 3.67898 13.274 3.7642 13.3644C3.84943 13.4548 3.95833 13.5 4.09091 13.5H5C5.13258 13.5 5.24148 13.4548 5.3267 13.3644C5.41193 13.274 5.45455 13.1585 5.45455 13.0179ZM5.45455 9.16071V8.19643C5.45455 8.0558 5.41193 7.94029 5.3267 7.84989C5.24148 7.75949 5.13258 7.71429 5 7.71429H4.09091C3.95833 7.71429 3.84943 7.75949 3.7642 7.84989C3.67898 7.94029 3.63636 8.0558 3.63636 8.19643V9.16071C3.63636 9.30134 3.67898 9.41685 3.7642 9.50725C3.84943 9.59766 3.95833 9.64286 4.09091 9.64286H5C5.13258 9.64286 5.24148 9.59766 5.3267 9.50725C5.41193 9.41685 5.45455 9.30134 5.45455 9.16071ZM5.45455 5.30357V4.33929C5.45455 4.19866 5.41193 4.08315 5.3267 3.99275C5.24148 3.90234 5.13258 3.85714 5 3.85714H4.09091C3.95833 3.85714 3.84943 3.90234 3.7642 3.99275C3.67898 4.08315 3.63636 4.19866 3.63636 4.33929V5.30357C3.63636 5.4442 3.67898 5.55971 3.7642 5.65011C3.84943 5.74051 3.95833 5.78571 4.09091 5.78571H5C5.13258 5.78571 5.24148 5.74051 5.3267 5.65011C5.41193 5.55971 5.45455 5.4442 5.45455 5.30357ZM12.7273 24.5893V21.6964C12.7273 21.5558 12.6847 21.4403 12.5994 21.3499C12.5142 21.2595 12.4053 21.2143 12.2727 21.2143H7.72727C7.5947 21.2143 7.4858 21.2595 7.40057 21.3499C7.31534 21.4403 7.27273 21.5558 7.27273 21.6964V24.5893C7.27273 24.7299 7.31534 24.8454 7.40057 24.9358C7.4858 25.0262 7.5947 25.0714 7.72727 25.0714H12.2727C12.4053 25.0714 12.5142 25.0262 12.5994 24.9358C12.6847 24.8454 12.7273 24.7299 12.7273 24.5893ZM12.7273 16.875V15.9107C12.7273 15.7701 12.6847 15.6546 12.5994 15.5642C12.5142 15.4738 12.4053 15.4286 12.2727 15.4286H11.3636C11.2311 15.4286 11.1222 15.4738 11.0369 15.5642C10.9517 15.6546 10.9091 15.7701 10.9091 15.9107V16.875C10.9091 17.0156 10.9517 17.1311 11.0369 17.2215C11.1222 17.3119 11.2311 17.3571 11.3636 17.3571H12.2727C12.4053 17.3571 12.5142 17.3119 12.5994 17.2215C12.6847 17.1311 12.7273 17.0156 12.7273 16.875ZM12.7273 13.0179V12.0536C12.7273 11.9129 12.6847 11.7974 12.5994 11.707C12.5142 11.6166 12.4053 11.5714 12.2727 11.5714H11.3636C11.2311 11.5714 11.1222 11.6166 11.0369 11.707C10.9517 11.7974 10.9091 11.9129 10.9091 12.0536V13.0179C10.9091 13.1585 10.9517 13.274 11.0369 13.3644C11.1222 13.4548 11.2311 13.5 11.3636 13.5H12.2727C12.4053 13.5 12.5142 13.4548 12.5994 13.3644C12.6847 13.274 12.7273 13.1585 12.7273 13.0179ZM12.7273 9.16071V8.19643C12.7273 8.0558 12.6847 7.94029 12.5994 7.84989C12.5142 7.75949 12.4053 7.71429 12.2727 7.71429H11.3636C11.2311 7.71429 11.1222 7.75949 11.0369 7.84989C10.9517 7.94029 10.9091 8.0558 10.9091 8.19643V9.16071C10.9091 9.30134 10.9517 9.41685 11.0369 9.50725C11.1222 9.59766 11.2311 9.64286 11.3636 9.64286H12.2727C12.4053 9.64286 12.5142 9.59766 12.5994 9.50725C12.6847 9.41685 12.7273 9.30134 12.7273 9.16071ZM12.7273 5.30357V4.33929C12.7273 4.19866 12.6847 4.08315 12.5994 3.99275C12.5142 3.90234 12.4053 3.85714 12.2727 3.85714H11.3636C11.2311 3.85714 11.1222 3.90234 11.0369 3.99275C10.9517 4.08315 10.9091 4.19866 10.9091 4.33929V5.30357C10.9091 5.4442 10.9517 5.55971 11.0369 5.65011C11.1222 5.74051 11.2311 5.78571 11.3636 5.78571H12.2727C12.4053 5.78571 12.5142 5.74051 12.5994 5.65011C12.6847 5.55971 12.7273 5.4442 12.7273 5.30357ZM16.3636 20.7321V19.7679C16.3636 19.6272 16.321 19.5117 16.2358 19.4213C16.1506 19.3309 16.0417 19.2857 15.9091 19.2857H15C14.8674 19.2857 14.7585 19.3309 14.6733 19.4213C14.5881 19.5117 14.5455 19.6272 14.5455 19.7679V20.7321C14.5455 20.8728 14.5881 20.9883 14.6733 21.0787C14.7585 21.1691 14.8674 21.2143 15 21.2143H15.9091C16.0417 21.2143 16.1506 21.1691 16.2358 21.0787C16.321 20.9883 16.3636 20.8728 16.3636 20.7321ZM16.3636 16.875V15.9107C16.3636 15.7701 16.321 15.6546 16.2358 15.5642C16.1506 15.4738 16.0417 15.4286 15.9091 15.4286H15C14.8674 15.4286 14.7585 15.4738 14.6733 15.5642C14.5881 15.6546 14.5455 15.7701 14.5455 15.9107V16.875C14.5455 17.0156 14.5881 17.1311 14.6733 17.2215C14.7585 17.3119 14.8674 17.3571 15 17.3571H15.9091C16.0417 17.3571 16.1506 17.3119 16.2358 17.2215C16.321 17.1311 16.3636 17.0156 16.3636 16.875ZM16.3636 13.0179V12.0536C16.3636 11.9129 16.321 11.7974 16.2358 11.707C16.1506 11.6166 16.0417 11.5714 15.9091 11.5714H15C14.8674 11.5714 14.7585 11.6166 14.6733 11.707C14.5881 11.7974 14.5455 11.9129 14.5455 12.0536V13.0179C14.5455 13.1585 14.5881 13.274 14.6733 13.3644C14.7585 13.4548 14.8674 13.5 15 13.5H15.9091C16.0417 13.5 16.1506 13.4548 16.2358 13.3644C16.321 13.274 16.3636 13.1585 16.3636 13.0179ZM16.3636 9.16071V8.19643C16.3636 8.0558 16.321 7.94029 16.2358 7.84989C16.1506 7.75949 16.0417 7.71429 15.9091 7.71429H15C14.8674 7.71429 14.7585 7.75949 14.6733 7.84989C14.5881 7.94029 14.5455 8.0558 14.5455 8.19643V9.16071C14.5455 9.30134 14.5881 9.41685 14.6733 9.50725C14.7585 9.59766 14.8674 9.64286 15 9.64286H15.9091C16.0417 9.64286 16.1506 9.59766 16.2358 9.50725C16.321 9.41685 16.3636 9.30134 16.3636 9.16071ZM16.3636 5.30357V4.33929C16.3636 4.19866 16.321 4.08315 16.2358 3.99275C16.1506 3.90234 16.0417 3.85714 15.9091 3.85714H15C14.8674 3.85714 14.7585 3.90234 14.6733 3.99275C14.5881 4.08315 14.5455 4.19866 14.5455 4.33929V5.30357C14.5455 5.4442 14.5881 5.55971 14.6733 5.65011C14.7585 5.74051 14.8674 5.78571 15 5.78571H15.9091C16.0417 5.78571 16.1506 5.74051 16.2358 5.65011C16.321 5.55971 16.3636 5.4442 16.3636 5.30357Z" fill="#000"/>
</svg>
