<svg width="19" height="19" viewBox="0 0 19 19" fill="none" xmlns="http://www.w3.org/2000/svg">
<path d="M9.49842 0C9.48021 0 9.45805 0 9.43589 0C8.12194 0 6.87211 0.276269 5.74179 0.774185L5.80037 0.751229C4.63048 1.26023 3.63077 1.94655 2.7862 2.78881C1.9448 3.63266 1.25854 4.63245 0.774121 5.7399L0.749583 5.80243C0.275454 6.87347 0 8.12182 0 9.43509V9.50317V9.5V9.56254C0 10.8766 0.276246 12.1265 0.774121 13.2569L0.751167 13.1984C1.26012 14.3683 1.94559 15.3673 2.78699 16.212C3.63156 17.0535 4.63048 17.7398 5.73863 18.2242L5.80116 18.2488C6.8729 18.7237 8.12273 19 9.43668 19H9.50238H9.49921H9.56174C10.8757 19 12.1255 18.7237 13.2558 18.2258L13.1973 18.2488C14.3679 17.7398 15.3676 17.0535 16.2122 16.212C17.0536 15.3681 17.7399 14.3683 18.2243 13.2609L18.2488 13.1984C18.7238 12.1265 19 10.8774 19 9.56254C19 9.54037 19 9.519 19 9.49683V9.5C19 9.48179 19 9.45963 19 9.43746C19 8.12341 18.7238 6.87347 18.2259 5.74306L18.2488 5.80164C17.7399 4.63245 17.0536 3.63345 16.2122 2.78881C15.3684 1.94734 14.3687 1.26102 13.2614 0.77656L13.1988 0.752021C12.1271 0.27706 10.8765 0 9.56174 0C9.53958 0 9.51821 0 9.49604 0H9.49921L9.49842 0ZM10.005 18.0406V16.3885L14.1154 14.3042C14.1653 14.2797 14.2057 14.2449 14.2373 14.2021L14.2381 14.2013C14.2674 14.1594 14.2848 14.1063 14.2848 14.0501C14.2848 14.047 14.2848 14.0446 14.2848 14.0414V13.1034C14.4629 13.0385 14.6109 12.9245 14.7146 12.7772L14.7162 12.7741C14.8215 12.6324 14.8856 12.4543 14.8856 12.2611C14.8856 12.2603 14.8856 12.2595 14.8856 12.2579V12.1677C14.865 11.9326 14.7574 11.726 14.5959 11.5772L14.5951 11.5764C14.4408 11.4307 14.2318 11.3413 14.0015 11.3413C13.9959 11.3413 13.9896 11.3413 13.984 11.3413C13.9793 11.3413 13.9745 11.3413 13.969 11.3413C13.7252 11.3413 13.5044 11.4418 13.3469 11.6041C13.1846 11.7624 13.0841 11.9825 13.0841 12.2271V12.2437V12.2429V12.2896C13.0857 12.3133 13.0928 12.3347 13.1031 12.3537V12.3529C13.1134 12.5287 13.1791 12.6878 13.2827 12.8144L13.282 12.8128C13.3872 12.9419 13.5226 13.0416 13.6785 13.101L13.6848 13.1034V13.8546L10.005 15.7323V14.195L11.6189 13.4438C11.6704 13.4176 11.7147 13.3828 11.7503 13.3408L11.7511 13.3401C11.786 13.2989 11.8073 13.2451 11.8073 13.1865C11.8073 13.1841 11.8073 13.1825 11.8073 13.1802V10.6272L14.8096 8.93796C14.8587 8.91342 14.8975 8.87463 14.922 8.82635L14.9228 8.82476C14.9458 8.78123 14.96 8.72977 14.96 8.67515V7.96192C15.1365 7.89938 15.2837 7.78935 15.3898 7.64765L15.3914 7.64528C15.4967 7.50517 15.5608 7.32785 15.5608 7.13549C15.5608 7.12995 15.5608 7.12441 15.5608 7.11886V7.11966C15.5608 7.11491 15.5608 7.10937 15.5608 7.10382C15.5608 6.86001 15.4603 6.63915 15.298 6.48163C15.1436 6.31935 14.926 6.21881 14.6846 6.21881C14.6822 6.21881 14.6806 6.21881 14.6782 6.21881H14.5642C14.3387 6.24177 14.1416 6.34864 14.0023 6.50854L14.0015 6.50933C13.8614 6.66528 13.7759 6.87268 13.7759 7.09987V7.11966V7.11886V7.1347C13.7759 7.32705 13.8392 7.50358 13.9468 7.64607L13.9453 7.6437C14.0537 7.78777 14.2001 7.8978 14.3711 7.95796L14.3774 7.96034V8.50496L11.3554 10.1942C11.315 10.2227 11.2802 10.2568 11.2533 10.2963L11.2525 10.2979C11.2255 10.3391 11.2089 10.3898 11.2089 10.4436V10.457V10.4563V12.9894L10.0058 13.5522V8.03316L12.5387 6.79352C12.5894 6.76739 12.6313 6.7294 12.6598 6.6819L12.6606 6.68032C12.6891 6.63836 12.7065 6.58612 12.7073 6.53071V5.57287C12.8838 5.51033 13.031 5.4003 13.1371 5.2586L13.1387 5.25623C13.244 5.11612 13.3081 4.9388 13.3081 4.74644C13.3081 4.7409 13.3081 4.73535 13.3081 4.72981V4.6839C13.3081 4.68311 13.3081 4.68311 13.3081 4.68232C13.3081 4.6649 13.301 4.64828 13.2891 4.6372C13.2645 4.41001 13.1577 4.21052 12.9994 4.06804L12.9986 4.06724C12.8474 3.92159 12.6416 3.83214 12.4144 3.83214C12.4121 3.83214 12.4089 3.83214 12.4065 3.83214H12.3131C12.0844 3.85747 11.8849 3.96829 11.744 4.13136L11.7432 4.13216C11.5976 4.2881 11.5081 4.49867 11.5081 4.72902V4.73298V4.82639C11.5335 5.00608 11.6031 5.16519 11.7068 5.29818L11.7052 5.29581C11.8057 5.42801 11.9435 5.52616 12.1026 5.57604L12.1081 5.57762V6.34705L10.0058 7.3793V4.18598C10.1839 4.12107 10.3319 4.00708 10.4356 3.85984L10.4372 3.85668C10.5425 3.71498 10.6066 3.53687 10.6066 3.34372C10.6066 3.34293 10.6066 3.34214 10.6066 3.34055C10.6066 3.3358 10.6066 3.33026 10.6066 3.32472C10.6066 3.08091 10.506 2.86005 10.3438 2.70252C10.1855 2.54025 9.96542 2.43971 9.72084 2.43971C9.7153 2.43971 9.70976 2.43971 9.70422 2.43971C9.69947 2.43971 9.69472 2.43971 9.68918 2.43971C9.44538 2.43971 9.22455 2.54025 9.06703 2.70252C8.90477 2.86084 8.80424 3.08091 8.80424 3.32551V3.34214V3.43476C8.82799 3.61128 8.89843 3.76802 9.00212 3.89626L9.00054 3.89468C9.10582 4.02371 9.24117 4.12345 9.3971 4.18282L9.40343 4.18519V9.38522L7.9201 8.59678V6.23148C7.9201 6.2299 7.9201 6.22752 7.9201 6.22594C7.9201 6.17923 7.90585 6.1357 7.8821 6.09928L7.88289 6.10007C7.85994 6.06524 7.83461 6.03437 7.8077 6.00587L6.77395 5.21586C6.7977 5.16994 6.8167 5.11691 6.82936 5.0607L6.83015 5.05595C6.84203 5.00292 6.84915 4.94275 6.84915 4.88022C6.84915 4.87943 6.84915 4.87863 6.84915 4.87705C6.84915 4.8723 6.84915 4.86676 6.84915 4.86122C6.84915 4.61741 6.74863 4.39655 6.58636 4.23902C6.42805 4.07754 6.20801 3.977 5.96421 3.977C5.96026 3.977 5.9563 3.977 5.95234 3.977C5.94759 3.977 5.94284 3.977 5.9373 3.977C5.69351 3.977 5.47267 4.07753 5.31516 4.23981C5.15289 4.39813 5.05237 4.6182 5.05237 4.8628V4.87943V4.89763C5.05237 5.13907 5.15131 5.35755 5.31041 5.51508C5.46871 5.67736 5.68876 5.77789 5.93334 5.77789H5.94997H5.94918H5.96105C6.04099 5.77789 6.11777 5.76444 6.18901 5.7391L6.18426 5.74069C6.27133 5.70823 6.34257 5.67657 6.41143 5.64174L6.39956 5.64728L7.31932 6.37951V8.78202C7.31932 8.83505 7.33674 8.88413 7.36681 8.92292L7.36602 8.92213C7.39768 8.96567 7.43884 9.0005 7.48634 9.02425L7.48792 9.02504L9.40264 10.0383V11.9532L6.19297 10.4697L6.24917 9.30606V9.28706C6.24917 9.23402 6.23175 9.18494 6.20167 9.14615L6.20247 9.14695C6.1708 9.10341 6.12965 9.06858 6.08215 9.04483L6.08057 9.04404L4.61544 8.27619C4.62731 8.23898 4.63444 8.19623 4.63444 8.1519C4.63444 8.14953 4.63444 8.14715 4.63444 8.14399V7.99358C4.6099 7.76639 4.50304 7.56691 4.34473 7.42442L4.34394 7.42363C4.1888 7.27718 3.97905 7.18694 3.74871 7.18694C3.74396 7.18694 3.73921 7.18694 3.73446 7.18694C3.73288 7.18694 3.73129 7.18694 3.72971 7.18694C3.48829 7.18694 3.27062 7.28748 3.11627 7.44975C2.95163 7.60807 2.84873 7.83051 2.84873 8.0767V8.08858V8.08778V8.18119C2.87169 8.4068 2.97855 8.60391 3.13844 8.74323L3.13923 8.74402C3.29199 8.88413 3.49621 8.96963 3.72101 8.96963H3.7313H3.8247C3.91968 8.95696 4.00517 8.9348 4.0859 8.90392L4.07799 8.9063C4.16031 8.87463 4.23234 8.83347 4.29566 8.78281L4.29408 8.78439L5.64523 9.481L5.60802 10.6447V10.651C5.60802 10.7104 5.62148 10.7658 5.64602 10.8156L5.64523 10.8133C5.67372 10.8655 5.71963 10.9059 5.77504 10.9257L5.77662 10.9265L9.39948 12.6157V18.0532C9.23695 18.0532 9.07732 18.0469 8.9206 18.0342L8.44172 17.997L8.49792 14.5425C8.49713 14.4863 8.47971 14.4348 8.45043 14.3913L8.45122 14.3921C8.41797 14.3406 8.36969 14.3018 8.3127 14.2797L8.31112 14.2789L6.03941 13.2276V13.1342C6.03941 13.1327 6.03941 13.1303 6.03941 13.1287C6.03941 12.8873 5.93889 12.6696 5.77662 12.5152C5.61831 12.3529 5.39827 12.2524 5.15368 12.2524C5.14814 12.2524 5.1426 12.2524 5.13706 12.2524H5.13785H5.04762C4.82203 12.2754 4.62494 12.3822 4.48563 12.5421L4.48484 12.5429C4.34473 12.6989 4.25925 12.9063 4.25925 13.1334V13.1532V13.158C4.25925 13.3994 4.35977 13.6171 4.52204 13.7715C4.67639 13.9338 4.89406 14.0343 5.13548 14.0343H5.14181H5.16635C5.28983 14.0343 5.40777 14.0082 5.51383 13.9599L5.50829 13.9623C5.61911 13.9092 5.71488 13.8459 5.80037 13.7707L5.79878 13.7723L7.9011 14.7301V17.9028C6.86102 17.7041 5.93572 17.3424 5.10382 16.8397L5.14181 16.8611C4.28537 16.3489 3.55637 15.7251 2.94688 14.9977L2.9358 14.9842C2.33582 14.2639 1.84111 13.4287 1.49204 12.5207L1.47146 12.4606C1.13269 11.5914 0.936386 10.5845 0.936386 9.53245C0.936386 9.519 0.936386 9.50554 0.936386 9.49288V9.49525C0.936386 9.48021 0.936386 9.46279 0.936386 9.44459C0.936386 8.26194 1.18493 7.13707 1.63294 6.11907L1.61236 6.17211C2.07145 5.11453 2.69122 4.21211 3.45188 3.449C4.21492 2.68986 5.11727 2.07083 6.11856 1.63466L6.17476 1.61249C7.14044 1.18423 8.26679 0.93488 9.45092 0.93488H9.49921H9.49683H9.54749C10.73 0.93488 11.8548 1.18344 12.8727 1.63149L12.8197 1.61091C13.8764 2.06924 14.7795 2.68828 15.5426 3.44742C16.3032 4.20973 16.923 5.11295 17.3599 6.11432L17.3821 6.17053C17.8095 7.1347 18.0581 8.25956 18.0581 9.443V9.49604V9.49367V9.54433C18.0581 10.6874 17.8269 11.7766 17.409 12.7677L17.4296 12.7131C16.9998 13.7438 16.4204 14.6264 15.708 15.3832L15.712 15.3784C14.9948 16.136 14.1463 16.7598 13.2012 17.2149L13.1498 17.2371C12.2316 17.6867 11.1583 17.9749 10.0248 18.0358L10.0042 18.0366L10.005 18.0406Z" fill="#141C5C"/>
</svg>
