<svg width="23" height="22" viewBox="0 0 23 22" fill="none" xmlns="http://www.w3.org/2000/svg">
<path d="M20.74 5.72039H0.940008C0.823313 5.72039 0.711397 5.67403 0.628881 5.59151C0.546365 5.509 0.500008 5.39708 0.500008 5.28039V4.40039C0.499318 4.28558 0.543531 4.17505 0.623208 4.09239L1.90801 2.77239C1.94928 2.73028 1.99859 2.6969 2.05301 2.67423C2.10743 2.65155 2.16585 2.64004 2.22481 2.64039H18.1748C18.2452 2.64011 18.3146 2.6567 18.3772 2.68879L20.9424 4.00879C21.0141 4.04595 21.0743 4.10216 21.1162 4.17123C21.1581 4.24031 21.1802 4.31959 21.18 4.40039V5.28039C21.18 5.39708 21.1336 5.509 21.0511 5.59151C20.9686 5.67403 20.8567 5.72039 20.74 5.72039ZM1.38001 4.84039H20.3V4.66879L18.0692 3.52039H2.40961L1.38001 4.58079V4.84039Z" fill="#141C5C"/>
<path d="M6.62488 3.52H4.02008C3.90338 3.52 3.79147 3.47365 3.70895 3.39113C3.62644 3.30862 3.58008 3.1967 3.58008 3.08V0.440005C3.58008 0.32331 3.62644 0.211394 3.70895 0.128878C3.79147 0.0463622 3.90338 5.12858e-06 4.02008 5.12858e-06H4.90008C4.97329 -0.000348337 5.04544 0.0175743 5.10998 0.0521488C5.17452 0.0867233 5.22941 0.136856 5.26968 0.198005L6.99448 2.838C7.0331 2.90489 7.05343 2.98077 7.05343 3.058C7.05343 3.13524 7.0331 3.21112 6.99448 3.278C6.95968 3.34735 6.90716 3.40625 6.84225 3.44875C6.77734 3.49125 6.70235 3.51583 6.62488 3.52ZM4.46008 2.64H5.81088L4.66248 0.880005H4.46008V2.64ZM6.66008 19.8H4.02008C3.90338 19.8 3.79147 19.7536 3.70895 19.6711C3.62644 19.5886 3.58008 19.4767 3.58008 19.36V5.28C3.58008 5.16331 3.62644 5.05139 3.70895 4.96888C3.79147 4.88636 3.90338 4.84 4.02008 4.84H6.66008C6.77677 4.84 6.88869 4.88636 6.9712 4.96888C7.05372 5.05139 7.10008 5.16331 7.10008 5.28V19.36C7.10008 19.4767 7.05372 19.5886 6.9712 19.6711C6.88869 19.7536 6.77677 19.8 6.66008 19.8ZM4.46008 18.92H6.22008V5.72H4.46008V18.92ZM22.0601 22H11.5001C11.3834 22 11.2715 21.9536 11.1889 21.8711C11.1064 21.7886 11.0601 21.6767 11.0601 21.56V15.84C11.0601 15.7233 11.1064 15.6114 11.1889 15.5289C11.2715 15.4464 11.3834 15.4 11.5001 15.4H16.3401V13.2C16.3401 13.0833 16.3864 12.9714 16.4689 12.8889C16.5515 12.8064 16.6634 12.76 16.7801 12.76H22.0601C22.1768 12.76 22.2887 12.8064 22.3712 12.8889C22.4537 12.9714 22.5001 13.0833 22.5001 13.2V21.56C22.5001 21.6767 22.4537 21.7886 22.3712 21.8711C22.2887 21.9536 22.1768 22 22.0601 22ZM11.9401 21.12H21.6201V13.64H17.2201V15.84C17.2201 15.9567 17.1737 16.0686 17.0912 16.1511C17.0087 16.2336 16.8968 16.28 16.7801 16.28H11.9401V21.12Z" fill="#141C5C"/>
<path d="M12.3809 16.2796C12.2642 16.2796 12.1523 16.2333 12.0698 16.1507C11.9873 16.0682 11.9409 15.9563 11.9409 15.8396V11.8796C11.9409 11.7629 11.9873 11.651 12.0698 11.5685C12.1523 11.486 12.2642 11.4396 12.3809 11.4396C12.4976 11.4396 12.6095 11.486 12.692 11.5685C12.7746 11.651 12.8209 11.7629 12.8209 11.8796V15.8396C12.8209 15.9563 12.7746 16.0682 12.692 16.1507C12.6095 16.2333 12.4976 16.2796 12.3809 16.2796ZM16.7809 16.2796C16.6642 16.2796 16.5523 16.2333 16.4698 16.1507C16.3873 16.0682 16.3409 15.9563 16.3409 15.8396V9.67962C16.3409 9.56292 16.3873 9.45101 16.4698 9.36849C16.5523 9.28598 16.6642 9.23962 16.7809 9.23962C16.8976 9.23962 17.0095 9.28598 17.092 9.36849C17.1746 9.45101 17.2209 9.56292 17.2209 9.67962V15.8396C17.2209 15.9563 17.1746 16.0682 17.092 16.1507C17.0095 16.2333 16.8976 16.2796 16.7809 16.2796ZM21.1809 13.6396C21.0642 13.6396 20.9523 13.5933 20.8698 13.5107C20.7873 13.4282 20.7409 13.3163 20.7409 13.1996V8.79962C20.7409 8.68292 20.7873 8.57101 20.8698 8.48849C20.9523 8.40598 21.0642 8.35962 21.1809 8.35962C21.2976 8.35962 21.4095 8.40598 21.492 8.48849C21.5746 8.57101 21.6209 8.68292 21.6209 8.79962V13.1996C21.6209 13.3163 21.5746 13.4282 21.492 13.5107C21.4095 13.5933 21.2976 13.6396 21.1809 13.6396Z" fill="#141C5C"/>
<path d="M16.7809 14.52H12.3809C12.2642 14.52 12.1523 14.4736 12.0698 14.3911C11.9873 14.3086 11.9409 14.1967 11.9409 14.08C11.9409 13.9633 11.9873 13.8514 12.0698 13.7689C12.1523 13.6864 12.2642 13.64 12.3809 13.64H16.7809C16.8976 13.64 17.0095 13.6864 17.092 13.7689C17.1746 13.8514 17.2209 13.9633 17.2209 14.08C17.2209 14.1967 17.1746 14.3086 17.092 14.3911C17.0095 14.4736 16.8976 14.52 16.7809 14.52ZM21.1809 11.88H16.7809C16.6642 11.88 16.5523 11.8336 16.4698 11.7511C16.3873 11.6686 16.3409 11.5567 16.3409 11.44C16.3409 11.3233 16.3873 11.2114 16.4698 11.1289C16.5523 11.0464 16.6642 11 16.7809 11H21.1809C21.2976 11 21.4095 11.0464 21.492 11.1289C21.5746 11.2114 21.6209 11.3233 21.6209 11.44C21.6209 11.5567 21.5746 11.6686 21.492 11.7511C21.4095 11.8336 21.2976 11.88 21.1809 11.88Z" fill="#141C5C"/>
<path d="M14.5799 16.2796C14.4632 16.2796 14.3513 16.2333 14.2688 16.1507C14.1863 16.0682 14.1399 15.9563 14.1399 15.8396V12.7596C14.1399 12.6429 14.1863 12.531 14.2688 12.4485C14.3513 12.366 14.4632 12.3196 14.5799 12.3196C14.6966 12.3196 14.8085 12.366 14.891 12.4485C14.9736 12.531 15.0199 12.6429 15.0199 12.7596V15.8396C15.0199 15.9563 14.9736 16.0682 14.891 16.1507C14.8085 16.2333 14.6966 16.2796 14.5799 16.2796ZM18.9799 13.6396C18.8632 13.6396 18.7513 13.5933 18.6688 13.5107C18.5863 13.4282 18.5399 13.3163 18.5399 13.1996V10.1196C18.5399 10.0029 18.5863 9.89101 18.6688 9.80849C18.7513 9.72598 18.8632 9.67962 18.9799 9.67962C19.0966 9.67962 19.2085 9.72598 19.291 9.80849C19.3736 9.89101 19.4199 10.0029 19.4199 10.1196V13.1996C19.4199 13.3163 19.3736 13.4282 19.291 13.5107C19.2085 13.5933 19.0966 13.6396 18.9799 13.6396ZM15.0199 10.9996H8.85992C8.74323 10.9996 8.63131 10.9533 8.54879 10.8707C8.46628 10.7882 8.41992 10.6763 8.41992 10.5596V8.79962C8.41992 8.68292 8.46628 8.57101 8.54879 8.48849C8.63131 8.40598 8.74323 8.35962 8.85992 8.35962H15.0199C15.1366 8.35962 15.2485 8.40598 15.331 8.48849C15.4136 8.57101 15.4599 8.68292 15.4599 8.79962V10.5596C15.4599 10.6763 15.4136 10.7882 15.331 10.8707C15.2485 10.9533 15.1366 10.9996 15.0199 10.9996ZM9.29992 10.1196H14.5799V9.23962H9.29992V10.1196Z" fill="#141C5C"/>
<path d="M11.9407 9.2396C11.824 9.2396 11.7121 9.19324 11.6296 9.11073C11.5471 9.02821 11.5007 8.91629 11.5007 8.7996V5.2796C11.5007 5.1629 11.5471 5.05099 11.6296 4.96847C11.7121 4.88596 11.824 4.8396 11.9407 4.8396C12.0574 4.8396 12.1694 4.88596 12.2519 4.96847C12.3344 5.05099 12.3807 5.1629 12.3807 5.2796V8.7996C12.3807 8.91629 12.3344 9.02821 12.2519 9.11073C12.1694 9.19324 12.0574 9.2396 11.9407 9.2396ZM7.98074 21.9996H2.70074C2.58405 21.9996 2.47213 21.9532 2.38962 21.8707C2.3071 21.7882 2.26074 21.6763 2.26074 21.5596V19.3596C2.26074 19.2429 2.3071 19.131 2.38962 19.0485C2.47213 18.966 2.58405 18.9196 2.70074 18.9196H7.98074C8.09744 18.9196 8.20935 18.966 8.29187 19.0485C8.37438 19.131 8.42074 19.2429 8.42074 19.3596V21.5596C8.42074 21.6763 8.37438 21.7882 8.29187 21.8707C8.20935 21.9532 8.09744 21.9996 7.98074 21.9996ZM3.14074 21.1196H7.54074V19.7996H3.14074V21.1196Z" fill="#141C5C"/>
<path d="M4.01921 19.3602C3.9613 19.3605 3.9039 19.3494 3.85029 19.3275C3.79668 19.3056 3.74792 19.2734 3.70681 19.2326C3.66557 19.1917 3.63284 19.143 3.6105 19.0894C3.58816 19.0358 3.57666 18.9783 3.57666 18.9202C3.57666 18.8621 3.58816 18.8046 3.6105 18.751C3.63284 18.6973 3.66557 18.6487 3.70681 18.6078L6.34681 15.9678C6.42966 15.8849 6.54204 15.8384 6.65921 15.8384C6.77638 15.8384 6.88876 15.8849 6.97161 15.9678C7.05446 16.0506 7.10101 16.163 7.10101 16.2802C7.10101 16.3974 7.05446 16.5097 6.97161 16.5926L4.33161 19.2326C4.2905 19.2734 4.24174 19.3056 4.18813 19.3275C4.13452 19.3494 4.07712 19.3605 4.01921 19.3602Z" fill="#141C5C"/>
<path d="M6.65992 16.72C6.60202 16.7204 6.54461 16.7093 6.49101 16.6874C6.4374 16.6655 6.38864 16.6332 6.34752 16.5924L3.70753 13.9524C3.62467 13.8696 3.57812 13.7572 3.57812 13.64C3.57813 13.5229 3.62467 13.4105 3.70753 13.3276C3.79038 13.2448 3.90275 13.1982 4.01993 13.1982C4.1371 13.1982 4.24947 13.2448 4.33233 13.3276L6.97232 15.9676C7.01356 16.0085 7.0463 16.0572 7.06864 16.1108C7.09098 16.1644 7.10248 16.222 7.10248 16.28C7.10248 16.3381 7.09098 16.3956 7.06864 16.4493C7.0463 16.5029 7.01356 16.5515 6.97232 16.5924C6.93121 16.6332 6.88245 16.6655 6.82884 16.6874C6.77524 16.7093 6.71783 16.7204 6.65992 16.72Z" fill="#141C5C"/>
<path d="M4.01921 14.0801C3.9613 14.0805 3.9039 14.0694 3.85029 14.0475C3.79668 14.0256 3.74792 13.9933 3.70681 13.9525C3.66557 13.9116 3.63284 13.8629 3.6105 13.8093C3.58816 13.7557 3.57666 13.6982 3.57666 13.6401C3.57666 13.582 3.58816 13.5245 3.6105 13.4709C3.63284 13.4173 3.66557 13.3686 3.70681 13.3277L6.34681 10.6877C6.42966 10.6049 6.54204 10.5583 6.65921 10.5583C6.77638 10.5583 6.88876 10.6049 6.97161 10.6877C7.05446 10.7706 7.10101 10.8829 7.10101 11.0001C7.10101 11.1173 7.05446 11.2297 6.97161 11.3125L4.33161 13.9525C4.2905 13.9933 4.24174 14.0256 4.18813 14.0475C4.13452 14.0694 4.07712 14.0805 4.01921 14.0801ZM4.01921 8.80012C3.9613 8.80045 3.9039 8.78936 3.85029 8.76746C3.79668 8.74556 3.74792 8.7133 3.70681 8.67252C3.66557 8.63162 3.63284 8.58295 3.6105 8.52933C3.58816 8.47572 3.57666 8.4182 3.57666 8.36012C3.57666 8.30203 3.58816 8.24452 3.6105 8.19091C3.63284 8.13729 3.66557 8.08862 3.70681 8.04772L6.34681 5.40772C6.42966 5.32487 6.54204 5.27832 6.65921 5.27832C6.77638 5.27832 6.88876 5.32487 6.97161 5.40772C7.05446 5.49057 7.10101 5.60295 7.10101 5.72012C7.10101 5.83729 7.05446 5.94967 6.97161 6.03252L4.33161 8.67252C4.2905 8.7133 4.24174 8.74556 4.18813 8.76746C4.13452 8.78936 4.07712 8.80045 4.01921 8.80012Z" fill="#141C5C"/>
<path d="M6.65992 11.4405C6.60202 11.4408 6.54461 11.4297 6.49101 11.4078C6.4374 11.3859 6.38864 11.3537 6.34752 11.3129L3.70753 8.6729C3.62467 8.59005 3.57812 8.47767 3.57812 8.3605C3.57813 8.24333 3.62467 8.13096 3.70753 8.0481C3.79038 7.96525 3.90275 7.9187 4.01993 7.9187C4.1371 7.9187 4.24947 7.96525 4.33233 8.0481L6.97232 10.6881C7.01356 10.729 7.0463 10.7777 7.06864 10.8313C7.09098 10.8849 7.10248 10.9424 7.10248 11.0005C7.10248 11.0586 7.09098 11.1161 7.06864 11.1697C7.0463 11.2233 7.01356 11.272 6.97232 11.3129C6.93121 11.3537 6.88245 11.3859 6.82884 11.4078C6.77524 11.4297 6.71783 11.4408 6.65992 11.4405Z" fill="#141C5C"/>
</svg>
