<svg width="36" height="23" viewBox="0 0 36 23" fill="none" xmlns="http://www.w3.org/2000/svg">
<path d="M3.15385 11.8328C3.15385 11.6955 3.21058 11.5638 3.31156 11.4667C3.41254 11.3697 3.5495 11.3151 3.69231 11.3151H10.3077C10.4505 11.3151 10.5875 11.3697 10.6884 11.4667C10.7894 11.5638 10.8462 11.6955 10.8462 11.8328V20.0418H12.2308V9.98392H3.69231C3.5495 9.98392 3.41254 9.92938 3.31156 9.8323C3.21058 9.73521 3.15385 9.60354 3.15385 9.46624V0H1.76923V20.0418H3.15385V11.8328ZM36 21.0772H0V23H36V21.0772Z" fill="#2E66C2"/>
<path d="M19 4H17V20H19V4Z" fill="#2E66C2"/>
<path d="M28 1H8V3H28V1Z" fill="#2E66C2"/>
<path d="M23 20H24.3235V11.8081C24.3235 11.6711 24.3778 11.5397 24.4743 11.4428C24.5708 11.3459 24.7017 11.2915 24.8382 11.2915H31.1618C31.2983 11.2915 31.4292 11.3459 31.5257 11.4428C31.6222 11.5397 31.6765 11.6711 31.6765 11.8081V20H33V0H31.6765V9.44649C31.6765 9.58351 31.6222 9.71491 31.5257 9.81179C31.4292 9.90867 31.2983 9.9631 31.1618 9.9631H23V20Z" fill="#2E66C2"/>
</svg>
