<svg width="42" height="42" viewBox="0 0 42 42" fill="none" xmlns="http://www.w3.org/2000/svg">
<path d="M25 16C25.55 16 26 15.55 26 15C26 14.45 25.55 14 25 14H22V13C22 12.45 21.55 12 21 12C20.45 12 20 12.45 20 13V14C17.79 14 16 15.79 16 18C16 20.21 17.79 22 20 22V26H17C16.45 26 16 26.45 16 27C16 27.55 16.45 28 17 28H20V29C20 29.55 20.45 30 21 30C21.55 30 22 29.55 22 29V28C24.21 28 26 26.21 26 24C26 21.79 24.21 20 22 20V16H25ZM20 20C18.9 20 18 19.1 18 18C18 16.9 18.9 16 20 16V20ZM24 24C24 25.1 23.1 26 22 26V22C23.1 22 24 22.9 24 24Z" fill="#141C5C"/>
<path d="M21 0C9.42 0 0 9.42 0 21C0 32.58 9.42 42 21 42C32.58 42 42 32.58 42 21C42 9.42 32.58 0 21 0ZM21 40C10.52 40 2 31.48 2 21C2 10.52 10.52 2 21 2C31.48 2 40 10.52 40 21C40 31.48 31.48 40 21 40Z" fill="#141C5C"/>
<path d="M21 4C11.63 4 4 11.63 4 21C4 30.37 11.63 38 21 38C30.37 38 38 30.37 38 21C38 11.63 30.37 4 21 4ZM21 36C12.73 36 6 29.27 6 21C6 12.73 12.73 6 21 6C29.27 6 36 12.73 36 21C36 29.27 29.27 36 21 36Z" fill="#141C5C"/>
</svg>
