<svg width="12" height="12" viewBox="0 0 12 12" fill="none" xmlns="http://www.w3.org/2000/svg">
<path d="M11.5777 11.14H0.422287C0.193548 11.14 0 11.3371 0 11.57C0 11.8029 0.193548 12 0.422287 12H11.5777C11.8065 12 12 11.8029 12 11.57C12 11.3371 11.8065 11.14 11.5777 11.14ZM0.0175954 7.37738L0 9.40202C0 9.50952 0.0351908 9.63494 0.123167 9.70661C0.211144 9.77827 0.316715 9.83203 0.422287 9.83203L2.41056 9.81411C2.51613 9.81411 2.6217 9.76036 2.70968 9.68869L9.53666 2.73684C9.69501 2.57559 9.69501 2.28891 9.53666 2.12766L7.56598 0.120941C7.40763 -0.0403136 7.1261 -0.0403136 6.96774 0.120941L5.59531 1.51848L0.140763 7.07279C0.0527861 7.16237 0.0175954 7.26988 0.0175954 7.37738ZM8.6393 2.43225L7.8651 3.2206L6.49267 1.82307L7.26686 1.03471L8.6393 2.43225ZM0.86217 7.55655L5.89443 2.43225L7.26686 3.82979L2.2346 8.95409H0.86217V7.55655Z" fill="black"/>
</svg>
