<svg width="35" height="29" viewBox="0 0 35 29" fill="none" xmlns="http://www.w3.org/2000/svg">
<path d="M31.5 0H3.5C1.575 0 0.0175 1.63125 0.0175 3.625L0 25.375C0 27.3688 1.575 29 3.5 29H31.5C33.425 29 35 27.3688 35 25.375V3.625C35 1.63125 33.425 0 31.5 0ZM30.8 7.70312L18.4275 15.7144C17.8675 16.0769 17.1325 16.0769 16.5725 15.7144L4.2 7.70312C3.7625 7.41313 3.5 6.92375 3.5 6.39813C3.5 5.18375 4.7775 4.45875 5.775 5.09312L17.5 12.6875L29.225 5.09312C30.2225 4.45875 31.5 5.18375 31.5 6.39813C31.5 6.92375 31.2375 7.41313 30.8 7.70312Z" fill="#212121"/>
</svg>
