<svg width="31" height="29" viewBox="0 0 31 29" fill="none" xmlns="http://www.w3.org/2000/svg">
<path d="M15.978 3.03194L15.512 3.51175L15.0461 3.03058C13.4368 1.39884 11.2687 0.489391 9.01342 0.500093C6.75816 0.510795 4.59821 1.44078 3.00348 3.08773C1.40875 4.73468 0.508256 6.96534 0.497893 9.29446C0.48753 11.6236 1.36814 13.8627 2.94815 15.5247L3.41406 16.0059L15.512 28.5L27.61 16.0059L28.0759 15.5247C29.6434 13.8601 30.5133 11.6252 30.4976 9.30328C30.4818 6.98141 29.5817 4.75927 27.9918 3.1175C26.4019 1.47574 24.2501 0.546337 22.0019 0.530325C19.7536 0.514313 17.5896 1.41298 15.978 3.03194Z" fill="#d4000f"/>
</svg>
