<svg width="15" height="16" viewBox="0 0 15 16" fill="none" xmlns="http://www.w3.org/2000/svg">
<path d="M2.67825 15.4667L2.67825 15.3909C3.1377 15.2745 3.54509 15.009 3.83606 14.6364C4.12703 14.2638 4.285 13.8053 4.285 13.3333C4.285 12.8614 4.12703 12.4029 3.83606 12.0302C3.54509 11.6576 3.1377 11.3921 2.67825 11.2757L2.67825 0.533335C2.67825 0.391886 2.6218 0.256229 2.52133 0.15621C2.42086 0.0561904 2.28459 8.53812e-07 2.1425 8.60023e-07C2.00041 8.66234e-07 1.86414 0.0561904 1.76367 0.15621C1.66319 0.256229 1.60675 0.391886 1.60675 0.533335L1.60675 11.2757C1.1473 11.3921 0.739907 11.6576 0.448935 12.0302C0.157963 12.4029 -1.37194e-07 12.8614 -1.16564e-07 13.3333C-9.59337e-08 13.8053 0.157963 14.2638 0.448935 14.6364C0.739907 15.009 1.1473 15.2745 1.60675 15.3909L1.60675 15.4667C1.60675 15.6081 1.66319 15.7438 1.76367 15.8438C1.86414 15.9438 2.00041 16 2.1425 16C2.28459 16 2.42086 15.9438 2.52133 15.8438C2.6218 15.7438 2.67825 15.6081 2.67825 15.4667ZM1.071 13.3333C1.071 13.1224 1.13384 12.9161 1.25158 12.7407C1.36932 12.5653 1.53666 12.4286 1.73245 12.3479C1.92824 12.2671 2.14369 12.246 2.35154 12.2872C2.55939 12.3283 2.75031 12.4299 2.90016 12.5791C3.05002 12.7283 3.15207 12.9183 3.19341 13.1252C3.23475 13.3322 3.21354 13.5466 3.13244 13.7415C3.05134 13.9364 2.914 14.103 2.73779 14.2202C2.56159 14.3374 2.35442 14.4 2.1425 14.4C1.85832 14.4 1.58578 14.2876 1.38483 14.0876C1.18389 13.8875 1.071 13.6162 1.071 13.3333ZM6.96425 0.533334L6.96425 0.609068C6.5048 0.725479 6.09741 0.990965 5.80644 1.36358C5.51546 1.7362 5.3575 2.19471 5.3575 2.66667C5.3575 3.13863 5.51546 3.59713 5.80644 3.96975C6.09741 4.34237 6.5048 4.60786 6.96425 4.72427L6.96425 15.4667C6.96425 15.6081 7.0207 15.7438 7.12117 15.8438C7.22164 15.9438 7.35791 16 7.5 16C7.64209 16 7.77836 15.9438 7.87883 15.8438C7.97931 15.7438 8.03575 15.6081 8.03575 15.4667L8.03575 4.72427C8.4952 4.60786 8.90259 4.34237 9.19356 3.96975C9.48454 3.59713 9.6425 3.13863 9.6425 2.66667C9.6425 2.19471 9.48454 1.7362 9.19356 1.36358C8.90259 0.990965 8.4952 0.725479 8.03575 0.609068L8.03575 0.533334C8.03575 0.391885 7.97931 0.256229 7.87883 0.15621C7.77836 0.0561902 7.64209 6.19628e-07 7.5 6.25839e-07C7.35791 6.3205e-07 7.22164 0.0561902 7.12117 0.15621C7.02069 0.256229 6.96425 0.391885 6.96425 0.533334ZM8.5715 2.66667C8.5715 2.87763 8.50866 3.08386 8.39092 3.25928C8.27318 3.43469 8.10584 3.57141 7.91005 3.65214C7.71425 3.73287 7.49881 3.754 7.29096 3.71284C7.08311 3.67168 6.89219 3.57009 6.74233 3.42091C6.59248 3.27174 6.49043 3.08168 6.44909 2.87476C6.40774 2.66785 6.42896 2.45338 6.51006 2.25847C6.59116 2.06356 6.7285 1.89697 6.90471 1.77977C7.08091 1.66256 7.28808 1.6 7.5 1.6C7.78418 1.6 8.05672 1.71238 8.25766 1.91242C8.45861 2.11246 8.5715 2.38377 8.5715 2.66667ZM12.3218 0.533334L12.3218 5.9424C11.8623 6.05881 11.4549 6.3243 11.1639 6.69692C10.873 7.06953 10.715 7.52804 10.715 8C10.715 8.47196 10.873 8.93047 11.1639 9.30308C11.4549 9.6757 11.8623 9.94119 12.3218 10.0576L12.3218 15.4667C12.3218 15.6081 12.3782 15.7438 12.4787 15.8438C12.5791 15.9438 12.7154 16 12.8575 16C12.9996 16 13.1359 15.9438 13.2363 15.8438C13.3368 15.7438 13.3933 15.6081 13.3933 15.4667L13.3933 10.0576C13.8527 9.94119 14.2601 9.6757 14.5511 9.30308C14.842 8.93047 15 8.47196 15 8C15 7.52804 14.842 7.06953 14.5511 6.69691C14.2601 6.3243 13.8527 6.05881 13.3933 5.9424L13.3933 0.533334C13.3933 0.391885 13.3368 0.256229 13.2363 0.156209C13.1359 0.0561899 12.9996 3.85444e-07 12.8575 3.91655e-07C12.7154 3.97866e-07 12.5791 0.0561899 12.4787 0.156209C12.3782 0.256229 12.3218 0.391885 12.3218 0.533334ZM13.929 8C13.929 8.21097 13.8662 8.4172 13.7484 8.59261C13.6307 8.76802 13.4633 8.90474 13.2675 8.98547C13.0718 9.0662 12.8563 9.08733 12.6485 9.04617C12.4406 9.00501 12.2497 8.90342 12.0998 8.75425C11.95 8.60507 11.8479 8.41501 11.8066 8.2081C11.7652 8.00118 11.7865 7.78671 11.8676 7.5918C11.9487 7.3969 12.086 7.23031 12.2622 7.1131C12.4384 6.99589 12.6456 6.93333 12.8575 6.93333C13.1417 6.93333 13.4142 7.04571 13.6152 7.24575C13.8161 7.44579 13.929 7.7171 13.929 8Z" fill="#ffffff"/>
</svg>
