<svg width="19" height="19" viewBox="0 0 19 19" fill="none" xmlns="http://www.w3.org/2000/svg">
<path d="M18.6064 4.13381L9.785 0.0627459C9.69567 0.0214103 9.59843 0 9.5 0C9.40157 0 9.30432 0.0214103 9.215 0.0627459L0.393573 4.13381C0.275787 4.18832 0.176104 4.27546 0.106346 4.3849C0.0365878 4.49434 -0.000319081 4.62148 2.07829e-06 4.75126V18.3215C2.07829e-06 18.5014 0.0714942 18.674 0.198751 18.8013C0.326008 18.9285 0.498605 19 0.678573 19H18.3214C18.5014 19 18.674 18.9285 18.8013 18.8013C18.9285 18.674 19 18.5014 19 18.3215V4.75126C19.0003 4.62148 18.9634 4.49434 18.8937 4.3849C18.8239 4.27546 18.7242 4.18832 18.6064 4.13381ZM14.9286 12.2149H4.07143V10.8579H14.9286V12.2149ZM4.07143 13.5719H14.9286V14.9289H4.07143V13.5719ZM14.9286 9.50084H4.07143V8.14382H14.9286V9.50084ZM4.07143 17.643V16.286H14.9286V17.643H4.07143ZM17.6429 17.643H16.2857V7.46531C16.2857 7.28535 16.2142 7.11277 16.087 6.98553C15.9597 6.85828 15.7871 6.78679 15.6071 6.78679H3.39286C3.21289 6.78679 3.04029 6.85828 2.91304 6.98553C2.78578 7.11277 2.71429 7.28535 2.71429 7.46531V17.643H1.35714V5.18551L9.5 1.42655L17.6429 5.18551V17.643Z" fill="#141C5C"/>
</svg>
