<svg width="19" height="19" viewBox="0 0 19 19" fill="none" xmlns="http://www.w3.org/2000/svg">
<path d="M17.5454 5.47269L16.4418 4.56439V1.56531C16.451 1.45498 16.4375 1.34392 16.402 1.23915C16.3665 1.13439 16.3099 1.03819 16.2357 0.956664C16.1615 0.875137 16.0713 0.810051 15.9709 0.765529C15.8704 0.721007 15.7619 0.698018 15.6522 0.698018C15.5425 0.698018 15.434 0.721007 15.3336 0.765529C15.2332 0.810051 15.143 0.875137 15.0687 0.956664C14.9945 1.03819 14.9379 1.13439 14.9024 1.23915C14.8669 1.34392 14.8534 1.45498 14.8627 1.56531V3.23908L12.0045 0.902651C11.2969 0.318895 10.4111 0 9.49717 0C8.58327 0 7.69747 0.318895 6.98987 0.902651L1.44891 5.47269C0.995859 5.8437 0.63065 6.31219 0.37997 6.84392C0.12929 7.37564 -0.000528175 7.95718 1.61505e-06 8.54604V15.0012C1.61505e-06 16.0618 0.417412 17.0789 1.16041 17.8288C1.9034 18.5787 2.91112 19 3.96187 19H15.0381C16.0889 19 17.0966 18.5787 17.8396 17.8288C18.5826 17.0789 19 16.0618 19 15.0012V8.52319C18.9965 7.93773 18.8642 7.36037 18.6126 6.83283C18.3611 6.30528 17.9966 5.84071 17.5454 5.47269ZM7.12571 17.3719V11.8422C7.15548 11.2268 7.41863 10.6467 7.86063 10.2218C8.30263 9.79692 8.88962 9.55995 9.5 9.55995C10.1104 9.55995 10.6974 9.79692 11.1394 10.2218C11.5814 10.6467 11.8445 11.2268 11.8743 11.8422V17.3719H7.12571ZM17.4209 14.9784C17.4194 15.6127 17.1691 16.2206 16.7247 16.6692C16.2803 17.1178 15.6779 17.3704 15.0494 17.3719H13.459V11.8422C13.459 10.7816 13.0416 9.76453 12.2986 9.01461C11.5556 8.26469 10.5479 7.8434 9.49717 7.8434C8.44642 7.8434 7.4387 8.26469 6.6957 9.01461C5.95271 9.76453 5.5353 10.7816 5.5353 11.8422V17.3719H3.95055C3.32108 17.3719 2.71731 17.1199 2.27167 16.6712C1.82604 16.2225 1.57493 15.6137 1.57343 14.9784V8.52319C1.57306 8.16783 1.65108 7.81684 1.80184 7.49571C1.95261 7.17458 2.17232 6.89136 2.44504 6.66661L7.986 2.09657C8.41031 1.74965 8.93979 1.56035 9.48585 1.56035C10.0319 1.56035 10.5614 1.74965 10.9857 2.09657L16.5267 6.66661C16.8035 6.88911 17.0275 7.17134 17.1823 7.49259C17.337 7.81385 17.4186 8.16599 17.4209 8.52319V14.9784Z" fill="#2E66C2"/>
</svg>
