<svg width="15" height="16" viewBox="0 0 15 16" fill="none" xmlns="http://www.w3.org/2000/svg">
<path d="M5.24505 15.0257V12.5722C5.24504 11.9505 5.74395 11.4453 6.36192 11.4414H8.63101C9.25174 11.4414 9.75495 11.9477 9.75495 12.5722V15.0186C9.75493 15.5578 10.1874 15.996 10.7234 16H12.2714C12.9945 16.0018 13.6885 15.7142 14.2004 15.2005C14.7123 14.6869 15 13.9894 15 13.262V6.29267C15 5.7051 14.7411 5.14776 14.2931 4.77079L9.03393 0.539414C8.11462 -0.200702 6.80161 -0.176793 5.90952 0.596306L0.763431 4.77079C0.294269 5.13665 0.0138571 5.69564 0 6.29267V13.2549C0 14.7709 1.22162 16 2.72856 16H4.24128C4.49935 16.0018 4.74749 15.9 4.93064 15.7171C5.11378 15.5342 5.21678 15.2853 5.21678 15.0257H5.24505Z" fill="#212121"/>
</svg>
