<svg width="36" height="38" viewBox="0 0 36 38" fill="none" xmlns="http://www.w3.org/2000/svg">
<path fill-rule="evenodd" clip-rule="evenodd" d="M35.7551 18.7519C35.6774 18.8304 35.5852 18.8926 35.4836 18.9351C35.3821 18.9776 35.2732 18.9995 35.1632 18.9995C35.0533 18.9995 34.9444 18.9776 34.8428 18.9351C34.7413 18.8926 34.649 18.8304 34.5714 18.7519L26.9095 11.0323C26.8553 10.9891 26.8064 10.9395 26.7638 10.8846L23.481 7.57756C23.4268 7.53431 23.3779 7.48473 23.3353 7.42987L17.9997 2.05343L1.42884 18.7519C1.35112 18.8302 1.25885 18.8924 1.1573 18.9347C1.05575 18.9771 0.946913 18.9989 0.836997 18.9989C0.727081 18.9989 0.618242 18.9771 0.516692 18.9347C0.415143 18.8924 0.322873 18.8302 0.245151 18.7519C0.167428 18.6736 0.105776 18.5806 0.0637126 18.4783C0.0216495 18.376 -2.58971e-09 18.2663 0 18.1555C2.58971e-09 18.0448 0.0216495 17.9351 0.0637126 17.8328C0.105776 17.7305 0.167428 17.6375 0.245151 17.5592L17.3063 0.367514C17.3328 0.326921 17.3517 0.280281 17.3868 0.243143C17.4674 0.162977 17.5632 0.100129 17.6685 0.0584102C17.7739 0.0166914 17.8865 -0.00302829 17.9997 0.000447648C18.1129 -0.00328155 18.2256 0.0163213 18.331 0.0580544C18.4364 0.0997874 18.5322 0.162771 18.6125 0.243143C18.6494 0.279418 18.6657 0.326057 18.6948 0.367514L23.1424 4.8509V2.58891C23.1424 2.35985 23.2328 2.14017 23.3935 1.97819C23.5542 1.81622 23.7723 1.72523 23.9996 1.72523H27.4281C27.6655 1.72523 27.8798 1.82196 28.0341 1.97829C28.1139 2.05827 28.1773 2.15342 28.2204 2.25824C28.2635 2.36306 28.2855 2.47545 28.2852 2.58891V10.033L35.7551 17.5592C36.0816 17.8882 36.0816 18.4228 35.7551 18.7519ZM26.571 3.4526H24.8567V6.57827L26.571 8.30564V3.4526ZM5.9999 17.2716C6.22723 17.2716 6.44524 17.3626 6.60598 17.5245C6.76673 17.6865 6.85703 17.9062 6.85703 18.1352V34.5453C6.85703 35.0034 7.03764 35.4427 7.35912 35.7667C7.68061 36.0906 8.11664 36.2726 8.57128 36.2726H13.714V25.0447C13.714 24.8157 13.8044 24.596 13.9651 24.434C14.1258 24.272 14.3439 24.181 14.5712 24.181H21.4282C21.6555 24.181 21.8735 24.272 22.0343 24.434C22.195 24.596 22.2853 24.8157 22.2853 25.0447V36.2726H27.4281C27.8827 36.2726 28.3188 36.0906 28.6402 35.7667C28.9617 35.4427 29.1423 35.0034 29.1423 34.5453V18.1352C29.1423 17.9062 29.2326 17.6865 29.3934 17.5245C29.5541 17.3626 29.7721 17.2716 29.9995 17.2716C30.2268 17.2716 30.4448 17.3626 30.6055 17.5245C30.7663 17.6865 30.8566 17.9062 30.8566 18.1352V34.5453C30.8566 35.4615 30.4954 36.3402 29.8524 36.9881C29.2094 37.636 28.3374 38 27.4281 38H8.57128C7.66199 38 6.78993 37.636 6.14696 36.9881C5.50399 36.3402 5.14278 35.4615 5.14278 34.5453V18.1352C5.14278 17.9062 5.23308 17.6865 5.39382 17.5245C5.55457 17.3626 5.77258 17.2716 5.9999 17.2716ZM20.5711 36.2718V25.9075H15.4283V36.2718H20.5711Z" fill="#141C5C"/>
</svg>
