<svg width="21" height="21" viewBox="0 0 21 21" fill="none" xmlns="http://www.w3.org/2000/svg">
<path d="M18.0151 14.9529H2.98441C2.87731 14.9529 2.77459 14.9103 2.69885 14.8346C2.62311 14.7589 2.58057 14.6561 2.58057 14.549V5.6331C2.58057 5.52599 2.62311 5.42327 2.69885 5.34753C2.77459 5.2718 2.87731 5.22925 2.98441 5.22925C3.09152 5.22925 3.19424 5.2718 3.26998 5.34753C3.34571 5.42327 3.38826 5.52599 3.38826 5.6331V14.1452H17.6113V5.6331C17.6113 5.52599 17.6538 5.42327 17.7295 5.34753C17.8053 5.2718 17.908 5.22925 18.0151 5.22925C18.1222 5.22925 18.2249 5.2718 18.3007 5.34753C18.3764 5.42327 18.419 5.52599 18.419 5.6331V14.549C18.419 14.6561 18.3764 14.7589 18.3007 14.8346C18.2249 14.9103 18.1222 14.9529 18.0151 14.9529Z" fill="#212121"/>
<path d="M2.98441 21C2.87731 21 2.77459 20.9574 2.69885 20.8817C2.62311 20.8059 2.58057 20.7032 2.58057 20.5961V14.5366C2.58057 14.4295 2.62311 14.3268 2.69885 14.2511C2.77459 14.1753 2.87731 14.1328 2.98441 14.1328C3.09152 14.1328 3.19424 14.1753 3.26998 14.2511C3.34571 14.3268 3.38826 14.4295 3.38826 14.5366V20.5961C3.38826 20.7032 3.34571 20.8059 3.26998 20.8817C3.19424 20.9574 3.09152 21 2.98441 21ZM12.051 14.9529H8.94848C8.84138 14.9529 8.73866 14.9103 8.66292 14.8346C8.58718 14.7588 8.54464 14.6561 8.54464 14.549V9.75508C8.54464 9.64797 8.58718 9.54526 8.66292 9.46952C8.73866 9.39378 8.84138 9.35123 8.94848 9.35123H12.051C12.1581 9.35123 12.2609 9.39378 12.3366 9.46952C12.4123 9.54526 12.4549 9.64797 12.4549 9.75508V14.549C12.4549 14.6561 12.4123 14.7588 12.3366 14.8346C12.2609 14.9103 12.1581 14.9529 12.051 14.9529ZM9.35233 14.1452H11.6472V10.1589H9.35233V14.1452ZM10.4998 7.7106C10.2176 7.7106 9.94173 7.62692 9.70711 7.47013C9.47249 7.31334 9.28964 7.09049 9.18169 6.82977C9.07374 6.56905 9.04553 6.28217 9.10064 6.00542C9.15574 5.72867 9.29169 5.47448 9.49128 5.27499C9.69087 5.07551 9.94513 4.9397 10.2219 4.88474C10.4987 4.82978 10.7856 4.85814 11.0462 4.96623C11.3069 5.07432 11.5296 5.25729 11.6863 5.49199C11.843 5.72669 11.9265 6.00259 11.9264 6.28477C11.9258 6.66287 11.7752 7.0253 11.5078 7.29259C11.2404 7.55988 10.8779 7.7102 10.4998 7.7106ZM10.4998 5.66613C10.3773 5.66613 10.2577 5.70243 10.1559 5.77045C10.0541 5.83846 9.97479 5.93514 9.92795 6.04824C9.88112 6.16134 9.86888 6.2858 9.89278 6.40586C9.91668 6.52592 9.97565 6.63619 10.0622 6.72274C10.1488 6.80928 10.2591 6.86821 10.3792 6.89206C10.4992 6.91591 10.6237 6.90362 10.7368 6.85674C10.8499 6.80985 10.9465 6.73049 11.0145 6.62868C11.0825 6.52687 11.1187 6.40719 11.1187 6.28477C11.1187 6.12056 11.0535 5.96306 10.9374 5.84688C10.8214 5.73069 10.664 5.66532 10.4998 5.66512V5.66613ZM6.90981 12.3609H5.02839C4.92128 12.3609 4.81856 12.3184 4.74282 12.2426C4.66709 12.1669 4.62454 12.0642 4.62454 11.9571V9.07359C4.62454 8.96648 4.66709 8.86376 4.74282 8.78803C4.81856 8.71229 4.92128 8.66974 5.02839 8.66974H6.90981C7.01692 8.66974 7.11964 8.71229 7.19537 8.78803C7.27111 8.86376 7.31366 8.96648 7.31366 9.07359V11.9571C7.31366 12.0642 7.27111 12.1669 7.19537 12.2426C7.11964 12.3184 7.01692 12.3609 6.90981 12.3609ZM5.43223 11.5532H6.50596V9.47744H5.43223V11.5532ZM15.9711 12.3609H14.0897C13.9826 12.3609 13.8799 12.3184 13.8042 12.2426C13.7284 12.1669 13.6859 12.0642 13.6859 11.9571V9.07359C13.6859 8.96648 13.7284 8.86376 13.8042 8.78803C13.8799 8.71229 13.9826 8.66974 14.0897 8.66974H15.9711C16.0782 8.66974 16.181 8.71229 16.2567 8.78803C16.3324 8.86376 16.375 8.96648 16.375 9.07359V11.9571C16.375 12.0642 16.3324 12.1669 16.2567 12.2426C16.181 12.3184 16.0782 12.3609 15.9711 12.3609ZM14.4936 11.5532H15.5673V9.47744H14.4936V11.5532Z" fill="#212121"/>
<path d="M20.5962 7.04028C20.5462 7.04023 20.4965 7.03099 20.4498 7.01302L10.5 3.14467L0.550242 7.01302C0.489022 7.03683 0.422918 7.04535 0.357661 7.03784C0.292404 7.03032 0.229965 7.00701 0.175757 6.96991C0.12155 6.93281 0.07721 6.88304 0.046583 6.82493C0.015956 6.76682 -3.38595e-05 6.70212 5.38333e-08 6.63643V4.3287C8.90395e-06 4.24733 0.0245935 4.16787 0.0705329 4.10072C0.116472 4.03356 0.181624 3.98185 0.257453 3.95236L10.3536 0.0274682C10.4478 -0.00915606 10.5523 -0.00915606 10.6464 0.0274682L20.7426 3.95236C20.8184 3.98185 20.8836 4.03356 20.9295 4.10072C20.9755 4.16787 21.0001 4.24733 21.0001 4.3287V6.63643C21.0001 6.74354 20.9575 6.84626 20.8818 6.92199C20.806 6.99773 20.7033 7.04028 20.5962 7.04028ZM10.5 2.30769C10.5501 2.30769 10.5997 2.31693 10.6464 2.33495L20.1924 6.0453V4.60407L10.5 0.837182L0.807695 4.60508V6.04631L10.3536 2.33596C10.4003 2.3176 10.4499 2.30801 10.5 2.30769ZM4.68816 18.2632C4.58106 18.2632 4.47834 18.2206 4.4026 18.1449C4.32686 18.0692 4.28432 17.9665 4.28432 17.8594V16.8901H2.98468C2.87758 16.8901 2.77486 16.8476 2.69912 16.7718C2.62339 16.6961 2.58084 16.5934 2.58084 16.4863C2.58084 16.3792 2.62339 16.2764 2.69912 16.2007C2.77486 16.125 2.87758 16.0824 2.98468 16.0824H4.68816C4.79527 16.0824 4.89799 16.125 4.97373 16.2007C5.04946 16.2764 5.09201 16.3792 5.09201 16.4863V17.8594C5.09201 17.9665 5.04946 18.0692 4.97373 18.1449C4.89799 18.2206 4.79527 18.2632 4.68816 18.2632Z" fill="#212121"/>
<path d="M6.06111 19.637C5.954 19.637 5.85128 19.5944 5.77555 19.5187C5.69981 19.443 5.65726 19.3402 5.65726 19.2331V18.2631H4.68803C4.58092 18.2631 4.4782 18.2206 4.40246 18.1449C4.32673 18.0691 4.28418 17.9664 4.28418 17.8593C4.28418 17.7522 4.32673 17.6495 4.40246 17.5737C4.4782 17.498 4.58092 17.4554 4.68803 17.4554H6.06111C6.16822 17.4554 6.27094 17.498 6.34667 17.5737C6.42241 17.6495 6.46496 17.7522 6.46496 17.8593V19.2331C6.46496 19.3402 6.42241 19.443 6.34667 19.5187C6.27094 19.5944 6.16822 19.637 6.06111 19.637Z" fill="#212121"/>
<path d="M7.43416 21C7.32705 21 7.22433 20.9575 7.14859 20.8817C7.07286 20.806 7.03031 20.7033 7.03031 20.5962V19.637H6.06107C5.95397 19.637 5.85125 19.5945 5.77551 19.5188C5.69977 19.443 5.65723 19.3403 5.65723 19.2332C5.65723 19.1261 5.69977 19.0234 5.77551 18.9476C5.85125 18.8719 5.95397 18.8293 6.06107 18.8293H7.43416C7.54126 18.8293 7.64398 18.8719 7.71972 18.9476C7.79545 19.0234 7.838 19.1261 7.838 19.2332V20.5962C7.838 20.7033 7.79545 20.806 7.71972 20.8817C7.64398 20.9575 7.54126 21 7.43416 21Z" fill="#212121"/>
<path d="M18.0151 21.0001H2.98441C2.87731 21.0001 2.77459 20.9575 2.69885 20.8818C2.62311 20.806 2.58057 20.7033 2.58057 20.5962C2.58057 20.4891 2.62311 20.3864 2.69885 20.3106C2.77459 20.2349 2.87731 20.1924 2.98441 20.1924H17.6113V14.5385C17.6113 14.4314 17.6538 14.3287 17.7295 14.2529C17.8053 14.1772 17.908 14.1346 18.0151 14.1346C18.1222 14.1346 18.2249 14.1772 18.3007 14.2529C18.3764 14.3287 18.419 14.4314 18.419 14.5385V20.5962C18.419 20.7033 18.3764 20.806 18.3007 20.8818C18.2249 20.9575 18.1222 21.0001 18.0151 21.0001Z" fill="#212121"/>
</svg>
