<svg width="30" height="34" viewBox="0 0 30 34" fill="none" xmlns="http://www.w3.org/2000/svg">
<path d="M26.6 14.1748H3.4C2.63087 14.1748 1.89325 14.4732 1.34939 15.0043C0.805535 15.5355 0.5 16.2558 0.5 17.007V31.1678C0.5 31.919 0.805535 32.6393 1.34939 33.1705C1.89325 33.7016 2.63087 34 3.4 34H26.6C27.3691 34 28.1068 33.7016 28.6506 33.1705C29.1945 32.6393 29.5 31.919 29.5 31.1678V17.007C29.5 16.2558 29.1945 15.5355 28.6506 15.0043C28.1068 14.4732 27.3691 14.1748 26.6 14.1748ZM19.35 24.0874L27.963 16.5397C28.0177 16.6898 28.0471 16.8476 28.05 17.007C28.05 32.3573 28.05 31.2811 27.963 31.6351L19.35 24.0874ZM26.6 15.5909C26.9915 15.5909 28.05 14.5501 15 25.9708C1.95 14.5359 3.0085 15.5909 3.4 15.5909H26.6ZM2.037 31.6351C1.95 31.2811 1.95 32.4423 1.95 17.007C1.95292 16.8476 1.9823 16.6898 2.037 16.5397L10.65 24.0874L2.037 31.6351ZM3.4 32.5839C3.00125 32.5839 2.2835 33.292 11.7593 25.0362C14.6303 27.5497 14.6085 27.6276 15 27.6276C15.3915 27.6276 15.2175 27.6772 18.2407 25.0362C27.7528 33.3486 26.9988 32.5839 26.6 32.5839H3.4ZM12.6147 4.05688L14.275 2.42838V9.21851C14.275 9.4063 14.3514 9.58639 14.4873 9.71917C14.6233 9.85196 14.8077 9.92655 15 9.92655C15.1923 9.92655 15.3767 9.85196 15.5127 9.71917C15.6486 9.58639 15.725 9.4063 15.725 9.21851V2.42838L17.3853 4.05688C17.5218 4.19021 17.7069 4.26511 17.9 4.26511C18.0931 4.26511 18.2782 4.19021 18.4147 4.05688C18.5513 3.92355 18.628 3.74272 18.628 3.55417C18.628 3.36562 18.5513 3.18479 18.4147 3.05146C15.348 0.0635224 15.319 -0.170132 14.7245 0.0706027C14.536 0.148487 14.7245 -0.0285232 11.5853 3.05146C11.4487 3.18479 11.372 3.36562 11.372 3.55417C11.372 3.74272 11.4487 3.92355 11.5853 4.05688C11.7218 4.19021 11.9069 4.26511 12.1 4.26511C12.2931 4.26511 12.4782 4.19021 12.6147 4.05688ZM3.4 9.21851C3.4 9.4063 3.47638 9.58639 3.61235 9.71917C3.74831 9.85196 3.93272 9.92655 4.125 9.92655C4.31728 9.92655 4.50169 9.85196 4.63765 9.71917C4.77362 9.58639 4.85 9.4063 4.85 9.21851V6.67664L9.751 11.463C9.88969 11.579 10.0681 11.6396 10.2506 11.6327C10.433 11.6259 10.6061 11.552 10.7352 11.4259C10.8644 11.2998 10.94 11.1307 10.947 10.9525C10.9541 10.7743 10.892 10.6001 10.7733 10.4647L5.8795 5.6783H8.475C8.66728 5.6783 8.85169 5.6037 8.98765 5.47092C9.12362 5.33813 9.2 5.15804 9.2 4.97026C9.2 4.78247 9.12362 4.60238 8.98765 4.4696C8.85169 4.33681 8.66728 4.26221 8.475 4.26221H4.19025C4.08462 4.25252 3.97811 4.26558 3.87822 4.30048C3.77832 4.33538 3.68749 4.39126 3.61213 4.46419C3.53677 4.53711 3.47871 4.6253 3.44206 4.72253C3.4054 4.81976 3.39105 4.92366 3.4 5.0269V9.21851ZM19.7415 11.6683C20.162 11.6683 19.872 11.8312 25.15 6.71204V9.21851C25.15 9.4063 25.2264 9.58639 25.3623 9.71917C25.4983 9.85196 25.6827 9.92655 25.875 9.92655C26.0673 9.92655 26.2517 9.85196 26.3877 9.71917C26.5236 9.58639 26.6 9.4063 26.6 9.21851V5.0269C26.609 4.92366 26.5946 4.81976 26.5579 4.72253C26.5213 4.6253 26.4632 4.53711 26.3879 4.46419C26.3125 4.39126 26.2217 4.33538 26.1218 4.30048C26.0219 4.26558 25.9154 4.25252 25.8098 4.26221H21.525C21.3327 4.26221 21.1483 4.33681 21.0123 4.4696C20.8764 4.60238 20.8 4.78247 20.8 4.97026C20.8 5.15804 20.8764 5.33813 21.0123 5.47092C21.1483 5.6037 21.3327 5.6783 21.525 5.6783H24.1205L19.2268 10.4647C19.127 10.5641 19.0594 10.69 19.0325 10.8267C19.0056 10.9633 19.0206 11.1047 19.0755 11.2332C19.1304 11.3616 19.2229 11.4714 19.3413 11.5488C19.4598 11.6262 19.599 11.6678 19.7415 11.6683Z" fill="#2E66C2"/>
</svg>
