<svg width="37" height="38" viewBox="0 0 37 38" fill="none" xmlns="http://www.w3.org/2000/svg">
<path d="M33.1515 27.5405L31.5594 24.7828L30.6401 25.3135L31.5917 26.9617L19.2672 23.6593L14.6006 15.5766C14.5302 15.4547 14.4142 15.3658 14.2783 15.3294L2.67872 12.2213L2.40405 13.2464L13.7912 16.2975L18.4578 24.3803C18.5282 24.5022 18.6441 24.5911 18.7801 24.6275L31.317 27.9868L29.6689 28.9384L30.1996 29.8576L32.9573 28.2655C33.0792 28.1951 33.1681 28.0792 33.2045 27.9432C33.241 27.8072 33.2219 27.6624 33.1515 27.5405Z" fill="#EB0000"/>
<path d="M3.08333 35.7667V0H1.85V1.23333H0V2.46667H1.85V9.86667H0V11.1H1.85V18.5H0V19.7333H1.85V27.1333H0V28.3667H1.85V36.3833C1.85 36.5469 1.91497 36.7037 2.03062 36.8194C2.14627 36.935 2.30312 37 2.46667 37H37V35.7667H3.08333Z" fill="#353535"/>
<path d="M8.01654 2.46667H6.7832V3.70001H8.01654V2.46667Z" fill="#353535"/>
<path d="M16.65 2.46667H9.25V3.70001H16.65V2.46667Z" fill="#353535"/>
<path d="M16.6499 4.93347H6.7832V6.16681H16.6499V4.93347Z" fill="#353535"/>
<path d="M16.6499 7.40015H6.7832V8.63348H16.6499V7.40015Z" fill="#353535"/>
</svg>
