<svg width="37" height="37" viewBox="0 0 37 37" fill="none" xmlns="http://www.w3.org/2000/svg">
<path d="M35.1498 8.0166H31.4498V9.24993H33.6612L23.1779 19.7333H12.3332C12.1696 19.7333 12.0128 19.7983 11.8972 19.9139L2.03052 29.7806L2.90248 30.6526L12.5885 20.9666H23.4332C23.5967 20.9666 23.7535 20.9016 23.8692 20.7859L34.5332 10.1219V12.3333H35.7665V8.63327C35.7665 8.46972 35.7015 8.31287 35.5859 8.19722C35.4702 8.08157 35.3134 8.0166 35.1498 8.0166Z" fill="#13D503"/>
<path d="M3.08333 35.7667V0H1.85V1.23333H0V2.46667H1.85V9.86667H0V11.1H1.85V18.5H0V19.7333H1.85V27.1333H0V28.3667H1.85V36.3833C1.85 36.5469 1.91497 36.7037 2.03062 36.8194C2.14627 36.935 2.30312 37 2.46667 37H37V35.7667H3.08333Z" fill="#353535"/>
<path d="M8.01654 2.46667H6.7832V3.70001H8.01654V2.46667Z" fill="#353535"/>
<path d="M16.65 2.46667H9.25V3.70001H16.65V2.46667Z" fill="#353535"/>
<path d="M16.6499 4.93347H6.7832V6.16681H16.6499V4.93347Z" fill="#353535"/>
<path d="M16.6499 7.40015H6.7832V8.63348H16.6499V7.40015Z" fill="#353535"/>
</svg>
