<svg width="20" height="19" viewBox="0 0 20 19" fill="none" xmlns="http://www.w3.org/2000/svg">
<path d="M10 0C4.76246 0 0.5 4.26246 0.5 9.5C0.5 14.7375 4.76246 19 10 19C15.2375 19 19.5 14.7375 19.5 9.5C19.5 4.26246 15.2375 0 10 0ZM10 17.6628C5.51466 17.6628 1.83724 14.0132 1.83724 9.5C1.83724 4.9868 5.4868 1.33724 10 1.33724C14.4853 1.33724 18.1628 4.9868 18.1628 9.5C18.1628 14.0132 14.4853 17.6628 10 17.6628Z" fill="#2E66C2"/>
<path d="M13.9033 8.33702H10.5967V4.66298C10.5967 4.30387 10.3232 4 10 4C9.6768 4 9.40331 4.30387 9.40331 4.66298V8.33702H6.09668C5.77348 8.33702 5.5 8.64088 5.5 9C5.5 9.35912 5.77348 9.66298 6.09668 9.66298H9.40331V13.337C9.40331 13.6961 9.6768 14 10 14C10.3232 14 10.5967 13.6961 10.5967 13.337V9.66298H13.9033C14.2265 9.66298 14.5 9.35912 14.5 9C14.5 8.64088 14.2265 8.33702 13.9033 8.33702Z" fill="#2E66C2"/>
</svg>
