<svg width="19" height="19" viewBox="0 0 19 19" fill="none" xmlns="http://www.w3.org/2000/svg">
<path fill-rule="evenodd" clip-rule="evenodd" d="M1.35891 0C0.614815 0 0.00190024 0.612918 0.00190024 1.35701L9.09177e-05 13.1196C9.09177e-05 13.7235 0.905667 13.7235 0.905667 13.1196L0.906572 1.35701C0.906572 1.09873 1.10062 0.904676 1.35891 0.904676H14.0243C14.2826 0.904676 14.4766 1.09873 14.4766 1.35701V9.49909C14.4676 10.1107 15.3904 10.1107 15.3813 9.49909V1.35701C15.3813 0.612918 14.7684 0 14.0243 0H1.35891ZM4.07292 3.6187C3.95295 3.6187 3.8379 3.66636 3.75307 3.75119C3.66824 3.83602 3.62059 3.95107 3.62059 4.07104C3.62059 4.19101 3.66824 4.30606 3.75307 4.39089C3.8379 4.47572 3.95295 4.52338 4.07292 4.52338C4.19289 4.52338 4.30794 4.47572 4.39277 4.39089C4.4776 4.30606 4.52526 4.19101 4.52526 4.07104C4.52526 3.95107 4.4776 3.83602 4.39277 3.75119C4.30794 3.66636 4.19289 3.6187 4.07292 3.6187ZM5.83703 3.61961C5.24764 3.66032 5.2897 4.53966 5.88046 4.52428H11.3103C11.9006 4.51162 11.9006 3.63227 11.3103 3.61961H5.88046C5.86599 3.61892 5.8515 3.61892 5.83703 3.61961ZM4.07292 6.33273C3.95295 6.33273 3.8379 6.38039 3.75307 6.46522C3.66824 6.55005 3.62059 6.6651 3.62059 6.78507C3.62059 6.90504 3.66824 7.02009 3.75307 7.10492C3.8379 7.18975 3.95295 7.23741 4.07292 7.23741C4.19289 7.23741 4.30794 7.18975 4.39277 7.10492C4.4776 7.02009 4.52526 6.90504 4.52526 6.78507C4.52526 6.6651 4.4776 6.55005 4.39277 6.46522C4.30794 6.38039 4.19289 6.33273 4.07292 6.33273ZM11.3601 6.33273C11.3433 6.33273 11.3266 6.33273 11.3103 6.33454H5.88046C5.86599 6.33386 5.8515 6.33386 5.83703 6.33454C5.28247 6.40329 5.32137 7.22022 5.88046 7.2356H11.3103C11.9314 7.29033 11.9834 6.34585 11.3601 6.33273ZM5.88046 9.04585C5.29016 9.05852 5.29016 9.93786 5.88046 9.95053H11.3103C11.9264 9.9641 11.9264 9.03228 11.3103 9.04585H5.88046ZM4.07292 9.04676C3.95295 9.04676 3.8379 9.09441 3.75307 9.17924C3.66824 9.26407 3.62059 9.37913 3.62059 9.49909C3.62059 9.61906 3.66824 9.73412 3.75307 9.81895C3.8379 9.90378 3.95295 9.95143 4.07292 9.95143C4.19289 9.95143 4.30794 9.90378 4.39277 9.81895C4.4776 9.73412 4.52526 9.61906 4.52526 9.49909C4.52526 9.37913 4.4776 9.26407 4.39277 9.17924C4.30794 9.09441 4.19289 9.04676 4.07292 9.04676ZM4.07292 11.7608C3.95295 11.7608 3.8379 11.8084 3.75307 11.8933C3.66824 11.9781 3.62059 12.0932 3.62059 12.2131C3.62059 12.3331 3.66824 12.4481 3.75307 12.533C3.8379 12.6178 3.95295 12.6655 4.07292 12.6655C4.19289 12.6655 4.30794 12.6178 4.39277 12.533C4.4776 12.4481 4.52526 12.3331 4.52526 12.2131C4.52526 12.0932 4.4776 11.9781 4.39277 11.8933C4.30794 11.8084 4.19289 11.7608 4.07292 11.7608ZM5.88046 11.7608C5.26437 11.7472 5.26437 12.679 5.88046 12.6655H10.4047C11.0208 12.679 11.0208 11.7472 10.4047 11.7608H5.88046ZM4.07292 14.4748C3.95295 14.4748 3.8379 14.5225 3.75307 14.6073C3.66824 14.6921 3.62059 14.8072 3.62059 14.9271C3.62059 15.0471 3.66824 15.1622 3.75307 15.247C3.8379 15.3318 3.95295 15.3795 4.07292 15.3795C4.19289 15.3795 4.30794 15.3318 4.39277 15.247C4.4776 15.1622 4.52526 15.0471 4.52526 14.9271C4.52526 14.8072 4.4776 14.6921 4.39277 14.6073C4.30794 14.5225 4.19289 14.4748 4.07292 14.4748ZM5.83703 14.4748C5.23361 14.5038 5.27659 15.4093 5.88046 15.3804H9.50005C10.1039 15.3804 10.1039 14.4748 9.50005 14.4748H5.88046C5.86599 14.4741 5.8515 14.4741 5.83703 14.4748ZM0.447903 14.919C0.388114 14.9196 0.329035 14.932 0.274082 14.9556C0.219128 14.9792 0.169392 15.0134 0.127748 15.0563C0.0861048 15.0992 0.0533809 15.1499 0.031469 15.2056C0.00955715 15.2612 -0.00110779 15.3206 9.09177e-05 15.3804L0.00190024 17.6412C0.00190024 18.3853 0.614815 18.9982 1.35891 18.9982H10.4056C11.0172 19.0072 11.0172 18.0845 10.4056 18.0935H1.35891C1.10062 18.0935 0.906572 17.8995 0.906572 17.6412L0.905667 15.3804C0.906884 15.3198 0.895902 15.2595 0.873374 15.2032C0.850846 15.1469 0.817232 15.0958 0.774529 15.0527C0.731826 15.0097 0.680906 14.9757 0.624795 14.9527C0.568685 14.9297 0.508529 14.9183 0.447903 14.919ZM14.9299 10.8552C12.6867 10.8552 10.8598 12.6831 10.8598 14.9262C10.8598 17.1694 12.6872 19 14.9299 19C17.173 19 19 17.1694 19 14.9262C19 12.6831 17.1726 10.8552 14.9299 10.8552ZM14.9299 11.7608C15.3458 11.7598 15.7579 11.8411 16.1424 11.9998C16.5269 12.1585 16.8762 12.3917 17.1703 12.6858C17.4644 12.9799 17.6976 13.3293 17.8563 13.7137C18.0151 14.0982 18.0963 14.5103 18.0953 14.9262C18.0963 15.3424 18.0152 15.7546 17.8565 16.1392C17.6978 16.5239 17.4647 16.8734 17.1706 17.1678C16.8765 17.4621 16.5272 17.6955 16.1427 17.8545C15.7581 18.0136 15.346 18.0951 14.9299 18.0944C14.5138 18.0951 14.1016 18.0136 13.7171 17.8545C13.3326 17.6955 12.9833 17.4621 12.6892 17.1678C12.395 16.8734 12.162 16.5239 12.0033 16.1392C11.8446 15.7546 11.7634 15.3424 11.7644 14.9262C11.7635 14.5103 11.8447 14.0982 12.0035 13.7137C12.1622 13.3293 12.3953 12.9799 12.6894 12.6858C12.9836 12.3917 13.3329 12.1585 13.7174 11.9998C14.1019 11.8411 14.5139 11.7598 14.9299 11.7608ZM16.3584 13.5136C16.2412 13.5174 16.1301 13.5666 16.0485 13.6507L14.4491 15.2497L13.8113 14.6092C13.7693 14.5665 13.7194 14.5326 13.6642 14.5093C13.6091 14.4861 13.55 14.474 13.4902 14.4737C13.4303 14.4734 13.3711 14.485 13.3157 14.5078C13.2604 14.5305 13.2102 14.564 13.1678 14.6062C13.1255 14.6485 13.092 14.6987 13.0691 14.754C13.0463 14.8093 13.0347 14.8686 13.0349 14.9284C13.035 14.9882 13.0471 15.0474 13.0702 15.1025C13.0934 15.1577 13.1273 15.2077 13.1698 15.2497L14.1288 16.2082C14.1708 16.2502 14.2207 16.2836 14.2756 16.3064C14.3305 16.3291 14.3894 16.3408 14.4488 16.3408C14.5083 16.3408 14.5671 16.3291 14.622 16.3064C14.677 16.2836 14.7268 16.2502 14.7689 16.2082L16.6899 14.2912C16.7559 14.2275 16.801 14.1454 16.8192 14.0555C16.8374 13.9657 16.8279 13.8725 16.792 13.7882C16.756 13.7039 16.6953 13.6325 16.6179 13.5834C16.5404 13.5344 16.4499 13.51 16.3584 13.5136Z" fill="#141C5C"/>
</svg>
