<svg width="18" height="25" viewBox="0 0 18 25" fill="none" xmlns="http://www.w3.org/2000/svg">
<path d="M8.87949 25L8.40381 24.4186C8.08668 23.9958 0 14.5349 0 8.87949C0 3.96406 4.01691 0 8.87949 0C13.7421 0 17.759 4.01691 17.759 8.87949C17.759 14.5349 9.6723 24.0486 9.35518 24.4186L8.87949 25ZM8.87949 1.21564C4.65116 1.21564 1.2685 4.65116 1.2685 8.82664C1.2685 13.2664 7.13531 20.8245 8.87949 22.9915C10.6237 20.8245 16.4905 13.3192 16.4905 8.82664C16.4905 4.65116 13.1078 1.21564 8.87949 1.21564Z" fill="#141C5C"/>
<path d="M8.87973 12.2622C7.02984 12.2622 5.49707 10.7294 5.49707 8.87949C5.49707 7.0296 7.02984 5.49683 8.87973 5.49683C10.7296 5.49683 12.2624 7.0296 12.2624 8.87949C12.2624 10.7294 10.7296 12.2622 8.87973 12.2622ZM8.87973 6.76533C7.71694 6.76533 6.76557 7.7167 6.76557 8.87949C6.76557 10.0423 7.71694 10.9937 8.87973 10.9937C10.0425 10.9937 10.9939 10.0423 10.9939 8.87949C10.9939 7.7167 10.0425 6.76533 8.87973 6.76533Z" fill="#141C5C"/>
</svg>
