<svg width="20" height="26" viewBox="0 0 20 26" fill="none" xmlns="http://www.w3.org/2000/svg">
<path d="M10 0C7.34875 0.00309682 4.80694 1.09983 2.93222 3.04959C1.0575 4.99935 0.00297764 7.6429 0 10.4003C0 14.6319 2.95375 18.1459 6.0825 21.8653C7.0725 23.0431 8.0975 24.2612 9.01 25.4937C9.12677 25.6512 9.27675 25.7788 9.44838 25.8666C9.62002 25.9544 9.80873 26 10 26C10.1913 26 10.38 25.9544 10.5516 25.8666C10.7233 25.7788 10.8732 25.6512 10.99 25.4937C11.9025 24.2612 12.9275 23.0431 13.9175 21.8653C17.0462 18.1459 20 14.6319 20 10.4003C19.997 7.6429 18.9425 4.99935 17.0678 3.04959C15.1931 1.09983 12.6513 0.00309682 10 0ZM10 14.3004C9.25832 14.3004 8.5333 14.0716 7.91661 13.6431C7.29993 13.2145 6.81928 12.6054 6.53545 11.8928C6.25162 11.1801 6.17736 10.3959 6.32205 9.6394C6.46675 8.88285 6.8239 8.18792 7.34835 7.64248C7.8728 7.09704 8.54098 6.72559 9.26841 6.57511C9.99584 6.42462 10.7498 6.50186 11.4351 6.79705C12.1203 7.09224 12.706 7.59212 13.118 8.23349C13.5301 8.87486 13.75 9.6289 13.75 10.4003C13.75 11.4346 13.3549 12.4266 12.6517 13.1581C11.9484 13.8895 10.9946 14.3004 10 14.3004Z" fill="#212121"/>
</svg>
