<svg width="14" height="21" viewBox="0 0 14 21" fill="none" xmlns="http://www.w3.org/2000/svg">
<path d="M6.67936 0C3.00571 0 0 2.958 0 6.60779C0 14.3845 6.10684 19.7041 6.36924 19.9426C6.53623 20.0858 6.82248 20.0858 6.98947 19.9426C7.25187 19.7041 13.3587 14.3606 13.3587 6.60779C13.3587 2.958 10.353 0 6.67936 0ZM6.67936 18.9169C5.4389 17.7241 0.954194 12.9532 0.954194 6.60779C0.954194 3.48281 3.53052 0.954194 6.67936 0.954194C9.8282 0.954194 12.4045 3.48281 12.4045 6.60779C12.4045 12.9532 7.91981 17.7241 6.67936 18.9169ZM6.67936 2.86258C4.58013 2.86258 2.86258 4.58013 2.86258 6.67936C2.86258 8.77858 4.58013 10.4961 6.67936 10.4961C8.77858 10.4961 10.4961 8.77858 10.4961 6.67936C10.4961 4.58013 8.77858 2.86258 6.67936 2.86258ZM6.67936 9.54194C5.10494 9.54194 3.81677 8.25378 3.81677 6.67936C3.81677 5.10494 5.10494 3.81678 6.67936 3.81678C8.25378 3.81678 9.54194 5.10494 9.54194 6.67936C9.54194 8.25378 8.25378 9.54194 6.67936 9.54194Z" fill="white"/>
</svg>
