<svg width="21" height="23" viewBox="0 0 21 23" fill="none" xmlns="http://www.w3.org/2000/svg">
<path d="M18.0714 0H2.7381C1.20476 0 0 1.20476 0 2.7381V18.0714C0 19.6048 1.20476 20.8095 2.7381 20.8095H3.28571V22.4524C3.28571 22.781 3.50476 23 3.83333 23H6.02381C6.35238 23 6.57143 22.781 6.57143 22.4524V20.8095H14.2381V22.4524C14.2381 22.781 14.4571 23 14.7857 23H16.9762C17.3048 23 17.5238 22.781 17.5238 22.4524V20.8095H18.0714C19.6048 20.8095 20.8095 19.6048 20.8095 18.0714V2.7381C20.8095 1.20476 19.6048 0 18.0714 0ZM5.47619 21.9048H4.38095V20.8095H5.47619V21.9048ZM16.4286 21.9048H15.3333V20.8095H16.4286V21.9048ZM19.7143 18.0714C19.7143 19.0024 19.0024 19.7143 18.0714 19.7143H2.7381C1.80714 19.7143 1.09524 19.0024 1.09524 18.0714V2.7381C1.09524 1.80714 1.80714 1.09524 2.7381 1.09524H18.0714C19.0024 1.09524 19.7143 1.80714 19.7143 2.7381V18.0714Z" fill="#141C5C"/>
<path d="M16.9761 3.28589H3.83329C3.50472 3.28589 3.28567 3.50494 3.28567 3.83351V5.47636H2.73805C2.40948 5.47636 2.19043 5.69541 2.19043 6.02398V8.21446C2.19043 8.54303 2.40948 8.76208 2.73805 8.76208H3.28567V12.0478H2.73805C2.40948 12.0478 2.19043 12.2668 2.19043 12.5954V14.7859C2.19043 15.1145 2.40948 15.3335 2.73805 15.3335H3.28567V16.9764C3.28567 17.3049 3.50472 17.524 3.83329 17.524H16.9761C17.3047 17.524 17.5238 17.3049 17.5238 16.9764V3.83351C17.5238 3.50494 17.3047 3.28589 16.9761 3.28589ZM3.28567 6.5716H4.38091V7.66684H3.28567V6.5716ZM3.28567 13.143H4.38091V14.2383H3.28567V13.143ZM16.4285 16.4287H4.38091V15.3335H4.92852C5.2571 15.3335 5.47614 15.1145 5.47614 14.7859V12.5954C5.47614 12.2668 5.2571 12.0478 4.92852 12.0478H4.38091V8.76208H4.92852C5.2571 8.76208 5.47614 8.54303 5.47614 8.21446V6.02398C5.47614 5.69541 5.2571 5.47636 4.92852 5.47636H4.38091V4.38113H16.4285V16.4287Z" fill="#141C5C"/>
<path d="M10.4042 14.2379C11.3899 14.2379 12.3756 13.8546 13.0875 13.1427C14.5661 11.6641 14.5661 9.1998 13.0875 7.72123C11.6089 6.24266 9.14463 6.24266 7.66606 7.72123C6.18749 9.1998 6.18749 11.6641 7.66606 13.1427C8.43272 13.8546 9.41844 14.2379 10.4042 14.2379ZM8.48749 8.4879C9.03511 7.94028 9.74701 7.66647 10.4042 7.66647C11.0613 7.66647 11.828 7.94028 12.3208 8.4879C13.3613 9.52838 13.3613 11.2808 12.3208 12.376C11.2803 13.4165 9.52796 13.4165 8.43272 12.376C7.39225 11.2808 7.39225 9.52838 8.48749 8.4879Z" fill="#141C5C"/>
<path d="M9.25462 11.5544C9.36414 11.6639 9.52843 11.7187 9.63795 11.7187C9.74748 11.7187 9.91176 11.6639 10.0213 11.5544L10.4046 11.171L10.788 11.5544C10.8975 11.6639 11.0618 11.7187 11.1713 11.7187C11.2808 11.7187 11.4451 11.6639 11.5546 11.5544C11.7737 11.3353 11.7737 11.0068 11.5546 10.7877L11.1713 10.4044L11.5546 10.021C11.7737 9.80199 11.7737 9.47342 11.5546 9.25437C11.3356 9.03533 11.007 9.03533 10.788 9.25437L10.4046 9.63771L10.0213 9.25437C9.80224 9.03533 9.47367 9.03533 9.25462 9.25437C9.03557 9.47342 9.03557 9.80199 9.25462 10.021L9.63795 10.4044L9.25462 10.7877C9.03557 11.0068 9.03557 11.3353 9.25462 11.5544Z" fill="#141C5C"/>
</svg>
