<svg width="20" height="19" viewBox="0 0 20 19" fill="none" xmlns="http://www.w3.org/2000/svg">
<path d="M9.67661 0C5.48808 0 1.91243 2.53633 0.500088 6.10714H2.01908C2.43111 5.2384 3.00387 4.43828 3.72352 3.74224C5.31373 2.20421 7.42792 1.35714 9.67661 1.35714C11.9256 1.35714 14.0401 2.20421 15.6305 3.74228C17.2209 5.28035 18.0967 7.32514 18.0967 9.5C18.0967 11.675 17.2209 13.7199 15.6305 15.2579C14.0402 16.7959 11.9257 17.6429 9.67661 17.6429C7.42784 17.6429 5.31364 16.7959 3.72348 15.2579C3.00378 14.5619 2.43103 13.7617 2.0189 12.8929H0.5C1.9123 16.4639 5.488 19 9.67666 19C15.1018 19 19.5 14.7468 19.5 9.5C19.5 4.25371 15.1018 0 9.67661 0Z" fill="#2E66C2"/>
<path d="M6.98906 12.1719L7.82873 13.0625L11.1875 9.5L7.82873 5.9375L6.98902 6.82814L8.91436 8.87024H0.5V10.1298H8.91436L6.98906 12.1719Z" fill="#2E66C2"/>
</svg>
