<svg width="14" height="14" viewBox="0 0 14 14" fill="none" xmlns="http://www.w3.org/2000/svg">
<path d="M13.817 6.52047L10.692 3.18714C10.5741 3.0657 10.4162 2.99851 10.2523 3.00003C10.0885 3.00154 9.9317 3.07166 9.81582 3.19526C9.69993 3.31887 9.6342 3.48608 9.63278 3.66087C9.63135 3.83567 9.69435 4.00407 9.8082 4.12981L11.8664 6.32514H4.62501C4.45925 6.32514 4.30027 6.39538 4.18306 6.5204C4.06585 6.64543 4 6.815 4 6.99181C4 7.16862 4.06585 7.33819 4.18306 7.46321C4.30027 7.58824 4.45925 7.65847 4.62501 7.65847H11.8664L9.8082 9.85381C9.74851 9.91531 9.70089 9.98887 9.66814 10.0702C9.63538 10.1515 9.61814 10.239 9.61742 10.3275C9.6167 10.4161 9.63251 10.5038 9.66394 10.5858C9.69536 10.6677 9.74177 10.7421 9.80046 10.8047C9.85914 10.8673 9.92892 10.9168 10.0057 10.9504C10.0825 10.9839 10.1648 11.0007 10.2478 11C10.3308 10.9992 10.4128 10.9808 10.4891 10.9459C10.5653 10.9109 10.6343 10.8601 10.692 10.7965L13.817 7.46314C13.9342 7.33812 14 7.16858 14 6.99181C14 6.81503 13.9342 6.64549 13.817 6.52047Z" fill="#212121"/>
<path d="M3.33333 12.7273H1.33333V1.27273H3.33333C3.51014 1.27273 3.67971 1.20568 3.80474 1.08634C3.92976 0.966999 4 0.805138 4 0.636364C4 0.467589 3.92976 0.305728 3.80474 0.186387C3.67971 0.0670454 3.51014 0 3.33333 0H0.666667C0.489856 0 0.320287 0.0670454 0.195262 0.186387C0.070238 0.305728 0 0.467589 0 0.636364V13.3636C0 13.5324 0.070238 13.6943 0.195262 13.8136C0.320287 13.933 0.489856 14 0.666667 14H3.33333C3.51014 14 3.67971 13.933 3.80474 13.8136C3.92976 13.6943 4 13.5324 4 13.3636C4 13.1949 3.92976 13.033 3.80474 12.9137C3.67971 12.7943 3.51014 12.7273 3.33333 12.7273Z" fill="#212121"/>
</svg>
