<svg width="16" height="20" viewBox="0 0 16 20" fill="none" xmlns="http://www.w3.org/2000/svg">
<path d="M0 10C0 10.2761 0.223877 10.5 0.5 10.5H9.29303L6.64648 13.1465C6.55273 13.2402 6.50006 13.3674 6.50006 13.4999C6.5 13.7761 6.72388 13.9999 7 14C7.13263 14.0001 7.25983 13.9474 7.35345 13.8535L10.8535 10.3535C10.8534 10.3536 10.8535 10.3535 10.8535 10.3535C11.0486 10.1583 11.0487 9.84167 10.8535 9.64655L7.35345 6.14655C7.15973 5.95941 6.85254 5.95941 6.65875 6.14655C6.46014 6.33838 6.45465 6.65491 6.64648 6.85352L9.29303 9.5H0.5C0.223877 9.5 0 9.72388 0 10ZM13.5 0H2.5C1.11981 0.0012817 0.0012817 1.11981 0 2.5V6.5C0 6.77612 0.223877 7 0.5 7C0.776123 7 1 6.77612 1 6.5V2.5C1.00092 1.67194 1.67194 1.00092 2.5 1H13.5C14.3281 1.00092 14.9991 1.67194 15 2.5V17.5C14.9991 18.3281 14.3281 18.9991 13.5 19H2.5C1.67194 18.9991 1.00092 18.3281 1 17.5V13.5C1 13.2239 0.776123 13 0.5 13C0.223877 13 0 13.2239 0 13.5V17.5C0.0012817 18.8802 1.11981 19.9987 2.5 20H13.5C14.8802 19.9987 15.9987 18.8802 16 17.5V2.5C15.9987 1.11981 14.8802 0.0012817 13.5 0Z" fill="#969696"/>
</svg>
