<svg width="11" height="11" viewBox="0 0 11 11" fill="none" xmlns="http://www.w3.org/2000/svg">
<path d="M4.34921 8.69841C1.95105 8.69841 0 6.74736 0 4.34921C0 1.95105 1.95105 0 4.34921 0C6.74736 0 8.69841 1.95105 8.69841 4.34921C8.69841 6.74736 6.74736 8.69841 4.34921 8.69841ZM4.34921 0.869841C2.43077 0.869841 0.869841 2.43077 0.869841 4.34921C0.869841 6.26764 2.43077 7.82857 4.34921 7.82857C6.26764 7.82857 7.82857 6.26764 7.82857 4.34921C7.82857 2.43077 6.26807 0.869841 4.34921 0.869841Z" fill="#ffffff"/>
<path d="M10.5651 11C10.508 11 10.4514 10.9888 10.3987 10.967C10.3459 10.9451 10.298 10.913 10.2576 10.8726L6.91136 7.52628C6.87098 7.4859 6.83895 7.43796 6.8171 7.3852C6.79524 7.33244 6.784 7.2759 6.784 7.21879C6.784 7.16168 6.79524 7.10514 6.8171 7.05238C6.83895 6.99962 6.87098 6.95168 6.91136 6.9113C6.95174 6.87092 6.99968 6.83889 7.05244 6.81704C7.1052 6.79518 7.16175 6.78394 7.21885 6.78394C7.27596 6.78394 7.3325 6.79518 7.38526 6.81704C7.43802 6.83889 7.48596 6.87092 7.52634 6.9113L10.8726 10.2576C10.9336 10.3183 10.9752 10.3958 10.9921 10.4803C11.009 10.5647 11.0005 10.6522 10.9675 10.7318C10.9346 10.8113 10.8787 10.8793 10.8071 10.927C10.7354 10.9748 10.6512 11.0002 10.5651 11Z" fill="#ffffff"/>
</svg>
