<svg width="25" height="26" viewBox="0 0 25 26" fill="none" xmlns="http://www.w3.org/2000/svg">
<path d="M4.7852 25.1333L4.7852 25.0103C5.52032 24.8211 6.17215 24.3897 6.6377 23.7842C7.10326 23.1787 7.356 22.4336 7.356 21.6667C7.356 20.8997 7.10326 20.1547 6.6377 19.5492C6.17215 18.9436 5.52032 18.5122 4.7852 18.3231L4.7852 0.866667C4.7852 0.636812 4.69489 0.416372 4.53413 0.253839C4.37337 0.0913084 4.15534 -1.5978e-07 3.928 -1.49843e-07C3.70065 -1.39905e-07 3.48262 0.0913085 3.32187 0.253839C3.16111 0.416372 3.0708 0.636812 3.0708 0.866667L3.0708 18.3231C2.33568 18.5122 1.68385 18.9436 1.2183 19.5492C0.752741 20.1547 0.5 20.8997 0.5 21.6667C0.5 22.4336 0.752742 23.1787 1.2183 23.7842C1.68385 24.3897 2.33568 24.8211 3.0708 25.0103L3.0708 25.1333C3.0708 25.3632 3.16111 25.5836 3.32187 25.7462C3.48262 25.9087 3.70065 26 3.928 26C4.15534 26 4.37337 25.9087 4.53413 25.7462C4.69489 25.5836 4.7852 25.3632 4.7852 25.1333ZM2.2136 21.6667C2.2136 21.3238 2.31415 20.9887 2.50253 20.7037C2.69091 20.4186 2.95866 20.1965 3.27193 20.0653C3.58519 19.9341 3.9299 19.8998 4.26246 19.9666C4.59502 20.0335 4.9005 20.1986 5.14026 20.441C5.38003 20.6834 5.54331 20.9923 5.60946 21.3285C5.67561 21.6647 5.64166 22.0133 5.5119 22.33C5.38214 22.6467 5.1624 22.9174 4.88047 23.1079C4.59854 23.2983 4.26707 23.4 3.928 23.4C3.47331 23.4 3.03725 23.2174 2.71573 22.8923C2.39422 22.5673 2.2136 22.1264 2.2136 21.6667ZM11.6428 0.866666L11.6428 0.989732C10.9077 1.1789 10.2559 1.61031 9.7903 2.21582C9.32474 2.82132 9.072 3.5664 9.072 4.33333C9.072 5.10027 9.32474 5.84534 9.7903 6.45085C10.2559 7.05635 10.9077 7.48776 11.6428 7.67693L11.6428 25.1333C11.6428 25.3632 11.7331 25.5836 11.8939 25.7462C12.0546 25.9087 12.2727 26 12.5 26C12.7273 26 12.9454 25.9087 13.1061 25.7462C13.2669 25.5836 13.3572 25.3632 13.3572 25.1333L13.3572 7.67693C14.0923 7.48776 14.7441 7.05635 15.2097 6.45085C15.6753 5.84534 15.928 5.10027 15.928 4.33333C15.928 3.5664 15.6753 2.82132 15.2097 2.21582C14.7441 1.61031 14.0923 1.1789 13.3572 0.989732L13.3572 0.866666C13.3572 0.636812 13.2669 0.416372 13.1061 0.253839C12.9454 0.091308 12.7273 -5.34474e-07 12.5 -5.24537e-07C12.2727 -5.14599e-07 12.0546 0.0913081 11.8939 0.253839C11.7331 0.416372 11.6428 0.636812 11.6428 0.866666ZM14.2144 4.33333C14.2144 4.67615 14.1139 5.01128 13.9255 5.29632C13.7371 5.58137 13.4693 5.80353 13.1561 5.93472C12.8428 6.06592 12.4981 6.10024 12.1655 6.03336C11.833 5.96648 11.5275 5.80139 11.2877 5.55898C11.048 5.31657 10.8847 5.00772 10.8185 4.67149C10.7524 4.33526 10.7863 3.98674 10.9161 3.67001C11.0459 3.35329 11.2656 3.08258 11.5475 2.89212C11.8295 2.70166 12.1609 2.6 12.5 2.6C12.9547 2.6 13.3907 2.78262 13.7123 3.10768C14.0338 3.43274 14.2144 3.87362 14.2144 4.33333ZM20.2148 0.866666L20.2148 9.6564C19.4797 9.84557 18.8279 10.277 18.3623 10.8825C17.8967 11.488 17.644 12.2331 17.644 13C17.644 13.7669 17.8967 14.512 18.3623 15.1175C18.8279 15.723 19.4797 16.1544 20.2148 16.3436L20.2148 25.1333C20.2148 25.3632 20.3051 25.5836 20.4659 25.7462C20.6266 25.9087 20.8447 26 21.072 26C21.2993 26 21.5174 25.9087 21.6781 25.7462C21.8389 25.5836 21.9292 25.3632 21.9292 25.1333L21.9292 16.3436C22.6643 16.1544 23.3161 15.723 23.7817 15.1175C24.2473 14.512 24.5 13.7669 24.5 13C24.5 12.2331 24.2473 11.488 23.7817 10.8825C23.3161 10.277 22.6643 9.84557 21.9292 9.6564L21.9292 0.866666C21.9292 0.636811 21.8389 0.416371 21.6781 0.253839C21.5174 0.0913077 21.2993 -9.09168e-07 21.072 -8.99231e-07C20.8447 -8.89293e-07 20.6266 0.0913077 20.4659 0.253839C20.3051 0.416371 20.2148 0.636811 20.2148 0.866666ZM22.7864 13C22.7864 13.3428 22.6859 13.6779 22.4975 13.963C22.3091 14.248 22.0413 14.4702 21.7281 14.6014C21.4148 14.7326 21.0701 14.7669 20.7375 14.7C20.405 14.6331 20.0995 14.4681 19.8597 14.2257C19.62 13.9832 19.4567 13.6744 19.3905 13.3382C19.3244 13.0019 19.3583 12.6534 19.4881 12.3367C19.6179 12.02 19.8376 11.7492 20.1195 11.5588C20.4015 11.3683 20.7329 11.2667 21.072 11.2667C21.5267 11.2667 21.9628 11.4493 22.2843 11.7743C22.6058 12.0994 22.7864 12.5403 22.7864 13Z" fill="#212121"/>
</svg>
