<svg width="24" height="20" viewBox="0 0 24 20" fill="none" xmlns="http://www.w3.org/2000/svg">
<path d="M23.3051 3.08781L17.6622 0.999942C17.7751 1.05637 17.4929 0.887085 17.2672 0.999942L11.8218 3.00317L6.40467 0.999942C6.51753 1.05637 6.23538 0.887085 6.00967 0.999942L0.366787 3.08781C0.141072 3.17245 0 3.36995 0 3.62388V18.4647C0 19.4522 1.24143 18.8032 0.761789 19.0007L6.17896 16.9975L11.5961 19.0007C11.8501 19.0854 12.1322 18.9443 12.0193 19.0007L17.4647 16.9975L22.9101 19.0007C23.2769 19.1418 23.6719 18.8879 23.6719 18.4647V3.62388C23.6719 3.39817 23.5308 3.17245 23.3051 3.08781ZM5.61467 16.01L1.10036 17.6182V3.99067L5.61467 2.35423V16.01ZM11.2575 17.6182L6.74324 15.9818V2.35423L11.2575 3.99067V17.6182ZM16.9004 16.01L12.3861 17.6182V3.99067L16.9004 2.35423V16.01ZM22.5433 17.6182L18.029 15.9818V2.35423L22.5433 3.99067V17.6182Z" fill="white"/>
</svg>
