<svg width="78" height="78" viewBox="0 0 78 78" fill="none" xmlns="http://www.w3.org/2000/svg">
<rect width="78" height="78" rx="20" fill="#212121"/>
<path d="M39 34.8C38.1693 34.8 37.3573 35.0463 36.6666 35.5078C35.9759 35.9693 35.4376 36.6253 35.1197 37.3927C34.8018 38.1602 34.7186 39.0047 34.8807 39.8194C35.0428 40.6341 35.4428 41.3825 36.0302 41.9698C36.6175 42.5572 37.3659 42.9572 38.1806 43.1193C38.9953 43.2814 39.8398 43.1982 40.6073 42.8803C41.3747 42.5624 42.0307 42.0241 42.4922 41.3334C42.9537 40.6427 43.2 39.8307 43.2 39C43.2 37.8861 42.7575 36.8178 41.9698 36.0302C41.1822 35.2425 40.1139 34.8 39 34.8ZM39 40.4C38.7231 40.4 38.4524 40.3179 38.2222 40.1641C37.992 40.0102 37.8125 39.7916 37.7066 39.5358C37.6006 39.2799 37.5729 38.9984 37.6269 38.7269C37.6809 38.4553 37.8143 38.2058 38.0101 38.0101C38.2058 37.8143 38.4553 37.6809 38.7269 37.6269C38.9984 37.5729 39.2799 37.6006 39.5358 37.7066C39.7916 37.8125 40.0102 37.992 40.1641 38.2222C40.3179 38.4524 40.4 38.7231 40.4 39C40.4 39.3713 40.2525 39.7274 39.9899 39.9899C39.7274 40.2525 39.3713 40.4 39 40.4ZM51.6 37.6H50.102C49.7895 35.136 48.6669 32.8457 46.9106 31.0894C45.1543 29.3331 42.864 28.2105 40.4 27.898V26.4C40.4 26.0287 40.2525 25.6726 39.9899 25.4101C39.7274 25.1475 39.3713 25 39 25C38.6287 25 38.2726 25.1475 38.0101 25.4101C37.7475 25.6726 37.6 26.0287 37.6 26.4V27.898C35.136 28.2105 32.8457 29.3331 31.0894 31.0894C29.3331 32.8457 28.2105 35.136 27.898 37.6H26.4C26.0287 37.6 25.6726 37.7475 25.4101 38.0101C25.1475 38.2726 25 38.6287 25 39C25 39.3713 25.1475 39.7274 25.4101 39.9899C25.6726 40.2525 26.0287 40.4 26.4 40.4H27.898C28.2105 42.864 29.3331 45.1543 31.0894 46.9106C32.8457 48.6669 35.136 49.7895 37.6 50.102V51.6C37.6 51.9713 37.7475 52.3274 38.0101 52.59C38.2726 52.8525 38.6287 53 39 53C39.3713 53 39.7274 52.8525 39.9899 52.59C40.2525 52.3274 40.4 51.9713 40.4 51.6V50.102C42.864 49.7895 45.1543 48.6669 46.9106 46.9106C48.6669 45.1543 49.7895 42.864 50.102 40.4H51.6C51.9713 40.4 52.3274 40.2525 52.59 39.9899C52.8525 39.7274 53 39.3713 53 39C53 38.6287 52.8525 38.2726 52.59 38.0101C52.3274 37.7475 51.9713 37.6 51.6 37.6ZM39 47.4C37.3386 47.4 35.7146 46.9073 34.3332 45.9843C32.9518 45.0613 31.8752 43.7494 31.2394 42.2145C30.6036 40.6796 30.4373 38.9907 30.7614 37.3612C31.0855 35.7318 31.8855 34.2351 33.0603 33.0603C34.2351 31.8855 35.7318 31.0855 37.3612 30.7614C38.9907 30.4373 40.6796 30.6036 42.2145 31.2394C43.7494 31.8752 45.0613 32.9518 45.9843 34.3332C46.9073 35.7146 47.4 37.3386 47.4 39C47.4 41.2278 46.515 43.3644 44.9397 44.9397C43.3644 46.515 41.2278 47.4 39 47.4Z" fill="white"/>
</svg>
