<svg width="78" height="78" viewBox="0 0 78 78" fill="none" xmlns="http://www.w3.org/2000/svg">
<rect width="78" height="78" rx="20" fill="#212121"/>
<path d="M28.1977 27C28.1898 27.0077 28.182 27.0155 28.1743 27.0234C27.8673 27.0214 27.5712 27.1372 27.3469 27.3469C27.3113 27.5129 27.3113 27.6847 27.3469 27.8508C27.2086 27.9413 27.0905 28.0594 27 28.1977V31.8025C27.0012 32.1195 27.1279 32.4232 27.3523 32.6472C27.5767 32.8711 27.8806 32.9972 28.1977 32.9978C28.3553 32.9984 28.5114 32.968 28.6573 32.9083C28.8031 32.8485 28.9357 32.7606 29.0476 32.6496C29.1595 32.5386 29.2484 32.4067 29.3093 32.2613C29.3701 32.116 29.4018 31.9601 29.4024 31.8025V31.1017L32.147 33.8486C32.2585 33.9607 32.3911 34.0497 32.5371 34.1104C32.6831 34.1711 32.8397 34.2023 32.9978 34.2023C33.1559 34.2023 33.3125 34.1711 33.4585 34.1104C33.6045 34.0497 33.7371 33.9607 33.8486 33.8486C33.9607 33.7371 34.0497 33.6045 34.1104 33.4585C34.1711 33.3125 34.2023 33.1559 34.2023 32.9978C34.2023 32.8397 34.1711 32.6831 34.1104 32.5371C34.0497 32.3911 33.9607 32.2585 33.8486 32.147L31.1017 29.4024H31.8024C31.96 29.4018 32.116 29.3702 32.2613 29.3093C32.4067 29.2484 32.5386 29.1595 32.6496 29.0476C32.7606 28.9358 32.8485 28.8031 32.9082 28.6573C32.968 28.5115 32.9984 28.3553 32.9978 28.1977C32.9972 27.8807 32.8711 27.5767 32.6472 27.3523C32.4232 27.1279 32.1195 27.0013 31.8024 27H28.2328H28.1977ZM46.1934 27C45.8763 27.0013 45.5727 27.1279 45.3487 27.3523C45.1247 27.5767 44.9987 27.8807 44.9981 28.1977C44.9974 28.3553 45.0279 28.5115 45.0876 28.6573C45.1473 28.8031 45.2352 28.9358 45.3462 29.0476C45.4572 29.1595 45.5892 29.2484 45.7345 29.3093C45.8799 29.3702 46.0358 29.4018 46.1934 29.4024H46.8942L44.1473 32.147C44.0351 32.2585 43.9462 32.3911 43.8855 32.5371C43.8248 32.6831 43.7935 32.8397 43.7935 32.9978C43.7935 33.1559 43.8248 33.3125 43.8855 33.4585C43.9462 33.6045 44.0351 33.7371 44.1473 33.8486C44.2588 33.9607 44.3913 34.0497 44.5373 34.1104C44.6834 34.1711 44.8399 34.2023 44.9981 34.2023C45.1562 34.2023 45.3127 34.1711 45.4588 34.1104C45.6048 34.0497 45.7373 33.9607 45.8489 33.8486L48.5934 31.1017V31.8025C48.5941 31.9601 48.6257 32.116 48.6866 32.2613C48.7474 32.4067 48.8364 32.5386 48.9482 32.6496C49.0601 32.7606 49.1927 32.8485 49.3386 32.9083C49.4844 32.968 49.6406 32.9984 49.7982 32.9978C50.1152 32.9972 50.4191 32.8711 50.6435 32.6472C50.8679 32.4232 50.9946 32.1195 50.9958 31.8025V28.3336C51.0162 28.1537 50.9956 27.9714 50.9356 27.8005C50.8755 27.6296 50.7775 27.4745 50.649 27.3469C50.5369 27.236 50.4041 27.1483 50.2581 27.0888C50.1121 27.0293 49.9558 26.9991 49.7982 27H46.1934ZM32.147 44.1473L29.4024 46.8942V46.1934C29.4018 46.0358 29.3701 45.8799 29.3093 45.7345C29.2484 45.5892 29.1595 45.4572 29.0476 45.3462C28.9357 45.2352 28.8031 45.1474 28.6573 45.0876C28.5114 45.0279 28.3553 44.9975 28.1977 44.9981C27.8806 44.9987 27.5767 45.1247 27.3523 45.3487C27.1279 45.5727 27.0012 45.8764 27 46.1934V49.7982C27.0905 49.9365 27.2086 50.0546 27.3469 50.1451C27.3112 50.3111 27.3112 50.4829 27.3469 50.649C27.5711 50.8587 27.8672 50.9744 28.1742 50.9724C28.1819 50.9803 28.1897 50.9882 28.1976 50.9959H31.8024C32.1195 50.9946 32.4231 50.868 32.6471 50.6436C32.8711 50.4192 32.9972 50.1152 32.9978 49.7982C32.9984 49.6406 32.968 49.4844 32.9082 49.3386C32.8485 49.1927 32.7606 49.0601 32.6496 48.9483C32.5386 48.8364 32.4067 48.7475 32.2613 48.6866C32.116 48.6258 31.96 48.5941 31.8024 48.5935H31.1017L33.8486 45.8489C33.9607 45.7374 34.0497 45.6048 34.1104 45.4588C34.1711 45.3128 34.2023 45.1562 34.2023 44.9981C34.2023 44.8399 34.1711 44.6834 34.1104 44.5374C34.0497 44.3914 33.9607 44.2588 33.8486 44.1473C33.7371 44.0352 33.6045 43.9462 33.4585 43.8855C33.3125 43.8248 33.1559 43.7935 32.9978 43.7935C32.8397 43.7935 32.6831 43.8248 32.5371 43.8855C32.3911 43.9462 32.2585 44.0352 32.147 44.1473ZM44.1473 44.1473C44.0351 44.2588 43.9462 44.3914 43.8855 44.5374C43.8248 44.6834 43.7935 44.8399 43.7935 44.9981C43.7935 45.1562 43.8248 45.3128 43.8855 45.4588C43.9462 45.6048 44.0351 45.7374 44.1473 45.8489L46.8942 48.5935H46.1934C46.0358 48.5941 45.8799 48.6258 45.7345 48.6866C45.5892 48.7475 45.4572 48.8364 45.3462 48.9483C45.2352 49.0601 45.1473 49.1927 45.0876 49.3386C45.0279 49.4844 44.9974 49.6406 44.9981 49.7982C44.9987 50.1152 45.1247 50.4191 45.3487 50.6436C45.5727 50.868 45.8763 50.9946 46.1934 50.9959H49.7982C49.8061 50.9882 49.8139 50.9804 49.8216 50.9725C50.1286 50.9745 50.4247 50.8587 50.6489 50.649C50.6846 50.4829 50.6846 50.3111 50.6489 50.1451C50.7872 50.0545 50.9053 49.9365 50.9958 49.7982V46.1934C50.9946 45.8764 50.8679 45.5727 50.6435 45.3487C50.4191 45.1247 50.1152 44.9987 49.7982 44.9981C49.6406 44.9975 49.4844 45.0279 49.3386 45.0876C49.1927 45.1474 49.0601 45.2352 48.9482 45.3462C48.8364 45.4572 48.7474 45.5892 48.6866 45.7345C48.6257 45.8799 48.5941 46.0358 48.5934 46.1934V46.8942L45.8489 44.1473C45.7373 44.0352 45.6048 43.9462 45.4588 43.8855C45.3127 43.8248 45.1562 43.7935 44.9981 43.7935C44.8399 43.7935 44.6834 43.8248 44.5373 43.8855C44.3913 43.9462 44.2588 44.0352 44.1473 44.1473Z" fill="white"/>
</svg>
