<svg width="24" height="26" viewBox="0 0 24 26" fill="none" xmlns="http://www.w3.org/2000/svg">
<path d="M4.2852 25.1333L4.2852 25.0103C5.02032 24.8211 5.67215 24.3897 6.1377 23.7842C6.60326 23.1787 6.856 22.4336 6.856 21.6667C6.856 20.8997 6.60326 20.1547 6.1377 19.5492C5.67215 18.9436 5.02032 18.5122 4.2852 18.3231L4.2852 0.866667C4.2852 0.636812 4.19489 0.416372 4.03413 0.253839C3.87337 0.0913084 3.65534 -1.5978e-07 3.428 -1.49843e-07C3.20065 -1.39905e-07 2.98262 0.0913085 2.82187 0.253839C2.66111 0.416372 2.5708 0.636812 2.5708 0.866667L2.5708 18.3231C1.83568 18.5122 1.18385 18.9436 0.718296 19.5492C0.252741 20.1547 -2.2294e-07 20.8997 -1.89416e-07 21.6667C-1.55892e-07 22.4336 0.252742 23.1787 0.718296 23.7842C1.18385 24.3897 1.83568 24.8211 2.5708 25.0103L2.5708 25.1333C2.5708 25.3632 2.66111 25.5836 2.82187 25.7462C2.98262 25.9087 3.20065 26 3.428 26C3.65534 26 3.87337 25.9087 4.03413 25.7462C4.19489 25.5836 4.2852 25.3632 4.2852 25.1333ZM1.7136 21.6667C1.7136 21.3238 1.81415 20.9887 2.00253 20.7037C2.19091 20.4186 2.45866 20.1965 2.77193 20.0653C3.08519 19.9341 3.4299 19.8998 3.76246 19.9666C4.09502 20.0335 4.4005 20.1986 4.64026 20.441C4.88003 20.6834 5.04331 20.9923 5.10946 21.3285C5.17561 21.6647 5.14166 22.0133 5.0119 22.33C4.88214 22.6467 4.6624 22.9174 4.38047 23.1079C4.09854 23.2983 3.76707 23.4 3.428 23.4C2.97331 23.4 2.53725 23.2174 2.21573 22.8923C1.89422 22.5673 1.7136 22.1264 1.7136 21.6667ZM11.1428 0.866666L11.1428 0.989732C10.4077 1.1789 9.75585 1.61031 9.2903 2.21582C8.82474 2.82132 8.572 3.5664 8.572 4.33333C8.572 5.10027 8.82474 5.84534 9.2903 6.45085C9.75585 7.05635 10.4077 7.48776 11.1428 7.67693L11.1428 25.1333C11.1428 25.3632 11.2331 25.5836 11.3939 25.7462C11.5546 25.9087 11.7727 26 12 26C12.2273 26 12.4454 25.9087 12.6061 25.7462C12.7669 25.5836 12.8572 25.3632 12.8572 25.1333L12.8572 7.67693C13.5923 7.48776 14.2441 7.05635 14.7097 6.45085C15.1753 5.84534 15.428 5.10027 15.428 4.33333C15.428 3.5664 15.1753 2.82132 14.7097 2.21582C14.2441 1.61031 13.5923 1.1789 12.8572 0.989732L12.8572 0.866666C12.8572 0.636812 12.7669 0.416372 12.6061 0.253839C12.4454 0.091308 12.2273 -5.34474e-07 12 -5.24537e-07C11.7727 -5.14599e-07 11.5546 0.0913081 11.3939 0.253839C11.2331 0.416372 11.1428 0.636812 11.1428 0.866666ZM13.7144 4.33333C13.7144 4.67615 13.6139 5.01128 13.4255 5.29632C13.2371 5.58137 12.9693 5.80353 12.6561 5.93472C12.3428 6.06592 11.9981 6.10024 11.6655 6.03336C11.333 5.96648 11.0275 5.80139 10.7877 5.55898C10.548 5.31657 10.3847 5.00772 10.3185 4.67149C10.2524 4.33526 10.2863 3.98674 10.4161 3.67001C10.5459 3.35329 10.7656 3.08258 11.0475 2.89212C11.3295 2.70166 11.6609 2.6 12 2.6C12.4547 2.6 12.8907 2.78262 13.2123 3.10768C13.5338 3.43274 13.7144 3.87362 13.7144 4.33333ZM19.7148 0.866666L19.7148 9.6564C18.9797 9.84557 18.3279 10.277 17.8623 10.8825C17.3967 11.488 17.144 12.2331 17.144 13C17.144 13.7669 17.3967 14.512 17.8623 15.1175C18.3279 15.723 18.9797 16.1544 19.7148 16.3436L19.7148 25.1333C19.7148 25.3632 19.8051 25.5836 19.9659 25.7462C20.1266 25.9087 20.3447 26 20.572 26C20.7993 26 21.0174 25.9087 21.1781 25.7462C21.3389 25.5836 21.4292 25.3632 21.4292 25.1333L21.4292 16.3436C22.1643 16.1544 22.8161 15.723 23.2817 15.1175C23.7473 14.512 24 13.7669 24 13C24 12.2331 23.7473 11.488 23.2817 10.8825C22.8161 10.277 22.1643 9.84557 21.4292 9.6564L21.4292 0.866666C21.4292 0.636811 21.3389 0.416371 21.1781 0.253839C21.0174 0.0913077 20.7993 -9.09168e-07 20.572 -8.99231e-07C20.3447 -8.89293e-07 20.1266 0.0913077 19.9659 0.253839C19.8051 0.416371 19.7148 0.636811 19.7148 0.866666ZM22.2864 13C22.2864 13.3428 22.1859 13.6779 21.9975 13.963C21.8091 14.248 21.5413 14.4702 21.2281 14.6014C20.9148 14.7326 20.5701 14.7669 20.2375 14.7C19.905 14.6331 19.5995 14.4681 19.3597 14.2257C19.12 13.9832 18.9567 13.6744 18.8905 13.3382C18.8244 13.0019 18.8583 12.6534 18.9881 12.3367C19.1179 12.02 19.3376 11.7492 19.6195 11.5588C19.9015 11.3683 20.2329 11.2667 20.572 11.2667C21.0267 11.2667 21.4628 11.4493 21.7843 11.7743C22.1058 12.0994 22.2864 12.5403 22.2864 13Z" fill="white"/>
</svg>
