<svg width="19" height="18" viewBox="0 0 19 18" fill="none" xmlns="http://www.w3.org/2000/svg">
<path d="M7.72607 16.7147V18.0004H10.2975V16.7147V12.8575H7.72607V16.7147Z" fill="#141C5C"/>
<path d="M18.012 5.63175L16.7263 0.488848C16.6911 0.346212 16.6081 0.219935 16.4912 0.13104C16.3742 0.0421445 16.2303 -0.00400565 16.0835 0.000272838H1.94048C1.79363 -0.00400565 1.64974 0.0421445 1.53278 0.13104C1.41581 0.219935 1.33282 0.346212 1.29762 0.488848L0.0118966 5.63175C-0.00396554 5.71673 -0.00396554 5.80391 0.0118966 5.88889C0.027503 6.37042 0.151153 6.84228 0.373703 7.26957C0.596253 7.69687 0.91201 8.06867 1.29762 8.35749V17.3576C1.29762 17.5281 1.36535 17.6916 1.48591 17.8121C1.60647 17.9327 1.76999 18.0004 1.94048 18.0004H6.44052V12.2147C6.44052 12.0442 6.50825 11.8806 6.62881 11.7601C6.74937 11.6395 6.91289 11.5718 7.08338 11.5718H10.9406C11.1111 11.5718 11.2746 11.6395 11.3951 11.7601C11.5157 11.8806 11.5834 12.0442 11.5834 12.2147V18.0004H16.0835C16.254 18.0004 16.4175 17.9327 16.538 17.8121C16.6586 17.6916 16.7263 17.5281 16.7263 17.3576V8.35749C17.1119 8.06867 17.4277 7.69687 17.6502 7.26957C17.8728 6.84228 17.9964 6.37042 18.012 5.88889C18.0279 5.80391 18.0279 5.71673 18.012 5.63175ZM15.7427 7.47676C15.4539 7.63729 15.1281 7.7193 14.7977 7.71462C14.3987 7.71483 14.0095 7.59129 13.6837 7.36101C13.3578 7.13074 13.1114 6.80507 12.9784 6.4289H16.617C16.4583 6.87625 16.1401 7.24935 15.7235 7.47676H15.7427ZM9.01197 7.71462C8.61298 7.71483 8.22374 7.59129 7.8979 7.36101C7.57207 7.13074 7.32567 6.80507 7.19267 6.4289H10.8313C10.6983 6.80507 10.4519 7.13074 10.126 7.36101C9.8002 7.59129 9.41097 7.71483 9.01197 7.71462ZM1.40691 6.4289H5.04551C4.91251 6.80507 4.66612 7.13074 4.34028 7.36101C4.01444 7.59129 3.6252 7.71483 3.22621 7.71462C2.90235 7.71596 2.58359 7.63405 2.30049 7.47676C1.88382 7.24935 1.56566 6.87625 1.40691 6.4289ZM2.44192 1.286H15.582L16.5463 5.14317H1.47762L2.44192 1.286Z" fill="#141C5C"/>
</svg>
