<svg width="24" height="27" viewBox="0 0 24 27" fill="none" xmlns="http://www.w3.org/2000/svg">
<path d="M21.3333 2.7H15.7533C15.2067 1.134 13.74 0 12 0C10.26 0 8.79333 1.134 8.24667 2.7H2.66667C1.19333 2.7 0 3.90825 0 5.4V24.3C0 25.7917 1.19333 27 2.66667 27H21.3333C22.8067 27 24 25.7917 24 24.3V5.4C24 3.90825 22.8067 2.7 21.3333 2.7ZM12 2.7C12.7333 2.7 13.3333 3.30075 13.3333 4.05C13.3333 4.79925 12.7333 5.4 12 5.4C11.2667 5.4 10.6667 4.79925 10.6667 4.05C10.6667 3.30075 11.2667 2.7 12 2.7ZM14.6667 21.6H5.33333V18.9H14.6667V21.6ZM18.6667 16.2H5.33333V13.5H18.6667V16.2ZM18.6667 10.8H5.33333V8.1H18.6667V10.8Z" fill="#969696"/>
</svg>
