<svg width="25" height="30" viewBox="0 0 25 30" fill="none" xmlns="http://www.w3.org/2000/svg">
<path d="M24.6094 1.5V24.4688H0.046875V6.46875L6.51563 0H23.1563C23.9531 0 24.6094 0.703125 24.6094 1.5Z" fill="#EFF2F3"/>
<path d="M5.15674 6.46875H0.0942383L6.51612 0L6.46924 5.0625C6.51612 5.85938 5.90674 6.46875 5.15674 6.46875Z" fill="#DADEDE"/>
<path d="M14.7188 13.125C13.3594 11.8125 12.375 10.3125 12.375 10.3125C12.75 9.74997 13.6406 6.51559 12.2813 5.57809C10.9219 4.64059 10.2188 6.37497 10.2188 6.37497C9.60938 8.53122 11.0625 10.5 11.0625 10.5L9.42188 14.1093C9.23438 14.1093 4.03125 16.125 5.8125 18.6093C7.64063 21.0937 10.1719 15.0937 10.1719 15.0937C11.1563 14.7656 14.1563 14.3437 14.1563 14.3437C15.3281 15.9375 16.7344 16.4531 16.7344 16.4531C18.8906 17.0156 19.125 15.2343 19.125 15.2343C19.1719 12.8906 14.7188 13.125 14.7188 13.125ZM6.70313 17.7656C6.65625 17.7656 6.65625 17.7187 6.65625 17.7187C6.375 17.0625 8.53125 15.7968 8.53125 15.7968C8.53125 15.7968 7.35938 18.0468 6.70313 17.7656ZM11.5781 6.42184C12.1875 6.98434 11.6719 8.90622 11.6719 8.90622C11.6719 8.90622 10.9688 6.98434 11.5781 6.42184ZM11.0156 13.6875L11.8594 11.625L13.1719 13.2187L11.0156 13.6875ZM17.9531 15.1875C17.5781 15.7968 16.0313 14.4843 15.8906 14.3437C16.125 14.3437 18.1406 14.4843 17.9531 15.1875ZM24.6094 22.9687V28.5C24.6094 29.2969 23.9531 30 23.1094 30H1.5C0.703125 30 0 29.3437 0 28.5V22.9687H24.6094Z" fill="#F2786B"/>
<path d="M10.4063 25.4063C10.4063 25.7813 10.2656 26.0626 10.0313 26.2969C9.79688 26.4844 9.42188 26.5782 8.95312 26.5782H8.57812V27.9376H7.96875V24.3282H9.04688C9.51563 24.3282 9.84375 24.4219 10.0781 24.6094C10.3125 24.7969 10.4063 25.0313 10.4063 25.4063ZM8.625 26.1094H8.95312C9.23437 26.1094 9.46875 26.0626 9.60938 25.9688C9.75 25.8751 9.84375 25.6876 9.84375 25.4532C9.84375 25.2657 9.79688 25.0782 9.65625 24.9844C9.51563 24.8907 9.32813 24.8438 9.04688 24.8438H8.625V26.1094ZM14.1094 26.1094C14.1094 26.7188 13.9219 27.1876 13.5938 27.4688C13.2656 27.7969 12.7969 27.9376 12.1406 27.9376H11.1094V24.3282H12.2344C12.7969 24.3282 13.2656 24.4688 13.5938 24.7969C13.9219 25.0782 14.1094 25.5469 14.1094 26.1094ZM13.4531 26.1094C13.4531 25.2188 13.0313 24.7969 12.2344 24.7969H11.7188V27.4219H12.1406C13.0313 27.4688 13.4531 27.0001 13.4531 26.1094ZM15.4688 27.9376H14.8594V24.3282H16.9219V24.8438H15.4688V25.9688H16.8281V26.4844H15.4688V27.9376Z" fill="#EFF2F3"/>
</svg>
