<svg width="16" height="16" viewBox="0 0 16 16" fill="none" xmlns="http://www.w3.org/2000/svg">
<path d="M1.33339 16.0001C1.67459 16.0001 2.01566 15.8698 2.27606 15.6094L15.6093 2.27611C16.1301 1.75531 16.1301 0.91158 15.6093 0.390648C15.0885 -0.130283 14.2448 -0.130149 13.7239 0.390648L0.390598 13.7239C-0.130199 14.2447 -0.130199 15.0885 0.390598 15.6094C0.651131 15.8698 0.992196 16.0001 1.33339 16.0001ZM2.44406 4.88876C3.79298 4.88876 4.88938 3.79237 4.88938 2.44477C4.88938 1.09651 3.79298 0.000116558 2.44406 0.000116558C1.09646 0.000116558 6.65483e-05 1.09651 6.65483e-05 2.44477C6.65483e-05 3.79237 1.09646 4.88876 2.44406 4.88876ZM2.44406 2.22211C2.56646 2.22211 2.66672 2.32171 2.66672 2.44477C2.66672 2.68957 2.22272 2.68957 2.22272 2.44477C2.22272 2.32171 2.32166 2.22211 2.44406 2.22211ZM13.556 11.1114C12.2071 11.1114 11.1107 12.2078 11.1107 13.5554C11.1107 14.9037 12.2071 16.0001 13.556 16.0001C14.9036 16.0001 16 14.9037 16 13.5554C16 12.2078 14.9036 11.1114 13.556 11.1114ZM13.3333 13.5554C13.3333 13.433 13.4336 13.3334 13.556 13.3334C13.6784 13.3334 13.7773 13.433 13.7773 13.5554C13.7773 13.8015 13.3333 13.8015 13.3333 13.5554Z" fill="#141C5C"/>
</svg>
