<svg width="23" height="23" viewBox="0 0 23 23" fill="none" xmlns="http://www.w3.org/2000/svg">
<path fill-rule="evenodd" clip-rule="evenodd" d="M22.5866 19.9264C21.8767 22.0837 19.0952 23.1601 17.108 22.9807C14.394 22.7354 11.4407 21.2956 9.19899 19.7102C5.90383 17.3796 2.81721 13.7749 1.0186 9.94938C-0.252547 7.24621 -0.537749 3.92206 1.35287 1.45808C2.05207 0.547316 2.80954 0.0612664 3.94422 0.00453512C5.5205 -0.0721288 5.7413 0.829439 6.28257 2.23392C6.68584 3.28422 7.22405 4.35598 7.52458 5.44461C8.08732 7.4762 6.12004 7.56053 5.87163 9.22107C5.7183 10.2683 6.98638 11.6728 7.55985 12.4195C8.66521 13.8738 10.019 15.1211 11.5588 16.104C12.4328 16.6544 13.8404 17.6464 14.8402 17.0991C16.3797 16.2558 16.2355 13.6599 18.3868 14.5385C19.5015 14.9923 20.581 15.647 21.6452 16.2205C23.2904 17.1052 23.2138 18.0221 22.5866 19.9264C23.0558 18.5035 22.1174 21.3493 22.5866 19.9264Z" fill="#2E66C2"/>
</svg>
