<svg width="16" height="19" viewBox="0 0 16 19" fill="none" xmlns="http://www.w3.org/2000/svg">
<path d="M11.1295 4.79418C11.1295 4.97139 11.1176 5.1486 11.0958 5.32379C11.1057 5.25331 11.1156 5.18082 11.1235 5.11034C11.076 5.46073 10.985 5.80105 10.8524 6.12727C10.8781 6.06283 10.9058 5.99839 10.9315 5.93396C10.7989 6.25213 10.6287 6.55016 10.4208 6.82403L10.5455 6.66092C10.3397 6.93076 10.1002 7.17442 9.83492 7.38385L9.99526 7.25698C9.72605 7.46641 9.4331 7.64161 9.12034 7.77653C9.18369 7.75035 9.24703 7.72216 9.31037 7.69598C8.9897 7.8309 8.65517 7.92353 8.31075 7.97186C8.38003 7.96179 8.45129 7.95172 8.52057 7.94367C8.17417 7.98998 7.82578 7.98998 7.47938 7.94367C7.54866 7.95374 7.61992 7.96381 7.6892 7.97186C7.34478 7.92353 7.01025 7.8309 6.68958 7.69598C6.75292 7.72216 6.81627 7.75035 6.87961 7.77653C6.56685 7.64161 6.2739 7.46843 6.00469 7.25698L6.16503 7.38385C5.89978 7.17442 5.66027 6.93076 5.4544 6.66092L5.57911 6.82403C5.37325 6.55016 5.20104 6.25213 5.06841 5.93396C5.09414 5.99839 5.12186 6.06283 5.14759 6.12727C5.01497 5.80105 4.92391 5.46073 4.87641 5.11034C4.8863 5.18082 4.8962 5.25331 4.90412 5.32379C4.85859 4.97139 4.85859 4.61697 4.90412 4.26456C4.89422 4.33505 4.88432 4.40754 4.87641 4.47802C4.92391 4.12763 5.01497 3.78731 5.14759 3.46108C5.12186 3.52552 5.09414 3.58996 5.06841 3.6544C5.20104 3.33623 5.37127 3.0382 5.57911 2.76433L5.4544 2.92744C5.66027 2.6576 5.89978 2.41394 6.16503 2.20451L6.00469 2.33137C6.2739 2.12194 6.56685 1.94675 6.87961 1.81183C6.81627 1.83801 6.75292 1.8662 6.68958 1.89238C7.01025 1.75746 7.34478 1.66482 7.6892 1.61649C7.61992 1.62656 7.54866 1.63663 7.47938 1.64469C7.82578 1.59837 8.17417 1.59837 8.52057 1.64469C8.45129 1.63462 8.38003 1.62455 8.31075 1.61649C8.65517 1.66482 8.9897 1.75746 9.31037 1.89238C9.24703 1.8662 9.18369 1.83801 9.12034 1.81183C9.4331 1.94675 9.72605 2.11993 9.99526 2.33137L9.83492 2.20451C10.1002 2.41394 10.3397 2.6576 10.5455 2.92744L10.4208 2.76433C10.6267 3.0382 10.7989 3.33623 10.9315 3.6544C10.9058 3.58996 10.8781 3.52552 10.8524 3.46108C10.985 3.78731 11.076 4.12763 11.1235 4.47802C11.1136 4.40754 11.1038 4.33505 11.0958 4.26456C11.1176 4.43976 11.1275 4.61697 11.1295 4.79418C11.1315 5.21505 11.4917 5.61981 11.9213 5.59967C12.3488 5.57954 12.715 5.24526 12.713 4.79418C12.7091 3.8296 12.424 2.84286 11.8658 2.0575C11.7154 1.84606 11.5551 1.63865 11.3769 1.45137C11.1968 1.26208 10.9988 1.09896 10.793 0.939878C10.4189 0.649899 10.0012 0.436443 9.5578 0.271316C7.77036 -0.395232 5.61474 0.198821 4.4053 1.69704C4.23902 1.90245 4.08067 2.1159 3.94607 2.34547C3.81146 2.57302 3.70655 2.81467 3.60956 3.06035C3.42745 3.51545 3.33442 3.99875 3.29681 4.48809C3.22357 5.44663 3.46902 6.44746 3.95992 7.26906C4.43301 8.06248 5.14759 8.74312 5.98292 9.12775C6.22837 9.24052 6.47976 9.34523 6.74105 9.41974C7.00035 9.49224 7.26362 9.53251 7.53085 9.56473C8.01779 9.62313 8.51463 9.58285 8.99564 9.48418C10.8227 9.1056 12.3528 7.50467 12.6358 5.62585C12.6774 5.35198 12.7091 5.07812 12.7091 4.80022C12.7111 4.37935 12.3429 3.97459 11.9173 3.99472C11.4897 4.00882 11.1295 4.3431 11.1295 4.79418ZM13.7562 17.3861H3.59966C3.15033 17.3861 2.70099 17.3901 2.25166 17.3861C2.20217 17.3861 2.15268 17.3821 2.10518 17.376C2.17446 17.3861 2.24572 17.3962 2.315 17.4042C2.23582 17.3921 2.1606 17.37 2.08736 17.3398C2.15071 17.366 2.21405 17.3942 2.27739 17.4203C2.19821 17.3861 2.12497 17.3418 2.05569 17.2874L2.21603 17.4143C2.15664 17.3639 2.10122 17.3096 2.05371 17.2492L2.17842 17.4123C2.12497 17.3418 2.0834 17.2673 2.04777 17.1867C2.07351 17.2512 2.10122 17.3156 2.12695 17.3801C2.09726 17.3055 2.07747 17.227 2.06361 17.1485C2.07351 17.219 2.0834 17.2915 2.09132 17.3619C2.05965 17.1183 2.08142 16.8605 2.08142 16.6148V15.753C2.08142 15.5375 2.0933 15.324 2.12101 15.1106C2.11112 15.1811 2.10122 15.2535 2.0933 15.324C2.14873 14.9112 2.25562 14.5064 2.41595 14.1218C2.39022 14.1863 2.36251 14.2507 2.33677 14.3151C2.49117 13.9486 2.68912 13.6043 2.92863 13.2881L2.80392 13.4512C3.04344 13.1391 3.31858 12.8572 3.62737 12.6135L3.46704 12.7404C3.77781 12.4967 4.1163 12.2954 4.47656 12.1383C4.41321 12.1645 4.34987 12.1927 4.28653 12.2188C4.6646 12.0577 5.06049 11.947 5.46826 11.8906C5.39898 11.9007 5.32772 11.9107 5.25844 11.9188C5.5514 11.8805 5.84238 11.8785 6.13731 11.8785H9.75971C10.0863 11.8785 10.4109 11.8765 10.7376 11.9188C10.6683 11.9087 10.597 11.8987 10.5277 11.8906C10.9335 11.947 11.3314 12.0557 11.7095 12.2188C11.6461 12.1927 11.5828 12.1645 11.5194 12.1383C11.8797 12.2954 12.2182 12.4967 12.529 12.7404L12.3686 12.6135C12.6754 12.8572 12.9526 13.1371 13.1921 13.4512L13.0674 13.2881C13.3069 13.6043 13.5048 13.9486 13.6592 14.3151C13.6335 14.2507 13.6058 14.1863 13.58 14.1218C13.7384 14.5064 13.8473 14.9092 13.9027 15.324C13.8928 15.2535 13.8829 15.1811 13.875 15.1106C13.9126 15.4146 13.9146 15.7167 13.9146 16.0228V17.0196C13.9146 17.1344 13.9185 17.2492 13.9047 17.3619C13.9146 17.2915 13.9245 17.219 13.9324 17.1485C13.9205 17.229 13.8987 17.3055 13.869 17.3801C13.8948 17.3156 13.9225 17.2512 13.9482 17.1867C13.9146 17.2673 13.871 17.3418 13.8176 17.4123L13.9423 17.2492C13.8928 17.3096 13.8393 17.366 13.78 17.4143L13.9403 17.2874C13.871 17.3418 13.7978 17.3841 13.7186 17.4203C13.7819 17.3942 13.8453 17.366 13.9086 17.3398C13.8354 17.37 13.7582 17.3901 13.681 17.4042C13.7503 17.3942 13.8215 17.3841 13.8908 17.376C13.8473 17.3821 13.8017 17.3841 13.7562 17.3861C13.5523 17.3881 13.3425 17.4747 13.196 17.6217C13.0594 17.7607 12.9545 17.9902 12.9644 18.1916C12.9842 18.6225 13.3128 19.0031 13.7562 18.9971C14.5262 18.985 15.2032 18.4735 15.4288 17.7224C15.5179 17.4244 15.4981 17.1042 15.4981 16.7981C15.4981 16.0973 15.5199 15.4026 15.4011 14.7078C15.2269 13.6909 14.7242 12.7344 14.0353 11.9832C13.3465 11.2321 12.4201 10.6803 11.4403 10.4347C10.8781 10.2937 10.312 10.2716 9.73793 10.2716H6.22639C5.63849 10.2716 5.05456 10.2997 4.4825 10.4548C3.51059 10.7166 2.59608 11.2744 1.92109 12.0316C1.24016 12.7948 0.747276 13.7533 0.586941 14.7763C0.480051 15.463 0.501825 16.1517 0.501825 16.8444C0.501825 17.1626 0.48401 17.4948 0.596838 17.7989C0.743317 18.1896 0.976892 18.4977 1.31934 18.7293C1.58656 18.9085 1.92505 18.9951 2.24176 18.9991C2.39616 19.0011 2.55055 18.9991 2.70495 18.9991H13.7582C14.1719 18.9991 14.5698 18.6286 14.55 18.1936C14.5302 17.7546 14.2016 17.3861 13.7562 17.3861Z" fill="black"/>
</svg>
