<svg width="21" height="26" viewBox="0 0 21 26" fill="none" xmlns="http://www.w3.org/2000/svg">
<path d="M10.4231 25.025C10.461 25.025 10.4989 25.025 10.5368 24.9871C16.7149 22.9025 20.8463 17.1413 20.8463 10.6221V3.98922C20.8463 3.7618 20.6947 3.61019 20.4672 3.61019C14.5166 3.61019 10.9159 0.236889 10.6505 0.0852802C10.4989 -0.0284267 10.3473 -0.0284267 10.1957 0.0852802C9.93041 0.236889 6.29178 3.61019 0.379023 3.61019C0.151609 3.61019 0 3.7618 0 3.98922V10.6221C0 17.1413 4.13135 22.9025 10.3094 25.025C10.3473 25.025 10.3852 25.025 10.4231 25.025ZM0.758046 10.6221V4.36824C6.595 4.21663 10.2336 0.957033 10.4231 0.843326C10.6505 0.957033 14.2134 4.21663 20.0882 4.36824V10.6221C20.0882 16.7623 16.2222 22.2202 10.4231 24.267C4.62408 22.2202 0.758046 16.7623 0.758046 10.6221Z" fill="#212121"/>
<path d="M10.573 22.9783C15.6519 20.9695 18.9494 16.118 18.9494 10.6222V5.80858C18.9494 5.61907 18.7978 5.46746 18.6083 5.42955C15.7277 5.12634 12.9608 4.10297 10.6109 2.43527C10.4972 2.35947 10.3077 2.35947 10.194 2.43527C7.84404 4.06507 5.07717 5.08843 2.19659 5.42955C2.00708 5.46746 1.85547 5.61907 1.85547 5.80858V10.6222C1.85547 16.118 5.15297 20.9695 10.2698 22.9783C10.3077 22.9783 10.3456 23.0162 10.4214 23.0162C10.4972 23.0162 10.4972 23.0162 10.573 22.9783ZM2.65142 10.6222V6.1118C5.41829 5.77067 8.10935 4.74731 10.4214 3.19332C12.7334 4.74731 15.4245 5.77067 18.1914 6.1118V10.5843C18.1914 15.739 15.1592 20.2873 10.4214 22.2203C5.6836 20.2873 2.65142 15.739 2.65142 10.6222Z" fill="#212121"/>
<path d="M14.9348 9.56073C14.7832 9.40912 14.5558 9.40912 14.4042 9.56073L8.79464 15.1324L6.5584 12.8961C6.40679 12.7445 6.17938 12.7445 6.02777 12.8961C5.87616 13.0477 5.87616 13.2752 6.02777 13.4268L8.52932 15.9283C8.60513 16.0041 8.68093 16.042 8.79464 16.042C8.90835 16.042 8.98415 16.0041 9.05995 15.9283L14.9348 10.0535C15.0864 9.93975 15.0864 9.71234 14.9348 9.56073Z" fill="#212121"/>
</svg>
