<svg width="42" height="39" viewBox="0 0 42 39" fill="none" xmlns="http://www.w3.org/2000/svg">
<path d="M41.0454 33.1501H39.1377V17.5502H41.0454C41.1903 17.551 41.3335 17.5181 41.4641 17.4539C41.5946 17.3897 41.7092 17.2959 41.799 17.1797C41.8882 17.0626 41.95 16.9261 41.9798 16.7808C42.0095 16.6355 42.0064 16.4851 41.9707 16.3412L38.1552 0.741406C38.1041 0.530025 37.9852 0.342221 37.8175 0.207928C37.6499 0.0736347 37.443 0.000582106 37.23 0.000413798H4.79862C4.58073 -0.00607513 4.36723 0.0639177 4.19368 0.19874C4.02012 0.333562 3.89698 0.525079 3.84476 0.741406L0.0293039 16.3412C-0.00642115 16.4851 -0.00952444 16.6355 0.0202308 16.7808C0.0499861 16.9261 0.111814 17.0626 0.200999 17.1797C0.293764 17.2999 0.412913 17.3961 0.548799 17.4605C0.684686 17.5248 0.833491 17.5556 0.983168 17.5502H2.8909V33.1501H0.983168C0.730187 33.1501 0.487568 33.2528 0.308684 33.4356C0.1298 33.6185 0.0293039 33.8665 0.0293039 34.125V38.025C0.0293039 38.2836 0.1298 38.5316 0.308684 38.7144C0.487568 38.8973 0.730187 39 0.983168 39H41.0454C41.2984 39 41.541 38.8973 41.7199 38.7144C41.8988 38.5316 41.9993 38.2836 41.9993 38.025V34.125C41.9993 33.8665 41.8988 33.6185 41.7199 33.4356C41.541 33.2528 41.2984 33.1501 41.0454 33.1501ZM4.522 15.883C4.43287 15.7926 4.32717 15.7211 4.21095 15.6726C4.09474 15.6241 3.97029 15.5995 3.84476 15.6002H2.20411L5.54264 1.95039H36.486L39.8245 15.6002H38.1839C37.9309 15.6002 37.6883 15.703 37.5094 15.8858C37.3305 16.0687 37.23 16.3167 37.23 16.5752V33.1501H33.4145V17.1505L34.6927 18.2912L35.9518 16.8092L21.6439 4.13437C21.4698 3.97806 21.246 3.89186 21.0143 3.89186C20.7826 3.89186 20.5588 3.97806 20.3848 4.13437L6.0768 16.8092L7.3359 18.2912L8.61408 17.1505V33.1501H4.79862V16.5752C4.79935 16.4469 4.77529 16.3197 4.72782 16.2009C4.68035 16.0821 4.61041 15.9741 4.522 15.883ZM10.5218 15.4637L21.0143 6.16235L31.5068 15.4637V33.1501H10.5218V15.4637ZM40.0916 37.05H1.93703V35.1H40.0916V37.05ZM21.0143 12.6753C19.3164 12.6753 17.6566 13.1899 16.2449 14.1541C14.8331 15.1183 13.7328 16.4888 13.083 18.0922C12.4332 19.6956 12.2632 21.4599 12.5945 23.1621C12.9257 24.8643 13.7434 26.4278 14.944 27.655C16.1446 28.8822 17.6742 29.7179 19.3395 30.0565C21.0048 30.3951 22.7309 30.2213 24.2996 29.5571C25.8682 28.893 27.209 27.7683 28.1523 26.3253C29.0956 24.8822 29.5991 23.1857 29.5991 21.4502C29.5991 19.1229 28.6946 16.891 27.0847 15.2454C25.4747 13.5998 23.2911 12.6753 21.0143 12.6753ZM21.0143 28.2751C19.6937 28.2751 18.4028 27.8748 17.3047 27.1249C16.2067 26.375 15.3509 25.3091 14.8455 24.062C14.3402 22.8149 14.2079 21.4426 14.4656 20.1187C14.7232 18.7948 15.3591 17.5787 16.2929 16.6242C17.2267 15.6698 18.4165 15.0197 19.7117 14.7564C21.0069 14.4931 22.3494 14.6282 23.5695 15.1448C24.7896 15.6613 25.8324 16.5361 26.5661 17.6585C27.2998 18.7808 27.6914 20.1003 27.6914 21.4502C27.6914 23.2603 26.9879 24.9962 25.7357 26.2761C24.4835 27.5561 22.7852 28.2751 21.0143 28.2751ZM21.9682 17.5502H23.8759V19.5002H20.0604V20.4752H22.922C23.175 20.4752 23.4176 20.5779 23.5965 20.7608C23.7754 20.9436 23.8759 21.1916 23.8759 21.4502V24.3752C23.8759 24.6337 23.7754 24.8817 23.5965 25.0646C23.4176 25.2474 23.175 25.3501 22.922 25.3501H21.9682V26.3251H20.0604V25.3501H18.1527V23.4002H21.9682V22.4252H19.1066C18.8536 22.4252 18.611 22.3225 18.4321 22.1396C18.2532 21.9568 18.1527 21.7088 18.1527 21.4502V18.5252C18.1527 18.2666 18.2532 18.0186 18.4321 17.8358C18.611 17.653 18.8536 17.5502 19.1066 17.5502H20.0604V16.5752H21.9682V17.5502Z" fill="#141C5C"/>
</svg>
