<svg width="16" height="17" viewBox="0 0 16 17" fill="none" xmlns="http://www.w3.org/2000/svg">
<path d="M8 0.5C6.41775 0.5 4.87103 0.969192 3.55544 1.84824C2.23985 2.72729 1.21447 3.97672 0.608967 5.43853C0.00346625 6.90034 -0.15496 8.50887 0.153721 10.0607C0.462403 11.6126 1.22433 13.038 2.34315 14.1569C3.46197 15.2757 4.88743 16.0376 6.43928 16.3463C7.99113 16.655 9.59966 16.4965 11.0615 15.891C12.5233 15.2855 13.7727 14.2602 14.6518 12.9446C15.5308 11.629 16 10.0822 16 8.5C15.9982 6.37881 15.1548 4.345 13.6549 2.8451C12.155 1.34519 10.1212 0.501765 8 0.5ZM11.094 9.012L7.094 12.3453C7.02676 12.4014 6.94913 12.4438 6.86554 12.4699C6.78194 12.496 6.69403 12.5054 6.6068 12.4975C6.51958 12.4897 6.43475 12.4647 6.35718 12.4241C6.2796 12.3834 6.21079 12.3279 6.15467 12.2607C6.09855 12.1934 6.05623 12.1158 6.03011 12.0322C6.00399 11.9486 5.9946 11.8607 6.00246 11.7735C6.01032 11.6862 6.03529 11.6014 6.07593 11.5238C6.11657 11.4463 6.1721 11.3775 6.23934 11.3213L9.62467 8.5L6.23934 5.67867C6.1721 5.62255 6.11657 5.55374 6.07593 5.47616C6.03529 5.39858 6.01032 5.31376 6.00246 5.22653C5.9946 5.13931 6.00399 5.05139 6.03011 4.9678C6.05623 4.8842 6.09855 4.80657 6.15467 4.73933C6.21079 4.6721 6.2796 4.61657 6.35718 4.57593C6.43475 4.53528 6.51958 4.51032 6.6068 4.50246C6.69403 4.4946 6.78194 4.50399 6.86554 4.53011C6.94913 4.55622 7.02676 4.59855 7.094 4.65467L11.094 7.988C11.169 8.05057 11.2294 8.12886 11.2708 8.21733C11.3122 8.30581 11.3337 8.40231 11.3337 8.5C11.3337 8.59769 11.3122 8.69419 11.2708 8.78266C11.2294 8.87114 11.169 8.94943 11.094 9.012Z" fill="#212121"/>
</svg>
