<svg width="37" height="36" viewBox="0 0 37 36" fill="none" xmlns="http://www.w3.org/2000/svg">
<path d="M8.77697 16.7718C10.4121 16.7718 12.0104 16.287 13.37 15.3786C14.7295 14.4702 15.7891 13.179 16.4149 11.6684C17.0406 10.1578 17.2043 8.49549 16.8853 6.89182C16.5664 5.28814 15.779 3.81506 14.6228 2.65887C13.4666 1.50267 11.9936 0.715293 10.3899 0.396292C8.7862 0.0772912 7.12394 0.240998 5.61331 0.866712C4.10267 1.49242 2.8115 2.55204 1.90308 3.91157C0.994658 5.27109 0.509781 6.86946 0.509766 8.50456C0.512216 10.6964 1.38401 12.7978 2.93388 14.3477C4.48375 15.8976 6.58512 16.7694 8.77697 16.7718ZM8.77697 1.50337C10.1617 1.50337 11.5153 1.91399 12.6667 2.6833C13.818 3.45261 14.7154 4.54607 15.2453 5.82539C15.7752 7.10471 15.9139 8.51243 15.6437 9.87055C15.3736 11.2287 14.7067 12.4762 13.7276 13.4553C12.7484 14.4345 11.5009 15.1013 10.1428 15.3714C8.78469 15.6415 7.37696 15.5029 6.09765 14.9729C4.81834 14.443 3.72489 13.5456 2.95559 12.3943C2.18629 11.2429 1.77569 9.88928 1.7757 8.50456C1.7778 6.64836 2.5161 4.86878 3.82865 3.55626C5.14119 2.24373 6.92077 1.50544 8.77697 1.50337Z" fill="#141C5C"/>
<path d="M8.77714 12.0785C8.42079 12.0781 8.07916 11.9364 7.82718 11.6844C7.5752 11.4324 7.43345 11.0908 7.43303 10.7345C7.43303 10.5666 7.36634 10.4056 7.24764 10.2869C7.12893 10.1682 6.96793 10.1015 6.80006 10.1015C6.63219 10.1015 6.47119 10.1682 6.35248 10.2869C6.23378 10.4056 6.16709 10.5666 6.16709 10.7345C6.16793 11.3234 6.36764 11.8948 6.73383 12.3561C7.10003 12.8174 7.61126 13.1415 8.18468 13.2758V13.8463C8.18468 14.0142 8.25137 14.1752 8.37007 14.2939C8.48878 14.4126 8.64977 14.4793 8.81765 14.4793C8.98552 14.4793 9.14652 14.4126 9.26523 14.2939C9.38393 14.1752 9.45062 14.0142 9.45062 13.8463V13.2559C10.0625 13.0924 10.594 12.712 10.9462 12.1856C11.2983 11.6592 11.4471 11.0227 11.3647 10.3948C11.2822 9.76681 10.9743 9.19025 10.4982 8.77255C10.0222 8.35484 9.41048 8.12449 8.77714 8.12443C8.5113 8.12444 8.25142 8.04562 8.03037 7.89794C7.80932 7.75026 7.63703 7.54034 7.53529 7.29474C7.43354 7.04914 7.40691 6.77888 7.45877 6.51814C7.51062 6.25741 7.63863 6.0179 7.8266 5.82992C8.01458 5.64193 8.25407 5.51391 8.51481 5.46204C8.77554 5.41017 9.0458 5.43678 9.29141 5.53851C9.53702 5.64024 9.74694 5.81252 9.89464 6.03356C10.0423 6.2546 10.1212 6.51447 10.1212 6.78032C10.1212 6.94819 10.1879 7.10919 10.3066 7.22789C10.4253 7.3466 10.5863 7.41329 10.7541 7.41329C10.922 7.41329 11.083 7.3466 11.2017 7.22789C11.3204 7.10919 11.3871 6.94819 11.3871 6.78032C11.3863 6.20562 11.1962 5.64719 10.8462 5.19139C10.4961 4.7356 10.0057 4.40784 9.45062 4.25881V3.63968C9.45062 3.47181 9.38393 3.31081 9.26523 3.19211C9.14652 3.0734 8.98552 3.00671 8.81765 3.00671C8.64977 3.00671 8.48878 3.0734 8.37007 3.19211C8.25137 3.31081 8.18468 3.47181 8.18468 3.63968V4.23895C7.5608 4.38427 7.01216 4.75398 6.64324 5.27766C6.27432 5.80135 6.1109 6.44242 6.18409 7.07881C6.25728 7.7152 6.56197 8.30244 7.04014 8.7287C7.51831 9.15496 8.13656 9.39047 8.77714 9.39037C9.13182 9.39309 9.47105 9.53589 9.72089 9.78766C9.97074 10.0394 10.1109 10.3797 10.1109 10.7344C10.1109 11.0891 9.97074 11.4294 9.72089 11.6812C9.47105 11.933 9.13182 12.0758 8.77714 12.0785Z" fill="#141C5C"/>
<path d="M26.7718 16.4785C26.6567 16.3786 26.5096 16.3236 26.3572 16.3235C26.2049 16.3234 26.0576 16.3782 25.9424 16.478L16.6358 24.5374C16.5383 24.6208 16.4689 24.7322 16.437 24.8565C16.4052 24.9807 16.4124 25.1118 16.4577 25.2318C16.503 25.3518 16.5842 25.4549 16.6902 25.5271C16.7963 25.5993 16.922 25.6371 17.0502 25.6353H18.5491V35.2354C18.5475 35.3172 18.5622 35.3986 18.5922 35.4748C18.6222 35.551 18.667 35.6206 18.7239 35.6794C18.7809 35.7382 18.849 35.7852 18.9242 35.8176C18.9994 35.85 19.0803 35.8673 19.1621 35.8683L33.3645 36.0001H33.3704C33.4511 36.0001 33.531 35.9838 33.6053 35.9523C33.6796 35.9209 33.7469 35.8748 33.803 35.8168C33.8607 35.7573 33.9058 35.6869 33.9358 35.6097C33.9658 35.5324 33.9801 35.45 33.9777 35.3672V25.6353H35.6393C35.7677 25.6368 35.8936 25.5987 35.9997 25.5263C36.1057 25.4538 36.187 25.3505 36.2323 25.2303C36.2776 25.11 36.2848 24.9788 36.253 24.8543C36.2211 24.7299 36.1518 24.6182 36.0543 24.5345L26.7718 16.4785ZM26.3562 17.7807L33.9447 24.3693H18.748L26.3562 17.7807ZM28.1228 34.6853L24.6414 34.6537V30.7782H28.1228V34.6853ZM32.7118 34.7284L29.3887 34.6967V30.1117C29.3887 29.7622 29.0766 29.5122 28.727 29.5122H24.0382C23.6887 29.5122 23.3755 29.7622 23.3755 30.1117V34.6418L19.8151 34.6082V25.6353H32.7118V34.7284Z" fill="#141C5C"/>
<path d="M24.2848 11.6257C24.3723 11.7146 24.4844 11.7752 24.6066 11.7998C24.7288 11.8244 24.8556 11.8119 24.9707 11.7639C25.0858 11.7159 25.1839 11.6346 25.2523 11.5304C25.3208 11.4262 25.3566 11.3039 25.355 11.1793V8.54865C26.5419 8.51399 28.8721 8.89227 30.7299 11.9819L31.0507 12.5121C31.1174 12.6229 31.2163 12.7106 31.3342 12.7637C31.4521 12.8167 31.5834 12.8325 31.7105 12.8089C31.8376 12.7852 31.9545 12.7233 32.0455 12.6315C32.1365 12.5396 32.1972 12.4221 32.2196 12.2948L32.3258 11.6856C32.3274 11.6761 32.3289 11.6666 32.3301 11.6571C32.4363 10.95 32.8016 7.2907 29.5758 4.60897C29.4667 4.50904 29.0579 4.16708 28.3212 3.83817C27.4491 3.44834 26.4627 3.22348 25.355 3.16738V0.63321C25.3563 0.50859 25.3204 0.386418 25.2519 0.282303C25.1834 0.178187 25.0854 0.0968537 24.9705 0.0486931C24.8556 0.000532435 24.7289 -0.0122692 24.6066 0.0119236C24.4844 0.0361164 24.3721 0.0962052 24.2841 0.184514L19.0126 5.43104C18.8938 5.54958 18.8269 5.71048 18.8267 5.87834C18.8264 6.0462 18.8929 6.20727 19.0114 6.32613L24.2848 11.6257ZM24.0891 2.1559V3.78642C24.0912 3.95669 24.1598 4.11938 24.2802 4.23981C24.4005 4.36023 24.5632 4.42885 24.7335 4.43102H24.8126C27.4548 4.43102 28.6753 5.50652 28.7172 5.54473C28.7292 5.55628 28.7417 5.56459 28.7546 5.57527C30.6051 7.1073 31.0448 9.05724 31.1163 10.2939C30.1284 9.00715 28.9525 8.11886 27.6088 7.64801C26.9268 7.40867 26.2095 7.28585 25.4867 7.28469C25.1988 7.28347 24.9112 7.30477 24.6267 7.34838C24.4775 7.372 24.3415 7.44779 24.243 7.56225C24.1445 7.67671 24.0898 7.82242 24.0886 7.97344V9.64598L20.3442 5.88195L24.0891 2.1559Z" fill="#141C5C"/>
<path d="M10.2843 24.1375C10.1968 24.0487 10.0847 23.9881 9.96246 23.9635C9.84023 23.9388 9.71343 23.9513 9.59836 23.9993C9.48328 24.0473 9.3852 24.1287 9.3167 24.2328C9.24821 24.337 9.21244 24.4593 9.214 24.584V27.2146C8.02718 27.2498 5.69699 26.8711 3.83914 23.7813L3.51831 23.2512C3.45167 23.1405 3.35279 23.0527 3.23491 22.9997C3.11702 22.9467 2.98576 22.9309 2.85868 22.9545C2.7316 22.9782 2.61477 23.04 2.52382 23.1319C2.43287 23.2237 2.37215 23.3412 2.34977 23.4685L2.24343 24.0777C2.24185 24.0872 2.24026 24.0967 2.239 24.1062C2.13282 24.8133 1.76744 28.4726 4.9932 31.1543C5.10231 31.2542 5.51121 31.5962 6.24783 31.9251C7.11998 32.3149 8.10631 32.5398 9.214 32.5959V35.1301C9.21285 35.2546 9.24878 35.3767 9.31721 35.4808C9.38564 35.5848 9.48348 35.6662 9.59829 35.7145C9.67425 35.7465 9.75584 35.763 9.83827 35.763C10.0052 35.7631 10.1654 35.6968 10.2835 35.5788L15.5558 30.3322C15.6747 30.2138 15.7417 30.0529 15.742 29.885C15.7423 29.7172 15.6759 29.5561 15.5575 29.4371L10.2843 24.1375ZM10.4799 33.6074V31.9768C10.4778 31.8066 10.4093 31.6439 10.2889 31.5235C10.1685 31.403 10.0058 31.3344 9.83558 31.3322H9.75646C7.11381 31.3322 5.89376 30.2568 5.85183 30.2185C5.8398 30.207 5.82738 30.1987 5.81448 30.188C3.9636 28.656 3.52392 26.706 3.4524 25.4694C4.44031 26.7561 5.6162 27.6444 6.95992 28.1153C7.91511 28.4548 8.93844 28.5576 9.94207 28.4147C10.0912 28.3911 10.2271 28.3154 10.3256 28.201C10.4241 28.0867 10.4789 27.9411 10.4801 27.7902V26.1176L14.225 29.8813L10.4799 33.6074Z" fill="#141C5C"/>
</svg>
