<svg width="24" height="24" viewBox="0 0 24 24" fill="none" xmlns="http://www.w3.org/2000/svg">
<path d="M23.8679 4.55838L19.4416 0.132124C19.2655 -0.0440415 18.9798 -0.0440415 18.8036 0.132124L14.0394 4.89636L11.7536 7.18214L9.46812 9.46765L1.46793 17.4678L0.132096 18.8036C0.0475142 18.8882 0 19.003 0 19.1226C0 19.2422 0.0475142 19.357 0.132096 19.4416L4.55835 23.8679C4.64645 23.956 4.7619 24 4.87734 24C4.99278 24 5.10827 23.956 5.19633 23.8679L23.8679 5.19632C24.044 5.0202 24.044 4.73454 23.8679 4.55838ZM4.87734 22.9109L1.08908 19.1227L1.78693 18.4248L2.71964 19.3575C2.80774 19.4456 2.92318 19.4897 3.03863 19.4897C3.15407 19.4897 3.26956 19.4456 3.35762 19.3575C3.53379 19.1814 3.53379 18.8957 3.35762 18.7195L2.42491 17.7868L2.92973 17.2819L3.31977 17.6719C3.40788 17.76 3.52332 17.8041 3.63877 17.8041C3.75421 17.8041 3.8697 17.76 3.95776 17.6719C4.13392 17.4958 4.13392 17.2101 3.95776 17.0339L3.56776 16.6439L4.07262 16.1391L5.00528 17.0718C5.04712 17.1137 5.09684 17.147 5.15159 17.1697C5.20633 17.1924 5.26502 17.204 5.32427 17.2039C5.38353 17.204 5.44221 17.1924 5.49695 17.1697C5.5517 17.147 5.60142 17.1137 5.64327 17.0718C5.81943 16.8956 5.81948 16.61 5.64327 16.4338L4.7106 15.5011L5.21542 14.9963L5.60542 15.3863C5.69352 15.4744 5.80896 15.5184 5.92441 15.5184C6.03985 15.5184 6.15534 15.4744 6.2434 15.3863C6.41957 15.2101 6.41957 14.9245 6.2434 14.7483L5.8534 14.3582L6.35826 13.8534L7.29101 14.7861C7.37912 14.8742 7.49456 14.9182 7.61001 14.9182C7.72545 14.9182 7.84094 14.8742 7.929 14.7861C8.10517 14.6099 8.10517 14.3243 7.929 14.1481L6.99629 13.2154L7.50115 12.7106L7.89115 13.1006C7.97926 13.1887 8.0947 13.2327 8.21014 13.2327C8.32559 13.2327 8.44108 13.1887 8.52914 13.1006C8.7053 12.9244 8.7053 12.6388 8.52914 12.4626L8.13914 12.0726L8.64395 11.5677L9.57666 12.5005C9.66476 12.5886 9.78021 12.6326 9.89565 12.6326C10.0111 12.6326 10.1266 12.5885 10.2146 12.5005C10.3908 12.3243 10.3908 12.0386 10.2146 11.8625L9.28194 10.9298L9.78679 10.4249L10.1768 10.8149C10.2649 10.9031 10.3803 10.9471 10.4958 10.9471C10.6112 10.9471 10.7267 10.9031 10.8148 10.8149C10.9909 10.6388 10.9909 10.3531 10.8148 10.1769L10.4248 9.78691L10.9296 9.28206L11.8623 10.2148C11.9041 10.2567 11.9539 10.29 12.0086 10.3127C12.0634 10.3353 12.122 10.347 12.1813 10.3469C12.2405 10.347 12.2992 10.3353 12.354 10.3127C12.4087 10.29 12.4584 10.2567 12.5003 10.2148C12.6765 10.0386 12.6765 9.75294 12.5003 9.57678L11.5676 8.64407L12.0724 8.13926L12.4624 8.52926C12.5505 8.61736 12.6659 8.66139 12.7814 8.66139C12.8968 8.66139 13.0123 8.61736 13.1004 8.52926C13.2765 8.35309 13.2765 8.06744 13.1004 7.89123L12.7104 7.50122L13.2152 6.99637L14.1479 7.92908C14.1897 7.97103 14.2395 8.0043 14.2942 8.02698C14.349 8.04966 14.4076 8.06129 14.4669 8.06121C14.5261 8.06128 14.5848 8.04965 14.6396 8.02697C14.6943 8.0043 14.744 7.97103 14.7859 7.92908C14.9621 7.75291 14.9621 7.46725 14.7859 7.29109L13.8532 6.35838L14.358 5.85352L14.748 6.24352C14.8361 6.33163 14.9516 6.37566 15.067 6.37566C15.1825 6.37566 15.298 6.33163 15.386 6.24352C15.5622 6.06736 15.5622 5.7817 15.386 5.60549L14.996 5.21549L15.5008 4.71068L16.4335 5.64334C16.5217 5.73145 16.6371 5.77548 16.7525 5.77548C16.868 5.77548 16.9835 5.7314 17.0715 5.64334C17.2477 5.46717 17.2477 5.18152 17.0715 5.00535L16.1391 4.07265L16.644 3.56779L17.0339 3.95779C17.0757 3.99974 17.1255 4.03302 17.1802 4.05569C17.235 4.07837 17.2936 4.09 17.3529 4.08992C17.4122 4.09 17.4708 4.07836 17.5256 4.05568C17.5803 4.03301 17.63 3.99974 17.6719 3.95779C17.8481 3.78162 17.8481 3.49597 17.6719 3.3198L17.2819 2.9298L17.7868 2.42494L18.7194 3.35765C18.7613 3.39961 18.811 3.43288 18.8657 3.45555C18.9205 3.47823 18.9792 3.48986 19.0384 3.48979C19.0977 3.48986 19.1563 3.47822 19.2111 3.45555C19.2658 3.43287 19.3156 3.3996 19.3574 3.35765C19.5336 3.18148 19.5336 2.89583 19.3574 2.71966L18.4247 1.78696L19.1225 1.0891L22.9108 4.87737L4.87734 22.9109Z" fill="#141C5C"/>
</svg>
