<svg width="40" height="39" viewBox="0 0 40 39" fill="none" xmlns="http://www.w3.org/2000/svg">
<rect width="39.0025" height="38.9989" rx="19.4994" fill="#212121"/>
<path d="M17.0934 26.1868C12.0793 26.1868 8 22.1075 8 17.0934C8 12.0793 12.0793 8 17.0934 8C22.1075 8 26.1868 12.0793 26.1868 17.0934C26.1868 22.1075 22.1075 26.1868 17.0934 26.1868ZM17.0934 9.81868C13.0823 9.81868 9.81868 13.0823 9.81868 17.0934C9.81868 21.1045 13.0823 24.3681 17.0934 24.3681C21.1045 24.3681 24.3681 21.1045 24.3681 17.0934C24.3681 13.0823 21.1054 9.81868 17.0934 9.81868Z" fill="white"/>
<path d="M30.0912 30.9988C29.9718 30.9989 29.8535 30.9755 29.7432 30.9297C29.6328 30.884 29.5326 30.817 29.4483 30.7324L22.4518 23.7359C22.3674 23.6515 22.3004 23.5513 22.2548 23.441C22.2091 23.3307 22.1855 23.2124 22.1855 23.093C22.1855 22.9736 22.2091 22.8554 22.2548 22.7451C22.3004 22.6348 22.3674 22.5346 22.4518 22.4501C22.5363 22.3657 22.6365 22.2987 22.7468 22.253C22.8571 22.2074 22.9753 22.1838 23.0947 22.1838C23.2141 22.1838 23.3324 22.2074 23.4427 22.253C23.553 22.2987 23.6532 22.3657 23.7377 22.4501L30.7341 29.4466C30.8617 29.5736 30.9486 29.7356 30.984 29.9121C31.0193 30.0887 31.0014 30.2717 30.9325 30.438C30.8636 30.6043 30.7469 30.7464 30.5971 30.8463C30.4473 30.9461 30.2712 30.9992 30.0912 30.9988Z" fill="white"/>
</svg>
