<svg width="22" height="22" viewBox="0 0 22 22" fill="none" xmlns="http://www.w3.org/2000/svg">
<path d="M21.6792 12.8901C21.8704 12.8287 22 12.6507 22 12.4497V9.5638C22 9.36283 21.8702 9.18488 21.679 9.12346L18.9573 8.25045C18.8367 7.91534 18.7132 7.61681 18.5836 7.34673L19.8917 4.7941C19.9832 4.6157 19.9491 4.39846 19.8075 4.25665L17.7683 2.21256C17.6266 2.06984 17.4096 2.03642 17.231 2.1272L14.6784 3.42926C14.3914 3.28609 14.0853 3.15828 13.7636 3.04718L12.8923 0.321563C12.8309 0.130071 12.653 0 12.4518 0H9.56668C9.36619 0 9.18851 0.129167 9.12665 0.320209L8.24591 3.04447C7.97001 3.14021 7.65258 3.2626 7.33063 3.42339L4.79361 2.11816C4.61435 2.02648 4.39671 2.06081 4.25469 2.20307L2.211 4.25213C2.06966 4.39395 2.03557 4.61028 2.12656 4.78868L3.42001 7.32505C3.27461 7.62087 3.14863 7.92708 3.04365 8.23961L0.329631 9.11443C0.139079 9.17585 0.00971092 9.35289 0.00903357 9.55342L2.65143e-06 12.4394C-0.000674647 12.6403 0.128467 12.8183 0.319471 12.8806L3.04433 13.7658C3.14818 14.0585 3.27168 14.3534 3.4225 14.6695L2.12204 17.2154C2.03106 17.3938 2.06492 17.6101 2.20626 17.7519L4.2407 19.796C4.38226 19.9383 4.59945 19.9744 4.77804 19.8818L7.32927 18.5825C7.62977 18.7297 7.92825 18.8548 8.23281 18.961L9.11784 21.6807C9.17971 21.8713 9.35716 22 9.55742 22H12.4426C12.6428 22 12.8203 21.8713 12.8822 21.6807L13.7681 18.9591C14.0878 18.8458 14.3856 18.7229 14.6689 18.587L17.217 19.8868C17.3963 19.9776 17.6119 19.9433 17.7539 19.8023L19.7928 17.7673C19.9344 17.6259 19.9692 17.4091 19.8784 17.2307L18.5804 14.6722C18.7164 14.3981 18.8405 14.0987 18.9564 13.7663L21.6792 12.8901ZM17.6482 14.8786L18.9019 17.3495L17.3382 18.9104L14.8816 17.6571C14.7484 17.5884 14.5915 17.5893 14.4592 17.658C14.0928 17.8477 13.6988 18.0107 13.2551 18.1566C13.1154 18.2027 13.0057 18.3129 12.9603 18.4529L12.1069 21.0751H9.89315L9.03973 18.4529C8.99367 18.3111 8.88169 18.2 8.73945 18.1552C8.33419 18.027 7.9427 17.863 7.54263 17.6539C7.41032 17.5853 7.25228 17.5839 7.11885 17.6521L4.65838 18.905L3.09829 17.3373L4.3511 14.8845C4.41793 14.7535 4.41861 14.5986 4.35291 14.4672C4.13323 14.0278 3.9727 13.643 3.84763 13.2555C3.80202 13.1146 3.69162 13.0039 3.55051 12.9578L0.925898 12.1051L0.932671 9.89214L3.55412 9.04713C3.69907 9.00016 3.81173 8.885 3.8553 8.73912C3.97903 8.32542 4.14429 7.92347 4.34726 7.54319C4.41838 7.40996 4.41996 7.25008 4.3511 7.1155L3.1028 4.66764L4.67079 3.0955L7.12179 4.35646C7.25973 4.42647 7.42342 4.42421 7.55843 4.34924C7.88964 4.16452 8.24817 4.01458 8.75774 3.84792C8.89839 3.80231 9.00857 3.69166 9.05418 3.55075L9.90308 0.924947H12.1143L12.9546 3.55391C13.0007 3.69753 13.1136 3.80953 13.2572 3.85425C13.6909 3.98974 14.0937 4.15865 14.4542 4.35556C14.5883 4.42827 14.75 4.43098 14.8859 4.36143L17.3513 3.10408L18.9153 4.6717L17.6536 7.13311C17.5852 7.26679 17.5859 7.42532 17.6555 7.5581C17.832 7.89637 17.9968 8.29245 18.1591 8.76938C18.2063 8.90803 18.3163 9.01597 18.4556 9.06068L21.0752 9.90117V12.1128L18.4508 12.9574C18.3091 13.003 18.1982 13.1141 18.1524 13.2555C18.0027 13.7193 17.8399 14.1095 17.6548 14.4473C17.5816 14.5815 17.5791 14.7427 17.6482 14.8786Z" fill="#969696"/>
<path d="M11.5238 7.0353C9.34111 6.74428 7.32708 8.28501 7.03587 10.4684C6.89468 11.5279 7.17318 12.5793 7.82034 13.4281C8.46832 14.2778 9.40833 14.8238 10.4676 14.9648C10.6461 14.9885 10.8234 15 10.9988 15C12.9735 15 14.6971 13.5343 14.9648 11.5247C15.2558 9.34126 13.7122 7.32713 11.5238 7.0353ZM14.1328 11.414C13.9026 13.1433 12.3116 14.3635 10.5783 14.1327C9.74195 14.0212 8.9995 13.5904 8.488 12.9191C7.9765 12.2481 7.7562 11.4173 7.86788 10.5791C8.07896 8.99491 9.43764 7.83947 10.9943 7.83947C11.1326 7.83947 11.2724 7.84849 11.4129 7.86734C13.1425 8.0981 14.3625 9.68883 14.1328 11.414Z" fill="#969696"/>
</svg>
