<svg width="21" height="21" viewBox="0 0 21 21" fill="none" xmlns="http://www.w3.org/2000/svg">
<path d="M4.5 19.158V21H8.1V19.2H12.9V21H16.5V19.158C19.0317 18.8481 21 16.689 21 14.0751V10.5H18V3.45C18 1.5477 16.452 0 14.55 0C12.7809 0 11.3202 1.3392 11.124 3.057C9.7446 3.3261 8.7 4.5426 8.7 6V7.2H14.7V6C14.7 4.5636 13.6848 3.3612 12.3348 3.069C12.5166 2.0094 13.4394 1.2 14.55 1.2C15.7908 1.2 16.8 2.2092 16.8 3.45V10.5H0V14.0751C0 16.689 1.9683 18.8481 4.5 19.158ZM13.5 6H9.9C9.9 5.0073 10.7073 4.2 11.7 4.2C12.6927 4.2 13.5 5.0073 13.5 6ZM6.9 19.8H5.7V19.2H6.9V19.8ZM15.3 19.8H14.1V19.2H15.3V19.8ZM1.2 11.7H19.8V14.0751C19.8 16.239 18.039 18 15.8751 18H5.1249C2.9607 18 1.2 16.239 1.2 14.0751V11.7Z" fill="#969696"/>
<path d="M12.75 7.8468H13.95V9H12.75V7.8468ZM9.45 7.8468H10.65V9H9.45V7.8468ZM11.1 9.0234H12.3V10.1766H11.1V9.0234Z" fill="#969696"/>
</svg>
