<svg width="60" height="60" viewBox="0 0 60 60" fill="none" xmlns="http://www.w3.org/2000/svg">
<rect width="60" height="60" rx="7" fill="#2E66C2"/>
<path d="M43.3993 22.3095L29.935 16.0958C29.7987 16.0327 29.6502 16 29.5 16C29.3498 16 29.2013 16.0327 29.065 16.0958L15.6007 22.3095C15.4209 22.3927 15.2688 22.5257 15.1623 22.6927C15.0558 22.8598 14.9995 23.0538 15 23.2519V43.9644C15 44.239 15.1091 44.5025 15.3034 44.6967C15.4976 44.8909 15.761 45 16.0357 45H42.9643C43.239 45 43.5024 44.8909 43.6966 44.6967C43.8909 44.5025 44 44.239 44 43.9644V23.2519C44.0005 23.0538 43.9442 22.8598 43.8377 22.6927C43.7312 22.5257 43.5791 22.3927 43.3993 22.3095ZM37.7857 34.6438H21.2143V32.5725H37.7857V34.6438ZM21.2143 36.715H37.7857V38.7863H21.2143V36.715ZM37.7857 30.5013H21.2143V28.43H37.7857V30.5013ZM21.2143 42.9288V40.8575H37.7857V42.9288H21.2143ZM41.9286 42.9288H39.8571V27.3944C39.8571 27.1197 39.748 26.8563 39.5538 26.6621C39.3596 26.4679 39.0961 26.3588 38.8214 26.3588H20.1786C19.9039 26.3588 19.6404 26.4679 19.4462 26.6621C19.252 26.8563 19.1429 27.1197 19.1429 27.3944V42.9288H17.0714V23.9147L29.5 18.1774L41.9286 23.9147V42.9288Z" fill="white"/>
</svg>
