<svg width="60" height="60" viewBox="0 0 60 60" fill="none" xmlns="http://www.w3.org/2000/svg">
<rect width="60" height="60" rx="7" fill="#2E66C2"/>
<path d="M17.375 31.8H46.9062C47.2025 31.8 47.4588 31.9138 47.6753 32.1414C47.8918 32.369 48 32.6385 48 32.95V41H43.625V36.4H17.375V41H13V19.15C13 18.8385 13.1082 18.569 13.3247 18.3414C13.5412 18.1138 13.7975 18 14.0938 18H16.2812C16.5775 18 16.8338 18.1138 17.0503 18.3414C17.2668 18.569 17.375 18.8385 17.375 19.15V31.8ZM27.2188 26.05C27.2188 24.7802 26.7915 23.6961 25.937 22.7977C25.0825 21.8992 24.0514 21.45 22.8438 21.45C21.6361 21.45 20.605 21.8992 19.7505 22.7977C18.896 23.6961 18.4688 24.7802 18.4688 26.05C18.4688 27.3198 18.896 28.4039 19.7505 29.3023C20.605 30.2008 21.6361 30.65 22.8438 30.65C24.0514 30.65 25.0825 30.2008 25.937 29.3023C26.7915 28.4039 27.2188 27.3198 27.2188 26.05ZM48 30.65V29.5C48 27.5953 47.3591 25.9691 46.0774 24.6215C44.7957 23.2738 43.249 22.6 41.4375 22.6H29.4062C29.11 22.6 28.8537 22.7138 28.6372 22.9414C28.4207 23.169 28.3125 23.4385 28.3125 23.75V30.65H48Z" fill="white"/>
</svg>
