<svg width="60" height="60" viewBox="0 0 60 60" fill="none" xmlns="http://www.w3.org/2000/svg">
<rect width="60" height="60" rx="7" fill="#2E66C2"/>
<path d="M20.8487 43.1572V45.9606H26.3277V43.2211H33.633V45.9606H39.1119V43.1572C42.965 42.6856 45.9606 39.3996 45.9606 35.4214V29.9803H41.3948V19.2507C41.3948 16.3555 39.0389 14 36.1442 14C33.4517 14 31.2286 16.0382 30.93 18.6526C28.8306 19.0621 27.2408 20.9135 27.2408 23.1316V24.9579H36.3724V23.1316C36.3724 20.9455 34.8274 19.1155 32.7728 18.6708C33.0494 17.0582 34.4539 15.8263 36.1442 15.8263C38.0326 15.8263 39.5685 17.3623 39.5685 19.2507V29.9803H14V35.4214C14 39.3996 16.9956 42.6856 20.8487 43.1572ZM34.5461 23.1316H29.0672C29.0672 21.6208 30.2958 20.3921 31.8066 20.3921C33.3175 20.3921 34.5461 21.6208 34.5461 23.1316ZM24.5013 44.1343H22.675V43.2211H24.5013V44.1343ZM37.2856 44.1343H35.4593V43.2211H37.2856V44.1343ZM15.8263 31.8066H44.1343V35.4214C44.1343 38.7147 41.4542 41.3948 38.1609 41.3948H21.7998C18.506 41.3948 15.8263 38.7147 15.8263 35.4214V31.8066Z" fill="white"/>
<path d="M33.4042 25.9419H35.2305V27.697H33.4042V25.9419ZM28.3818 25.9419H30.2082V27.697H28.3818V25.9419ZM30.893 27.7326H32.7194V29.4877H30.893V27.7326Z" fill="white"/>
</svg>
