<svg width="60" height="60" viewBox="0 0 60 60" fill="none" xmlns="http://www.w3.org/2000/svg">
<rect width="60" height="60" rx="7" fill="#2E66C2"/>
<path d="M40.2857 18H33.4286C32.9739 18 32.5379 18.1806 32.2164 18.5021C31.8949 18.8236 31.7143 19.2596 31.7143 19.7143V24.8571H26.5714C26.1168 24.8571 25.6807 25.0378 25.3592 25.3592C25.0378 25.6807 24.8571 26.1168 24.8571 26.5714V31.7143H19.7143C19.2596 31.7143 18.8236 31.8949 18.5021 32.2164C18.1806 32.5379 18 32.9739 18 33.4286V39.4286C18 40.1106 18.2709 40.7646 18.7532 41.2468C19.2354 41.7291 19.8894 42 20.5714 42H39.4286C40.1106 42 40.7646 41.7291 41.2468 41.2468C41.7291 40.7646 42 40.1106 42 39.4286V19.7143C42 19.2596 41.8194 18.8236 41.4979 18.5021C41.1764 18.1806 40.7404 18 40.2857 18ZM40.2857 39.4286C40.2857 39.6559 40.1954 39.8739 40.0347 40.0347C39.8739 40.1954 39.6559 40.2857 39.4286 40.2857H20.5714C20.3441 40.2857 20.1261 40.1954 19.9653 40.0347C19.8046 39.8739 19.7143 39.6559 19.7143 39.4286V33.4286H24.8571C25.3118 33.4286 25.7478 33.248 26.0693 32.9265C26.3908 32.605 26.5714 32.1689 26.5714 31.7143V26.5714H31.7143C32.1689 26.5714 32.605 26.3908 32.9265 26.0693C33.248 25.7478 33.4286 25.3118 33.4286 24.8571V19.7143H40.2857V39.4286Z" fill="white"/>
</svg>
