<svg width="12" height="12" viewBox="0 0 12 12" fill="none" xmlns="http://www.w3.org/2000/svg">
<path fill-rule="evenodd" clip-rule="evenodd" d="M10.8 10.2C10.8 10.3591 10.7368 10.5117 10.6243 10.6243C10.5117 10.7368 10.3591 10.8 10.2 10.8H1.8C1.64087 10.8 1.48826 10.7368 1.37574 10.6243C1.26321 10.5117 1.2 10.3591 1.2 10.2V1.8C1.2 1.64087 1.26321 1.48826 1.37574 1.37574C1.48826 1.26321 1.64087 1.2 1.8 1.2H3C3.15913 1.2 3.31174 1.26321 3.42426 1.37574C3.53679 1.48826 3.6 1.64087 3.6 1.8V3.6C3.6 3.91826 3.72643 4.22348 3.95147 4.44853C4.17652 4.67357 4.48174 4.8 4.8 4.8H6.6C6.75913 4.8 6.91174 4.86321 7.02426 4.97574C7.13679 5.08826 7.2 5.24087 7.2 5.4V7.2C7.2 7.51826 7.32643 7.82349 7.55147 8.04853C7.77652 8.27357 8.08174 8.4 8.4 8.4H10.2C10.3591 8.4 10.5117 8.46321 10.6243 8.57574C10.7368 8.68826 10.8 8.84087 10.8 9V10.2ZM10.8 7.2H9C8.84087 7.2 8.68826 7.13679 8.57574 7.02426C8.46321 6.91174 8.4 6.75913 8.4 6.6V4.8C8.4 4.48174 8.27357 4.17652 8.04853 3.95147C7.82349 3.72643 7.51826 3.6 7.2 3.6H4.8V1.2C4.8 0.88174 4.67357 0.576516 4.44853 0.351472C4.22348 0.126428 3.91826 0 3.6 0L1.2 0C0.88174 0 0.576516 0.126428 0.351472 0.351472C0.126428 0.576516 0 0.88174 0 1.2L0 10.8C0 11.1183 0.126428 11.4235 0.351472 11.6485C0.576516 11.8736 0.88174 12 1.2 12H10.8C11.1183 12 11.4235 11.8736 11.6485 11.6485C11.8736 11.4235 12 11.1183 12 10.8V8.4C12 8.08174 11.8736 7.77652 11.6485 7.55147C11.4235 7.32643 11.1183 7.2 10.8 7.2Z" fill="#969696"/>
</svg>
