<svg width="23" height="23" viewBox="0 0 23 23" fill="none" xmlns="http://www.w3.org/2000/svg">
<circle cx="11.5" cy="11.5" r="11.5" fill="white"/>
<path d="M11.588 16.1755C11.12 16.1755 10.678 16.0845 10.262 15.9025C9.846 15.7205 9.48417 15.4627 9.1765 15.129C8.87317 14.7953 8.65433 14.401 8.52 13.946L10.0345 13.5365C10.1428 13.9092 10.34 14.1973 10.626 14.401C10.9163 14.6003 11.2348 14.6978 11.5815 14.6935C11.8892 14.6935 12.1643 14.622 12.407 14.479C12.6497 14.336 12.8403 14.1432 12.979 13.9005C13.1177 13.6535 13.187 13.3783 13.187 13.075C13.187 12.6113 13.0375 12.2235 12.7385 11.9115C12.4395 11.5995 12.0538 11.4435 11.5815 11.4435C11.4385 11.4435 11.2977 11.463 11.159 11.502C11.0247 11.541 10.8947 11.5952 10.769 11.6645L10.054 10.4295L13.2 7.7385L13.3365 8.1155H8.884V6.64H14.6235V8.122L12.095 10.553L12.082 10.0915C12.6497 10.1305 13.1328 10.2887 13.5315 10.566C13.9345 10.8433 14.2422 11.2008 14.4545 11.6385C14.6712 12.0762 14.7795 12.555 14.7795 13.075C14.7795 13.6643 14.6343 14.193 14.344 14.661C14.058 15.129 13.6723 15.4995 13.187 15.7725C12.706 16.0412 12.173 16.1755 11.588 16.1755Z" fill="#2E66C2"/>
</svg>
