<svg width="23" height="23" viewBox="0 0 23 23" fill="none" xmlns="http://www.w3.org/2000/svg">
<circle cx="11.5" cy="11.5" r="11.5" fill="white"/>
<path d="M8.65 15.987V14.622L12.654 11.0535C12.966 10.7762 13.1827 10.514 13.304 10.267C13.4253 10.02 13.486 9.78167 13.486 9.552C13.486 9.24 13.4188 8.96267 13.2845 8.72C13.1502 8.473 12.9638 8.278 12.7255 8.135C12.4915 7.992 12.2207 7.9205 11.913 7.9205C11.588 7.9205 11.2998 7.99633 11.0485 8.148C10.8015 8.29533 10.6087 8.4925 10.47 8.7395C10.3313 8.9865 10.2663 9.253 10.275 9.539H8.663C8.663 8.915 8.80167 8.37117 9.079 7.9075C9.36067 7.44383 9.74633 7.08417 10.236 6.8285C10.73 6.57283 11.2998 6.445 11.9455 6.445C12.5435 6.445 13.0808 6.57933 13.5575 6.848C14.0342 7.11233 14.409 7.48067 14.682 7.953C14.955 8.421 15.0915 8.9605 15.0915 9.5715C15.0915 10.0178 15.0308 10.3927 14.9095 10.696C14.7882 10.9993 14.6062 11.2788 14.3635 11.5345C14.1252 11.7902 13.8283 12.074 13.473 12.386L10.6325 14.9015L10.4895 14.5115H15.0915V15.987H8.65Z" fill="#2E66C2"/>
</svg>
