<svg width="25" height="24" viewBox="0 0 25 24" fill="none" xmlns="http://www.w3.org/2000/svg">
<path d="M22.2655 11.9701L23.5541 6.42219C23.5747 6.33512 23.5749 6.24634 23.5546 6.16295C23.5343 6.07956 23.4941 6.00388 23.4373 5.94196L21.56 3.93032L24.1521 1.51135L23.4173 0.724014L20.8252 3.14298L18.621 0.780975C18.5586 0.715284 18.479 0.667906 18.3896 0.643225C18.3001 0.618544 18.2037 0.617359 18.1093 0.63978L12.8164 1.89673C12.7105 1.92025 12.6108 1.97248 12.5286 2.04742L1.29629 12.5296C0.952562 12.8504 0.739028 13.2825 0.702664 13.7308C0.6663 14.1791 0.810086 14.6069 1.10239 14.9201L8.44994 22.7935C8.74225 23.1067 9.15913 23.2796 9.60887 23.2743C10.0586 23.269 10.5044 23.0858 10.8481 22.765L22.0804 12.2828C22.1722 12.1977 22.237 12.0882 22.2655 11.9701ZM10.1134 21.9776C9.99878 22.0846 9.85019 22.1456 9.70028 22.1474C9.55036 22.1492 9.4114 22.0915 9.31397 21.9871L1.96641 14.1138C1.86898 14.0094 1.82105 13.8668 1.83317 13.7173C1.84529 13.5679 1.91647 13.4239 2.03105 13.3169L13.1381 2.95167L17.9664 1.81169L19.9612 3.9493L17.8012 5.96511L16.699 4.78411L15.835 5.59043L18.774 8.73977L19.6381 7.93345L18.5359 6.75245L20.696 4.73664L22.3859 6.54751L21.2031 11.6285L10.1134 21.9776ZM7.94995 9.26635C7.18095 9.98399 6.62314 10.8933 6.34706 11.8793C6.07097 12.8653 6.08902 13.8837 6.3989 14.8058C6.70878 15.7278 7.29659 16.512 8.08799 17.0593C8.8794 17.6066 9.83885 17.8923 10.845 17.8803C11.8512 17.8684 12.8589 17.5593 13.7407 16.9922C14.6225 16.425 15.3388 15.6253 15.799 14.6941C16.2592 13.763 16.4426 12.7421 16.3261 11.7608C16.2096 10.7795 15.7984 9.88165 15.1445 9.18091C14.2675 8.24124 13.0169 7.72235 11.6677 7.73837C10.3184 7.75439 8.98114 8.30402 7.94995 9.26635ZM13.828 15.565C13.2299 16.1232 12.4944 16.5072 11.7145 16.6685C10.9346 16.8298 10.1454 16.7612 9.44658 16.4712C8.74779 16.1813 8.17083 15.6831 7.78867 15.0397C7.4065 14.3962 7.23629 13.6364 7.29957 12.8564C7.36285 12.0763 7.65676 11.311 8.14415 10.6572C8.63154 10.0034 9.2905 9.49057 10.0377 9.18347C10.7849 8.87636 11.5869 8.7888 12.3421 8.93187C13.0972 9.07494 13.7718 9.44221 14.2804 9.98723C14.9625 10.7181 15.298 11.7163 15.2131 12.7624C15.1283 13.8084 14.63 14.8166 13.828 15.565ZM13.7838 11.1872L13.3518 11.5904L14.0865 12.3777L13.2225 13.184L11.753 11.6094L11.321 12.0125L12.4231 13.1935C12.5206 13.2979 12.5685 13.4405 12.5564 13.59C12.5442 13.7394 12.4731 13.8834 12.3585 13.9904L11.0624 15.1998C10.9479 15.3068 10.7993 15.3678 10.6494 15.3696C10.4994 15.3714 10.3605 15.3137 10.2631 15.2093L9.89568 14.8157L9.46367 15.2188L8.72891 14.4315L9.16092 14.0283L8.42617 13.241L9.29019 12.4347L10.7597 14.0093L11.1917 13.6062L10.0896 12.4252C9.99215 12.3208 9.94422 12.1782 9.95634 12.0287C9.96846 11.8793 10.0396 11.7353 10.1542 11.6284L11.4503 10.4189C11.5648 10.3119 11.7134 10.2509 11.8633 10.2491C12.0132 10.2473 12.1522 10.305 12.2496 10.4094L12.617 10.803L13.049 10.3999L13.7838 11.1872Z" fill="#212121"/>
</svg>
