<svg width="23" height="23" viewBox="0 0 23 23" fill="none" xmlns="http://www.w3.org/2000/svg">
<path d="M10.7288 17.0147V3.67929L7.13676 7.27137L6.04526 6.16291L11.4997 0.708496L16.9541 6.16291L15.8641 7.27291L12.2705 3.67929V17.0147H10.7288ZM3.1978 22.2918C2.48863 22.2918 1.89663 22.0544 1.4218 21.5796C0.945938 21.1037 0.708008 20.5112 0.708008 19.802V16.0666H2.24967V19.802C2.24967 20.0384 2.34834 20.2558 2.54567 20.4542C2.74404 20.6515 2.96141 20.7502 3.1978 20.7502H19.8015C20.0379 20.7502 20.2553 20.6515 20.4537 20.4542C20.651 20.2558 20.7497 20.0384 20.7497 19.802V16.0666H22.2913V19.802C22.2913 20.5112 22.0539 21.1032 21.5791 21.578C21.1032 22.0539 20.5107 22.2918 19.8015 22.2918H3.1978Z" fill="#212121"/>
</svg>
