<svg width="26" height="26" viewBox="0 0 26 26" fill="none" xmlns="http://www.w3.org/2000/svg">
<path fill-rule="evenodd" clip-rule="evenodd" d="M13 26C20.1799 26 26 20.1799 26 13C26 5.8201 20.1799 0 13 0C5.8201 0 0 5.8201 0 13C0 20.1799 5.8201 26 13 26ZM16.9 10.4C16.9 11.4343 16.4891 12.4263 15.7577 13.1577C15.0263 13.8891 14.0343 14.3 13 14.3C11.9657 14.3 10.9737 13.8891 10.2423 13.1577C9.51089 12.4263 9.1 11.4343 9.1 10.4C9.1 9.36566 9.51089 8.37368 10.2423 7.64228C10.9737 6.91089 11.9657 6.5 13 6.5C14.0343 6.5 15.0263 6.91089 15.7577 7.64228C16.4891 8.37368 16.9 9.36566 16.9 10.4ZM5.2 19.5C6.10741 18.2883 7.28489 17.3048 8.63891 16.6278C9.99293 15.9508 11.4862 15.5989 13 15.6C14.5138 15.5989 16.0071 15.9508 17.3611 16.6278C18.7151 17.3048 19.8926 18.2883 20.8 19.5C19.8926 20.7117 18.7151 21.6952 17.3611 22.3722C16.0071 23.0492 14.5138 23.4011 13 23.4C11.4862 23.4011 9.99293 23.0492 8.63891 22.3722C7.28489 21.6952 6.10741 20.7117 5.2 19.5Z" fill="#969696"/>
</svg>
