<svg width="23" height="16" viewBox="0 0 23 16" fill="none" xmlns="http://www.w3.org/2000/svg">
<path d="M22.3987 5.71731C22.4482 4.28596 22.1351 2.86533 21.4887 1.58731C21.0501 1.06291 20.4414 0.709018 19.7687 0.587308C16.9862 0.334834 14.1922 0.231352 11.3987 0.277308C8.61535 0.229267 5.83142 0.329408 3.05871 0.577308C2.51053 0.677025 2.00323 0.93415 1.59871 1.31731C0.698709 2.14731 0.598708 3.56731 0.498708 4.76731C0.353621 6.92487 0.353621 9.08974 0.498708 11.2473C0.527639 11.9227 0.628202 12.5931 0.798708 13.2473C0.919284 13.7524 1.16323 14.2197 1.50871 14.6073C1.91598 15.0108 2.43509 15.2825 2.99871 15.3873C5.15462 15.6534 7.32693 15.7637 9.49871 15.7173C12.9987 15.7673 16.0687 15.7173 19.6987 15.4373C20.2762 15.339 20.8099 15.0669 21.2287 14.6573C21.5087 14.3772 21.7178 14.0344 21.8387 13.6573C22.1963 12.5599 22.372 11.4114 22.3587 10.2573C22.3987 9.69731 22.3987 6.31731 22.3987 5.71731ZM9.13871 10.8573V4.66731L15.0587 7.77731C13.3987 8.69731 11.2087 9.73731 9.13871 10.8573Z" fill="#212121"/>
</svg>
