<svg xmlns="http://www.w3.org/2000/svg" xmlns:xlink="http://www.w3.org/1999/xlink" version="1.1" viewBox="39.81 50.32 515.03 114.43">
    <!-- Generator: Sketch 63 (92445) - https://sketch.com -->
    <title>logo/black</title>
    <desc>Created with Sketch.</desc>
    <g id="logo/black" stroke="none" stroke-width="1" fill="none" fill-rule="evenodd">
        <path d="M508.001512,79.921875 L530.342742,121.88256 L546.335433,79.921875 L554.83871,79.921875 L525.182712,148.193044 C523.935232,151.028226 522.508191,153.485383 520.901588,155.564516 C519.294985,157.643649 517.584425,159.363659 515.769909,160.724546 C513.955393,162.085433 512.084173,163.096648 510.15625,163.758191 C508.228327,164.419733 506.357107,164.750504 504.542591,164.750504 C503.181704,164.750504 501.858619,164.542591 500.573337,164.126764 C499.430864,163.75714 498.452668,163.282977 497.638749,162.704273 L497.34123,162.482359 L502.161038,151.708669 C502.614667,151.897681 503.115549,152.143397 503.663684,152.445817 C504.21182,152.748236 504.816658,153.041205 505.478201,153.324723 C506.139743,153.608241 506.86744,153.844506 507.66129,154.033518 C508.455141,154.22253 510.34753,153.976815 511.405998,153.296371 C512.464466,152.615927 513.428427,151.765373 514.297883,150.744708 C515.167339,149.724042 515.942288,148.608871 516.622732,147.399194 C517.205969,146.362327 517.705887,145.381007 518.122485,144.455234 L518.323841,143.996976 L522.392893,135.096774 L494.902974,79.921875 L508.001512,79.921875 Z M100.199345,129.857359 L100.199345,140.308972 L39.812248,140.308972 L39.812248,129.857359 L100.199345,129.857359 Z M175.176159,79.921875 L175.176159,120.09753 C175.176159,121.534022 175.50693,122.894909 176.168473,124.180192 C176.830015,125.465474 177.746724,126.580645 178.918599,127.525706 C180.090474,128.470766 181.44191,129.217364 182.972908,129.765499 C184.503906,130.313634 186.157762,130.587702 187.934476,130.587702 C189.068548,130.587702 190.287676,130.341986 191.59186,129.850554 C192.896043,129.359123 194.171875,128.68813 195.419355,127.837576 C196.666835,126.987021 197.829259,125.985257 198.906628,124.832283 C199.849326,123.823431 200.669018,122.76393 201.365705,121.653779 L201.656754,121.174899 L201.656754,79.921875 L213.110887,79.921875 L213.110887,137.986391 L201.656754,137.986391 L201.656754,127.099294 C200.636089,128.762601 199.360257,130.331401 197.829259,131.805696 C196.298261,133.27999 194.644405,134.565272 192.867692,135.661542 C191.090978,136.757812 189.25756,137.627268 187.36744,138.269909 C185.477319,138.91255 183.681704,139.233871 181.980595,139.233871 C179.447833,139.233871 177.06628,138.761341 174.835938,137.81628 C172.605595,136.87122 170.65877,135.585938 168.995464,133.960433 C167.332157,132.334929 166.018523,130.425907 165.054561,128.233367 C164.154864,126.186996 163.675025,124.02537 163.615045,121.748488 L163.608619,121.258821 L163.608619,79.921875 L175.176159,79.921875 Z M477.211442,60.1890121 L477.211442,79.921875 L490.139869,79.921875 L490.139869,86.016381 L477.211442,86.016381 L477.211442,125.738407 C477.211442,126.607863 477.372102,127.420615 477.693422,128.176663 C478.014743,128.932712 478.449471,129.594254 478.997606,130.16129 C479.545741,130.728327 480.197833,131.172505 480.953881,131.493826 C481.709929,131.815146 482.541583,131.975806 483.448841,131.975806 C484.734123,131.975806 485.905998,131.654486 486.964466,131.011845 C487.905326,130.440608 488.741646,129.749897 489.473426,128.939712 L489.742944,128.630292 L492.634829,130.558216 C491.047127,133.242188 488.986895,135.359123 486.454133,136.909022 C483.921371,138.458921 480.78377,139.233871 477.041331,139.233871 C475.113407,139.233871 473.4312,138.9031 471.994708,138.241557 C470.558216,137.580015 469.37689,136.653856 468.450731,135.46308 C467.524572,134.272303 466.834677,132.854713 466.381048,131.210307 C465.972782,129.730343 465.748236,128.104933 465.707409,126.334079 L465.700605,125.738407 L465.700605,63.421119 L471.60005,60.1890121 L477.211442,60.1890121 Z M412.328881,78.844506 C416.109123,78.844506 419.284526,79.2130796 421.855091,79.9502268 C424.425655,80.687374 426.485887,81.7174899 428.035786,83.0405746 C429.585685,84.3636593 430.691406,85.9797127 431.352949,87.8887349 C431.963603,89.6509092 432.292417,91.5821878 432.33939,93.6825708 L432.345262,94.2111895 L432.345262,130.047883 C432.345262,131.824597 432.865045,133.402848 433.904612,134.782636 C434.864212,136.056287 436.025126,137.064202 437.387356,137.806382 L437.732107,137.986391 L426.164567,137.986391 C424.65247,137.230343 423.376638,136.162424 422.337072,134.782636 C421.297505,133.402848 420.777722,131.824597 420.777722,130.047883 C419.416835,131.068548 418.084299,132.127016 416.780116,133.223286 C415.475932,134.319556 414.058342,135.31187 412.527344,136.200227 C410.996346,137.088584 409.295237,137.81628 407.424017,138.383317 C405.552797,138.950353 403.388609,139.233871 400.931452,139.233871 C398.663306,139.233871 396.612525,138.865297 394.779108,138.12815 C392.945691,137.391003 391.395791,136.379788 390.12941,135.094506 C388.863029,133.809224 387.880166,132.278226 387.180822,130.501512 C386.481477,128.724798 386.131804,126.815776 386.131804,124.774446 C386.131804,122.279486 386.623236,120.030242 387.606099,118.026714 C388.588962,116.023185 389.940398,114.237021 391.660408,112.668221 C393.380418,111.09942 395.374496,109.700731 397.642641,108.472152 C399.910786,107.243574 402.330141,106.147303 404.900706,105.183342 C407.47127,104.21938 410.11744,103.359375 412.839214,102.603327 C415.107359,101.973286 417.323001,101.382623 419.486139,100.831338 L420.777722,100.505292 L420.777722,96.8762601 C420.777722,94.2300907 420.58871,93.1610383 420.210685,91.3465222 C419.832661,89.532006 419.246724,88.0671623 418.452873,86.9519909 C417.659022,85.8368196 416.647807,85.0429687 415.419229,84.5704385 C414.19065,84.0979083 412.725806,83.8616431 411.024698,83.8616431 C409.399194,83.8616431 407.905998,84.1829637 406.545111,84.8256048 C405.184224,85.468246 403.983997,86.328251 402.94443,87.40562 C401.904864,88.4829889 401.054309,89.74937 400.392767,91.2047631 C399.775328,92.56313 399.347236,92.9839768 399.108493,94.3556475 L399.060232,94.6648185 L388.513357,94.6648185 C388.815776,92.1698589 389.675781,89.9395161 391.093372,87.9737903 C392.510963,86.0080645 394.297127,84.3542087 396.451865,83.0122228 C398.606603,81.6702369 401.054309,80.640121 403.794985,79.921875 C406.53566,79.203629 409.380292,78.844506 412.328881,78.844506 Z M352.220766,78.844506 C356.001008,78.844506 359.478831,79.515499 362.654234,80.8574849 C365.829637,82.1994708 368.560862,83.9950857 370.847908,86.2443296 C373.134955,88.4935736 374.911668,91.0924899 376.178049,94.0410786 C377.369937,96.8162209 378.000937,99.7085638 378.071048,102.718107 L378.077621,103.28377 L334.812752,103.28377 C334.812752,107.177419 335.313634,110.78755 336.315398,114.114163 C337.317162,117.440776 338.725302,120.31376 340.539819,122.733115 C342.354335,125.15247 344.509073,127.042591 347.004032,128.403478 C349.498992,129.764365 352.239667,130.444808 355.226058,130.444808 C357.721018,130.444808 360.121472,130.038432 362.427419,129.22568 C364.733367,128.412928 366.821951,127.34501 368.69317,126.021925 C370.56439,124.698841 372.161542,123.186744 373.484627,121.485635 C374.705936,119.915381 375.589036,118.296811 376.133928,116.629925 L376.263105,116.212198 L379.608619,117.686492 C378.776966,120.672883 377.43498,123.470262 375.582661,126.078629 C373.730343,128.686996 371.566154,130.964592 369.090096,132.911416 C366.614037,134.858241 363.920615,136.39869 361.009829,137.532762 C358.099042,138.666835 355.150454,139.233871 352.164062,139.233871 C348.232611,139.233871 344.537424,138.496724 341.078503,137.022429 C337.619582,135.548135 334.604839,133.544607 332.034274,131.011845 C329.46371,128.479083 327.43183,125.502142 325.938634,122.081023 C324.445439,118.659904 323.698841,115.021421 323.698841,111.165575 C323.698841,106.515877 324.379284,102.215852 325.740171,98.265499 C327.101058,94.3151462 329.028982,90.9034778 331.523942,88.030494 C334.018901,85.1575101 337.014743,82.9082661 340.511467,81.2827621 C344.008191,79.6572581 347.91129,78.844506 352.220766,78.844506 Z M234.49496,50.3225806 L234.49496,90.8656754 C235.44002,89.2401714 236.678049,87.6902722 238.209047,86.2159778 C239.740045,84.7416835 241.403352,83.4658518 243.198967,82.3884829 C244.994582,81.3111139 246.865801,80.4511089 248.812626,79.8084677 C250.759451,79.1658266 252.62122,78.844506 254.397933,78.844506 C257.762349,78.844506 260.862147,79.5249496 263.697329,80.8858367 C266.53251,82.2467238 268.970766,84.0990423 271.012097,86.4427923 C273.053427,88.7865423 274.65058,91.5177671 275.803553,94.6364667 C276.956527,97.7551663 277.533014,101.09123 277.533014,104.644657 C277.533014,109.445565 276.69191,113.944052 275.009703,118.140121 C273.327495,122.33619 271.021547,125.993574 268.09186,129.112273 C265.162172,132.230973 261.731603,134.697581 257.800151,136.512097 C253.8687,138.326613 249.672631,139.233871 245.211946,139.233871 C240.90247,139.233871 236.84816,138.666835 233.049017,137.532762 C229.460938,136.461694 226.252195,134.867983 223.422789,132.751631 L222.927419,132.372732 L222.927419,53.5546875 L228.770161,50.3225806 L234.49496,50.3225806 Z M295.682712,78.844506 L297.21371,90.6955645 C298.120968,88.9566532 299.25504,87.3689516 300.615927,85.9324597 C301.976815,84.4959677 303.479461,83.2484879 305.123866,82.1900202 C306.768271,81.1315524 308.507182,80.3093498 310.3406,79.7234123 C312.174017,79.1374748 314.035786,78.844506 315.925907,78.844506 C317.627016,78.844506 319.299773,79.0713206 320.944178,79.5249496 C322.424143,79.9332157 323.819903,80.5558216 325.131458,81.3927671 L325.565524,81.6796875 L321.936492,91.3760081 C321.180444,90.5443548 320.386593,89.8733619 319.55494,89.3630292 C318.723286,88.8526966 317.872732,88.4557712 317.003276,88.172253 C316.133821,87.8887349 315.245464,87.7091734 314.338206,87.6335685 C313.430948,87.5579637 312.52369,87.5201613 311.616431,87.5201613 C310.17994,87.5201613 308.771799,87.7280746 307.392011,88.1439012 C306.012223,88.5597278 304.698589,89.1740171 303.451109,89.9867692 C302.203629,90.7995212 301.050655,91.8390877 299.992188,93.1054688 C299.039567,94.2452117 298.194115,95.5610194 297.455834,97.0528919 L297.21371,97.5567036 L297.21371,137.986391 L285.702873,137.986391 L285.702873,82.0199093 L293.924899,78.844506 L295.682712,78.844506 Z M455.455393,50.3225806 L455.455393,137.986391 L443.887853,137.986391 L443.887853,53.6113911 L449.787298,50.3225806 L455.455393,50.3225806 Z M248.008253,88.998252 C246.736841,88.998252 245.438184,89.1798823 244.112283,89.5431429 C242.786382,89.9064034 241.524052,90.3968052 240.325292,91.0143482 C239.126532,91.6318911 238.018587,92.3493307 237.001458,93.166667 C236.111469,93.8818362 235.360541,94.6456767 234.748674,95.4581884 L234.49496,95.8093876 L234.49496,128.230393 C235.185155,128.884262 235.93892,129.556294 236.756257,130.246489 C237.573593,130.936684 238.490826,131.563308 239.507955,132.126362 C240.525085,132.689416 241.660274,133.143492 242.913523,133.488589 C244.166772,133.833687 245.574407,134.006236 247.136427,134.006236 C249.715577,134.006236 252.058608,133.379611 254.165519,132.126362 C256.27243,130.873113 258.079652,129.129463 259.587183,126.89541 C261.094714,124.661358 262.257148,122.009556 263.074484,118.940004 C263.891821,115.870452 264.300489,112.519373 264.300489,108.886768 C264.300489,106.125988 263.873658,103.537756 263.019995,101.122073 C262.166333,98.7063906 261.003899,96.5994793 259.532694,94.8013395 C258.061489,93.0031997 256.336001,91.5864836 254.356231,90.5511909 C252.376461,89.5158983 250.260468,88.998252 248.008253,88.998252 Z M420.777722,105.042317 C419.192958,105.54656 417.554168,106.122837 415.861353,106.77115 C414.168537,107.419462 412.511738,108.148814 410.890957,108.959204 C409.270176,109.769595 407.72143,110.643016 406.244718,111.579467 C404.768007,112.515918 403.471382,113.524404 402.354844,114.604925 C401.238306,115.685445 400.355881,116.819992 399.707568,118.008565 C399.059256,119.197138 398.7351,120.439736 398.7351,121.736361 C398.7351,123.105021 398.987221,124.392641 399.491464,125.599223 C399.995707,126.805804 400.662028,127.868316 401.490427,128.786759 C402.318827,129.705201 403.273287,130.425549 404.353807,130.9478 C405.434328,131.470052 406.550866,131.731178 407.703421,131.731178 C408.928012,131.731178 410.098576,131.5691 411.215114,131.244943 C412.331652,130.920787 413.412172,130.479575 414.456676,129.921306 C415.501179,129.363037 416.545682,128.723728 417.590186,128.003381 C418.425788,127.427104 419.272917,126.816249 420.13157,126.170818 L420.777722,125.680262 L420.777722,105.042317 Z M100.199345,106.631552 L124.586442,118.244456 L124.586442,128.696069 L100.199345,117.083165 L39.812248,117.083165 L39.812248,106.631552 L100.199345,106.631552 Z M100.199345,83.405746 L124.586442,95.0186492 L124.586442,105.470262 L100.199345,93.8573589 L39.812248,93.8573589 L39.812248,83.405746 L100.199345,83.405746 Z M348.270389,83.5787036 C346.579187,83.5787036 344.961516,83.9555474 343.417376,84.7092349 C341.873235,85.4629225 340.494539,86.5107321 339.281285,87.8526636 C338.068032,89.1945952 337.066179,90.7846922 336.275726,92.6229545 C335.551145,94.3080284 335.096877,96.1166744 334.912923,98.0488924 L334.869456,98.5789247 L362.829427,98.6340726 C362.829427,96.5016882 362.452583,94.5163648 361.698895,92.6781024 C360.945208,90.83984 359.906589,89.2497431 358.583041,87.9078115 C357.259492,86.56588 355.715351,85.5088791 353.950619,84.7368089 C352.185887,83.9647387 350.292477,83.5787036 348.270389,83.5787036 Z M100.199345,60.1799395 L124.586442,71.7928427 L124.586442,82.2444556 L100.199345,70.6315524 L39.812248,70.6315524 L39.812248,60.1799395 L100.199345,60.1799395 Z" id="Combined-Shape" fill="#000000"/>
    </g>
</svg>