<svg width="21" height="21" viewBox="0 0 21 21" fill="#2E66C2" xmlns="http://www.w3.org/2000/svg">
<path d="M0.7 3.5C0.28 3.5 0 3.78 0 4.2V17.5C0 17.92 0.28 18.2 0.7 18.2C1.12 18.2 1.4 17.92 1.4 17.5V15.4H19.6V17.5C19.6 17.92 19.88 18.2 20.3 18.2C20.72 18.2 21 17.92 21 17.5V14.7C21 14.28 20.72 14 20.3 14H1.4V4.2C1.4 3.78 1.12 3.5 0.7 3.5ZM4.9 4.2C3.78 4.2 2.8 5.18 2.8 6.3C2.8 7.42 3.78 8.4 4.9 8.4C6.02 8.4 7 7.42 7 6.3C7 5.18 6.02 4.2 4.9 4.2ZM9.8 5.6C7.7 5.6 7.7 7.7 7.7 7.7V9.8H3.5C3.08 9.8 2.8 10.08 2.8 10.5V11.9C2.8 12.32 3.08 12.6 3.5 12.6H21V9.1C21 5.6 17.5 5.6 17.5 5.6H9.8Z" fill="#2E66C2"/>
</svg>
