<svg xmlns="http://www.w3.org/2000/svg" enable-background="new 0 0 64 64" viewBox="0 0 64 64" id="hotel"><rect width="38.6" height="2.6" x="12.7" y="10.2" fill="#2f4159"></rect><rect width="38.5" height="2" x="12.8" y="62" fill="#2f4159"></rect><rect width="3.2" height="3.6" x="40.6" y="19.2" fill="#2f4159"></rect><path fill="#2f4159" d="M36.3,52.4v7.5h-8.7v-7.5c0-2.4,2-4.4,4.4-4.4C34.4,48,36.3,50,36.3,52.4z"></path><path fill="#2f4159" d="M15.5,14.9v45h10.1v-7.5c0-3.6,2.9-6.4,6.4-6.4c3.6,0,6.4,2.9,6.4,6.4v7.5h10.1v-45H15.5z M25.5,42.8
		c0,0.6-0.5,1-1,1h-5.3c-0.6,0-1-0.5-1-1v-5.7c0-0.6,0.5-1,1-1h5.3c0.6,0,1,0.5,1,1V42.8z M25.5,33.3c0,0.6-0.5,1-1,1h-5.3
		c-0.6,0-1-0.5-1-1v-5.7c0-0.6,0.5-1,1-1h5.3c0.6,0,1,0.5,1,1V33.3z M25.5,23.8c0,0.6-0.5,1-1,1h-5.3c-0.6,0-1-0.5-1-1v-5.7
		c0-0.6,0.5-1,1-1h5.3c0.6,0,1,0.5,1,1V23.8z M35.7,42.8c0,0.6-0.5,1-1,1h-5.3c-0.6,0-1-0.5-1-1v-5.7c0-0.6,0.5-1,1-1h5.3
		c0.6,0,1,0.5,1,1V42.8z M35.7,33.3c0,0.6-0.5,1-1,1h-5.3c-0.6,0-1-0.5-1-1v-5.7c0-0.6,0.5-1,1-1h5.3c0.6,0,1,0.5,1,1V33.3z
		 M35.7,23.8c0,0.6-0.5,1-1,1h-5.3c-0.6,0-1-0.5-1-1v-5.7c0-0.6,0.5-1,1-1h5.3c0.6,0,1,0.5,1,1V23.8z M45.9,42.8c0,0.6-0.5,1-1,1
		h-5.3c-0.6,0-1-0.5-1-1v-5.7c0-0.6,0.5-1,1-1h5.3c0.6,0,1,0.5,1,1V42.8z M45.9,33.3c0,0.6-0.5,1-1,1h-5.3c-0.6,0-1-0.5-1-1v-5.7
		c0-0.6,0.5-1,1-1h5.3c0.6,0,1,0.5,1,1V33.3z M45.9,23.8c0,0.6-0.5,1-1,1h-5.3c-0.6,0-1-0.5-1-1v-5.7c0-0.6,0.5-1,1-1h5.3
		c0.6,0,1,0.5,1,1V23.8z"></path><rect width="3.2" height="3.6" x="20.2" y="19.2" fill="#2f4159"></rect><rect width="3.2" height="3.6" x="30.4" y="19.2" fill="#2f4159"></rect><rect width="3.2" height="3.6" x="20.2" y="28.7" fill="#2f4159"></rect><rect width="3.2" height="3.6" x="30.4" y="28.7" fill="#2f4159"></rect><rect width="3.2" height="3.6" x="40.6" y="28.7" fill="#2f4159"></rect><rect width="3.2" height="3.6" x="20.2" y="38.2" fill="#2f4159"></rect><rect width="3.2" height="3.6" x="30.4" y="38.2" fill="#2f4159"></rect><rect width="3.2" height="3.6" x="40.6" y="38.2" fill="#2f4159"></rect><polygon fill="#2f4159" points="46.3 5.2 46.8 8.1 44.2 6.7 41.6 8.1 42.1 5.2 39.9 3.1 42.9 2.7 44.2 0 45.5 2.7 48.5 3.1"></polygon><polygon fill="#2f4159" points="46.3 5.2 46.8 8.1 44.2 6.7 41.6 8.1 42.1 5.2 39.9 3.1 42.9 2.7 44.2 0 45.5 2.7 48.5 3.1"></polygon><polygon fill="#2f4159" points="34.1 5.2 34.6 8.1 32 6.7 29.4 8.1 29.8 5.7 29.9 5.2 27.7 3.1 30.7 2.7 32 0 33.3 2.7 36.3 3.1"></polygon><polygon fill="#2f4159" points="34.1 5.2 34.6 8.1 32 6.7 29.4 8.1 29.8 5.7 29.9 5.2 27.7 3.1 30.7 2.7 32 0 33.3 2.7 36.3 3.1"></polygon><polygon fill="#2f4159" points="21.9 5.2 22.4 8.1 19.8 6.7 17.2 8.1 17.7 5.2 15.5 3.1 18.5 2.7 19.8 0 21.1 2.7 24.1 3.1"></polygon><polygon fill="#2f4159" points="21.9 5.2 22.4 8.1 19.8 6.7 17.2 8.1 17.7 5.2 15.5 3.1 18.5 2.7 19.8 0 21.1 2.7 24.1 3.1"></polygon></svg>