<svg xmlns="http://www.w3.org/2000/svg" data-name="Layer 1" viewBox="0 0 512 512" id="place"><g data-name="<Group>"><g data-name="<Group>"><path fill="#00efd1" d="M449.35,123.54V417.4l-131,67.21-.68-.36.09-.16V266.86a8.539,8.539,0,0,0,7.55-2.96L395.88,181c5.82-6.73,10.71-14.07,13.77-22.64a95.971,95.971,0,0,0,4.7-16.99l.2.03Z" data-name="<Group>"></path><path fill="#fedb41" d="M415.83,124.64a94.913,94.913,0,0,1-1.48,16.73,95.971,95.971,0,0,1-4.7,16.99c-3.06,8.57-7.95,15.91-13.77,22.64l-70.57,82.9a8.592,8.592,0,0,1-13.08,0L241.65,181a75.021,75.021,0,0,1-13.77-22.64,95.326,95.326,0,0,1-4.83-17.75c-9.62-56.38,33.16-113.22,95.72-113.22C375.41,27.39,415.83,73.98,415.83,124.64Zm-37.7-.25a59.36,59.36,0,1,0-59.36,59.36A59.365,59.365,0,0,0,378.13,124.39Z" data-name="<Group>"></path><circle cx="318.77" cy="124.39" r="59.36" fill="#00acea" data-name="<Group>"></circle><path fill="#00acea" d="M317.76,266.89v217.2l-.09.16L192.61,417.4l-.09.05V124.89l-.1-.2.19-.1,30.44,16.02a95.326,95.326,0,0,0,4.83,17.75A75.021,75.021,0,0,0,241.65,181l70.58,82.9a8.488,8.488,0,0,0,5.53,2.96Z" data-name="<Group>"></path><polygon fill="#00efd1" points="192.52 124.89 192.52 417.45 62.65 484.61 62.65 190.76 192.42 124.69 192.52 124.89" data-name="<Group>"></polygon></g><g data-name="<Group>"><path fill="#083863" d="M453.345,116.713a7.83,7.83,0,0,0-7.735-.29L423.719,127.68c.03-1.013.089-2.027.089-3.04a106.921,106.921,0,0,0-29.5-73.15,103.488,103.488,0,0,0-75.548-32.1c-31.428,0-59.817,13.135-79.943,36.988a105.587,105.587,0,0,0-25.106,70.28l-17.38-9.147a7.993,7.993,0,0,0-7.461.005L59.2,183.631A7.843,7.843,0,0,0,55,190.76V484.61a7.842,7.842,0,0,0,3.666,6.834,7.689,7.689,0,0,0,4.072,1.166,7.834,7.834,0,0,0,3.631-.893L192.574,426.44l121.36,64.878.674.361a8,8,0,0,0,7.4.05l130.824-67.21A7.845,7.845,0,0,0,457,417.4V123.54A7.84,7.84,0,0,0,453.345,116.713ZM251.052,66.7a88.928,88.928,0,0,1,131.705-4.151,90.791,90.791,0,0,1,25.073,62.1,87.254,87.254,0,0,1-1.355,15.319,88.156,88.156,0,0,1-4.309,15.574l-.05.137c-2.444,6.844-6.348,13.229-12.328,20.144l-70.567,82.9a.549.549,0,0,1-.534.2.5.5,0,0,1-.365-.2l-70.616-82.942a66.735,66.735,0,0,1-12.344-20.241,87.585,87.585,0,0,1-4.426-16.266A89.183,89.183,0,0,1,251.052,66.7ZM201,137.792l15.163,8.107A103.457,103.457,0,0,0,220.5,161.14a82.253,82.253,0,0,0,15.121,25.047l70.651,82.876a9.056,9.056,0,0,0,3.73,3.2V470.95L201,412.557ZM71,195.664,185,137.69V412.581L71,471.467Zm370,216.85-115,59.3V273.38a17.536,17.536,0,0,0,5.521-4.294l70.47-82.854c7.156-8.274,12.107-16.488,15.2-25.109a104.036,104.036,0,0,0,4.043-14.241L441,136.638Z" data-name="<Compound Path>"></path><path fill="#083863" d="M318.77,191.75a67.36,67.36,0,1,0-67.36-67.36A67.437,67.437,0,0,0,318.77,191.75Zm0-118.72a51.36,51.36,0,1,1-51.36,51.36A51.418,51.418,0,0,1,318.77,73.03Z" data-name="<Compound Path>"></path></g></g></svg>