<svg width="21" height="21" viewBox="0 0 21 21" fill="#2E66C2" xmlns="http://www.w3.org/2000/svg">
  <g fill="#000" stroke="#000" stroke-width="0.2">
<path d="M5.78812 18.375C5.38562 18.375 5.04962 18.2402 4.78012 17.9707C4.51004 17.7007 4.375 17.3644 4.375 16.9619V7.53813C4.375 7.13562 4.51004 6.79962 4.78012 6.53012C5.04962 6.26004 5.38562 6.125 5.78812 6.125H7.4375V5.6875C7.4375 4.837 7.73529 4.11396 8.33087 3.51837C8.92646 2.92279 9.6495 2.625 10.5 2.625C11.3505 2.625 12.0735 2.92279 12.6691 3.51837C13.2647 4.11396 13.5625 4.837 13.5625 5.6875V6.125H15.2119C15.6144 6.125 15.9504 6.26004 16.2199 6.53012C16.49 6.79962 16.625 7.13562 16.625 7.53813V16.9619C16.625 17.3644 16.4902 17.7004 16.2207 17.9699C15.9507 18.24 15.6144 18.375 15.2119 18.375H5.78812ZM8.3125 6.125H12.6875V5.6875C12.6875 5.0715 12.4769 4.55292 12.0557 4.13175C11.6346 3.71058 11.116 3.5 10.5 3.5C9.884 3.5 9.36542 3.71058 8.94425 4.13175C8.52308 4.55292 8.3125 5.0715 8.3125 5.6875V6.125ZM13.125 9.625C13.2493 9.625 13.3534 9.58329 13.4374 9.49988C13.5208 9.41588 13.5625 9.31175 13.5625 9.1875V7H12.6875V9.1875C12.6875 9.31175 12.7292 9.41588 12.8126 9.49988C12.8966 9.58329 13.0007 9.625 13.125 9.625ZM7.875 9.625C7.99925 9.625 8.10338 9.58329 8.18738 9.49988C8.27079 9.41588 8.3125 9.31175 8.3125 9.1875V7H7.4375V9.1875C7.4375 9.31175 7.47921 9.41588 7.56262 9.49988C7.64662 9.58329 7.75075 9.625 7.875 9.625Z" fill="#2E66C2"/>
 </g>
</svg>
