<svg width="17" height="15" viewBox="0 0 17 15" fill="#2E66C2" xmlns="http://www.w3.org/2000/svg">
<path d="M16.3619 6.05543C16.3525 6.01204 16.3388 5.96972 16.3209 5.9291L14.7713 2.31316C14.414 1.47768 13.5449 0.9375 12.556 0.9375H4.44397C3.4559 0.9375 2.58596 1.47768 2.22913 2.31316L0.677915 5.9291C0.642661 6.01067 0.624648 6.09864 0.625005 6.1875V13.4062C0.625005 13.5803 0.694146 13.7472 0.817217 13.8703C0.940287 13.9934 1.10721 14.0625 1.28126 14.0625H2.59376C2.7678 14.0625 2.93472 13.9934 3.05779 13.8703C3.18086 13.7472 3.25001 13.5803 3.25001 13.4062V12.75H13.75V13.4062C13.75 13.5803 13.8191 13.7472 13.9422 13.8703C14.0653 13.9934 14.2322 14.0625 14.4063 14.0625H15.7188C15.8928 14.0625 16.0597 13.9934 16.1828 13.8703C16.3059 13.7472 16.375 13.5803 16.375 13.4062V6.1875C16.3751 6.14315 16.3707 6.0989 16.3619 6.05543ZM3.90626 10.125C3.64667 10.125 3.39291 10.048 3.17707 9.9038C2.96123 9.75958 2.793 9.5546 2.69366 9.31477C2.59432 9.07494 2.56833 8.81104 2.61897 8.55644C2.66962 8.30184 2.79462 8.06798 2.97818 7.88442C3.16173 7.70087 3.3956 7.57586 3.6502 7.52522C3.9048 7.47458 4.1687 7.50057 4.40853 7.59991C4.64836 7.69925 4.85334 7.86747 4.99756 8.08331C5.14178 8.29915 5.21876 8.55291 5.21876 8.8125C5.21876 9.1606 5.08047 9.49444 4.83433 9.74058C4.58819 9.98672 4.25435 10.125 3.90626 10.125ZM13.0938 10.125C12.8342 10.125 12.5804 10.048 12.3646 9.9038C12.1487 9.75958 11.9805 9.5546 11.8812 9.31477C11.7818 9.07494 11.7558 8.81104 11.8065 8.55644C11.8571 8.30184 11.9821 8.06798 12.1657 7.88442C12.3492 7.70087 12.5831 7.57586 12.8377 7.52522C13.0923 7.47458 13.3562 7.50057 13.596 7.59991C13.8359 7.69925 14.0408 7.86747 14.1851 8.08331C14.3293 8.29915 14.4063 8.55291 14.4063 8.8125C14.4063 9.1606 14.268 9.49444 14.0218 9.74058C13.7757 9.98672 13.4419 10.125 13.0938 10.125ZM2.27629 5.53125L3.43417 2.83037C3.58264 2.48338 3.98829 2.25 4.44397 2.25H12.556C13.0113 2.25 13.4174 2.48338 13.5658 2.83037L14.7237 5.53125H2.27629Z" fill="#2E66C2"/>
</svg>
