<svg width="21" height="13" viewBox="0 0 21 13" fill="none" xmlns="http://www.w3.org/2000/svg">
<path d="M2.625 7.8H20.3438C20.5215 7.8 20.6753 7.86432 20.8052 7.99297C20.9351 8.12161 21 8.27396 21 8.45V13H18.375V10.4H2.625V13H0V0.65C0 0.473958 0.0649414 0.321615 0.194824 0.192969C0.324707 0.0643229 0.478516 0 0.65625 0H1.96875C2.14648 0 2.30029 0.0643229 2.43018 0.192969C2.56006 0.321615 2.625 0.473958 2.625 0.65V7.8ZM8.53125 4.55C8.53125 3.83229 8.2749 3.21953 7.76221 2.71172C7.24951 2.20391 6.63086 1.95 5.90625 1.95C5.18164 1.95 4.56299 2.20391 4.05029 2.71172C3.5376 3.21953 3.28125 3.83229 3.28125 4.55C3.28125 5.26771 3.5376 5.88047 4.05029 6.38828C4.56299 6.89609 5.18164 7.15 5.90625 7.15C6.63086 7.15 7.24951 6.89609 7.76221 6.38828C8.2749 5.88047 8.53125 5.26771 8.53125 4.55ZM21 7.15V6.5C21 5.42344 20.6155 4.5043 19.8464 3.74258C19.0774 2.98086 18.1494 2.6 17.0625 2.6H9.84375C9.66602 2.6 9.51221 2.66432 9.38232 2.79297C9.25244 2.92161 9.1875 3.07396 9.1875 3.25V7.15H21Z" fill="#969696"/>
</svg>
