<svg width="14" height="20" viewBox="0 0 14 20" fill="none" xmlns="http://www.w3.org/2000/svg">
<path d="M6.85497 19.3L6.48774 18.8512C6.24292 18.5247 0 11.2209 0 6.85497C0 3.06025 3.10106 0 6.85497 0C10.6089 0 13.7099 3.10106 13.7099 6.85497C13.7099 11.2209 7.46702 18.5655 7.2222 18.8512L6.85497 19.3ZM6.85497 0.938478C3.5907 0.938478 0.979281 3.5907 0.979281 6.81417C0.979281 10.2417 5.50846 16.0765 6.85497 17.7495C8.20148 16.0765 12.7307 10.2825 12.7307 6.81417C12.7307 3.5907 10.1192 0.938478 6.85497 0.938478Z" fill="#212121"/>
<path d="M6.85507 9.46649C5.42695 9.46649 4.24365 8.28319 4.24365 6.85507C4.24365 5.42695 5.42695 4.24365 6.85507 4.24365C8.28319 4.24365 9.46649 5.42695 9.46649 6.85507C9.46649 8.28319 8.28319 9.46649 6.85507 9.46649ZM6.85507 5.22293C5.95739 5.22293 5.22293 5.9574 5.22293 6.85507C5.22293 7.75274 5.95739 8.48721 6.85507 8.48721C7.75274 8.48721 8.4872 7.75274 8.4872 6.85507C8.4872 5.9574 7.75274 5.22293 6.85507 5.22293Z" fill="#212121"/>
</svg>
